<?xml version="1.0" standalone="no"?>
<!DOCTYPE svg PUBLIC "-//W3C//DTD SVG 20010904//EN"
 "http://www.w3.org/TR/2001/REC-SVG-20010904/DTD/svg10.dtd">
<svg version="1.0" xmlns="http://www.w3.org/2000/svg"
 width="900.000000pt" height="573.000000pt" viewBox="0 0 900.000000 573.000000"
 preserveAspectRatio="xMidYMid meet">
<metadata>
Created by potrace 1.12, written by Peter Selinger 2001-2015
</metadata>
<g transform="translate(0.000000,573.000000) scale(0.100000,-0.100000)"
fill="#000000" stroke="none">
<path d="M450 4810 l0 -880 805 0 805 0 0 -315 0 -315 1265 0 1265 0 0 -450 0
-450 630 0 630 0 0 1645 0 1645 -2700 0 -2700 0 0 -880z"/>
<path d="M5880 5110 l0 -580 390 0 390 0 0 -1850 0 -1850 1145 0 1145 0 0
2430 0 2430 -1535 0 -1535 0 0 -580z"/>
<path d="M5880 3450 l0 -1050 375 0 375 0 0 1050 0 1050 -375 0 -375 0 0
-1050z"/>
<path d="M450 3150 l0 -740 440 0 440 0 0 740 0 740 -440 0 -440 0 0 -740z"/>
<path d="M1360 3150 l0 -740 175 0 175 0 0 740 0 740 -175 0 -175 0 0 -740z"/>
<path d="M1740 3145 l0 -745 140 0 140 0 0 745 0 745 -140 0 -140 0 0 -745z"/>
<path d="M2050 2835 l0 -435 380 0 380 0 0 435 0 435 -380 0 -380 0 0 -435z"/>
<path d="M2840 2835 l0 -435 355 0 355 0 0 435 0 435 -355 0 -355 0 0 -435z"/>
<path d="M3580 2835 l0 -435 225 0 225 0 0 435 0 435 -225 0 -225 0 0 -435z"/>
<path d="M4060 2835 l0 -435 250 0 250 0 0 435 0 435 -250 0 -250 0 0 -435z"/>
<path d="M590 2205 l0 -95 225 0 225 0 0 95 0 95 -225 0 -225 0 0 -95z"/>
<path d="M40 1555 l0 -725 190 0 190 0 0 725 0 725 -190 0 -190 0 0 -725z"/>
<path d="M1085 1984 c-16 -8 -70 -32 -120 -55 -49 -22 -108 -49 -130 -59 -22
-11 -53 -24 -68 -29 l-28 -11 26 -42 c14 -24 43 -71 63 -105 20 -35 43 -63 50
-63 7 0 58 19 115 41 56 23 131 53 167 67 36 13 71 30 77 36 10 9 -2 36 -53
121 -36 61 -67 111 -67 111 -1 1 -15 -5 -32 -12z"/>
<path d="M1147 1988 c6 -7 40 -59 77 -115 l67 -103 209 0 210 0 0 115 0 115
-286 0 c-228 0 -284 -3 -277 -12z"/>
<path d="M1730 1885 l0 -115 255 0 255 0 0 115 0 115 -255 0 -255 0 0 -115z"/>
<path d="M2270 1885 l0 -115 130 0 130 0 0 115 0 115 -130 0 -130 0 0 -115z"/>
<path d="M2560 1885 l0 -115 320 0 320 0 0 115 0 115 -320 0 -320 0 0 -115z"/>
<path d="M3230 1885 l0 -115 160 0 160 0 0 115 0 115 -160 0 -160 0 0 -115z"/>
<path d="M1230 1723 c-25 -12 -50 -22 -57 -22 -7 -1 -36 -12 -65 -24 -29 -13
-90 -39 -135 -57 -46 -18 -83 -34 -83 -37 0 -12 96 -163 103 -163 5 0 23 6 40
14 18 8 102 43 187 78 143 58 161 63 227 62 l71 -1 0 84 c0 55 -4 84 -12 85
-6 0 -61 2 -121 2 -95 1 -116 -2 -155 -21z"/>
<path d="M3860 1615 l0 -135 145 0 145 0 0 135 0 135 -145 0 -145 0 0 -135z"/>
<path d="M1550 1655 l0 -85 235 0 235 0 0 85 0 85 -235 0 -235 0 0 -85z"/>
<path d="M4180 1285 l0 -455 445 0 445 0 0 455 0 455 -445 0 -445 0 0 -455z"/>
<path d="M5100 1285 l0 -455 375 0 375 0 0 455 0 455 -375 0 -375 0 0 -455z"/>
<path d="M5880 1285 l0 -455 375 0 375 0 0 455 0 455 -375 0 -375 0 0 -455z"/>
<path d="M450 1210 l0 -380 785 0 785 0 0 350 0 349 -327 3 -328 3 -160 -63
c-88 -35 -176 -70 -196 -77 l-35 -13 -63 104 -62 104 -200 0 -199 0 0 -380z"/>
<path d="M3860 1315 l0 -145 150 0 150 0 0 145 0 145 -150 0 -150 0 0 -145z"/>
<path d="M3860 990 l0 -160 150 0 150 0 0 160 0 160 -150 0 -150 0 0 -160z"/>
<path d="M3360 940 l0 -110 235 0 235 0 0 110 0 110 -235 0 -235 0 0 -110z"/>
<path d="M450 774 c0 -45 20 -144 36 -184 36 -85 110 -218 148 -266 54 -67
183 -163 271 -202 39 -17 109 -42 155 -55 151 -43 340 -24 490 48 113 55 151
80 256 172 63 54 139 180 180 296 22 65 43 196 33 214 -2 4 -356 7 -787 7
l-782 1 0 -31z"/>
</g>
</svg>
