<?xml version="1.0" encoding="UTF-8" ?>
<!DOCTYPE svg PUBLIC "-//W3C//DTD SVG 1.1//EN" "http://www.w3.org/Graphics/SVG/1.1/DTD/svg11.dtd">
<svg width="900pt" height="435pt" viewBox="0 0 900 435" version="1.1" xmlns="http://www.w3.org/2000/svg">
<g id="#000000ff">
<path fill="#000000" opacity="1.00" d=" M 4.00 4.00 C 69.33 4.00 134.67 4.00 200.00 4.00 C 200.00 64.33 200.00 124.67 200.00 185.00 C 134.67 185.00 69.33 185.00 4.00 185.00 C 4.00 124.67 4.00 64.33 4.00 4.00 Z" />
<path fill="#000000" opacity="1.00" d=" M 204.00 4.00 C 236.00 4.00 268.00 4.00 300.00 4.00 C 300.00 64.33 300.00 124.67 300.00 185.00 C 279.00 185.00 258.00 185.00 237.00 185.00 C 237.00 167.67 237.00 150.33 237.00 133.00 C 226.00 133.00 215.00 133.00 204.00 133.00 C 204.00 90.00 204.00 47.00 204.00 4.00 Z" />
<path fill="#000000" opacity="1.00" d=" M 303.00 4.00 C 446.33 4.00 589.67 4.00 733.00 4.00 C 733.00 64.67 733.00 125.33 733.00 186.00 C 690.00 186.00 647.00 186.00 604.00 186.00 C 604.00 179.00 603.99 172.00 604.00 165.00 C 569.33 165.00 534.67 165.00 500.00 165.00 C 500.00 155.00 500.00 145.00 500.00 135.00 C 479.00 135.00 458.00 135.00 437.00 135.00 C 437.00 127.00 437.00 119.00 437.00 111.00 C 392.33 111.00 347.67 111.00 303.00 111.00 C 303.00 75.33 303.00 39.67 303.00 4.00 Z" />
<path fill="#000000" opacity="1.00" d=" M 736.00 4.00 C 744.66 4.00 753.33 4.00 762.00 4.00 C 762.00 64.67 762.00 125.33 762.00 186.00 C 753.33 186.00 744.66 186.00 736.00 186.00 C 736.00 125.33 736.00 64.67 736.00 4.00 Z" />
<path fill="#000000" opacity="1.00" d=" M 765.00 38.00 C 808.67 38.00 852.33 38.00 896.00 38.00 C 896.00 87.33 896.00 136.67 896.00 186.00 C 874.33 186.00 852.67 186.00 831.00 186.00 C 831.00 152.67 831.00 119.33 831.00 86.00 C 809.00 86.00 787.00 86.00 765.00 86.00 C 765.00 70.00 765.00 54.00 765.00 38.00 Z" />
<path fill="#000000" opacity="1.00" d=" M 765.00 89.00 C 775.66 89.00 786.33 89.00 797.00 89.00 C 797.00 121.33 797.00 153.67 797.00 186.00 C 786.33 186.00 775.66 186.00 765.00 186.00 C 765.00 153.67 765.00 121.33 765.00 89.00 Z" />
<path fill="#000000" opacity="1.00" d=" M 800.00 89.00 C 809.33 89.00 818.67 89.00 828.00 89.00 C 828.00 121.33 828.00 153.67 828.00 186.00 C 818.67 186.00 809.33 186.00 800.00 186.00 C 800.00 153.67 800.00 121.33 800.00 89.00 Z" />
<path fill="#000000" opacity="1.00" d=" M 303.00 114.00 C 313.00 114.00 323.00 114.00 333.00 114.00 C 333.00 137.67 333.00 161.33 333.00 185.00 C 323.00 185.00 313.00 185.00 303.00 185.00 C 303.00 161.33 303.00 137.67 303.00 114.00 Z" />
<path fill="#000000" opacity="1.00" d=" M 336.00 114.00 C 345.67 114.00 355.33 114.00 365.00 114.00 C 365.00 137.67 365.00 161.33 365.00 185.00 C 355.33 185.00 345.67 185.00 336.00 185.00 C 336.00 161.33 336.00 137.67 336.00 114.00 Z" />
<path fill="#000000" opacity="1.00" d=" M 367.00 114.00 C 389.33 114.00 411.67 114.00 434.00 114.00 C 434.00 131.33 434.00 148.67 434.00 166.00 C 411.67 166.00 389.33 166.00 367.00 166.00 C 367.00 148.67 367.00 131.33 367.00 114.00 Z" />
<path fill="#000000" opacity="1.00" d=" M 204.00 136.00 C 214.00 136.00 224.00 136.00 234.00 136.00 C 234.00 152.33 234.00 168.67 234.00 185.00 C 224.00 185.00 214.00 185.00 204.00 185.00 C 204.00 168.67 204.00 152.33 204.00 136.00 Z" />
<path fill="#000000" opacity="1.00" d=" M 437.00 139.00 C 457.00 139.00 477.00 139.00 497.00 139.00 C 497.00 147.67 497.00 156.33 497.00 165.00 C 477.00 165.00 457.00 165.00 437.00 165.00 C 437.00 156.33 437.00 147.67 437.00 139.00 Z" />
<path fill="#000000" opacity="1.00" d=" M 500.00 169.00 C 510.33 169.00 520.67 169.00 531.00 169.00 C 531.00 174.67 531.00 180.33 531.00 186.00 C 520.67 186.00 510.33 186.00 500.00 186.00 C 500.00 180.33 500.00 174.67 500.00 169.00 Z" />
<path fill="#000000" opacity="1.00" d=" M 533.00 169.00 C 544.33 169.00 555.67 169.00 567.00 169.00 C 567.00 174.67 567.00 180.33 567.00 186.00 C 555.67 186.00 544.33 186.00 533.00 186.00 C 533.00 180.33 533.00 174.67 533.00 169.00 Z" />
<path fill="#000000" opacity="1.00" d=" M 570.00 169.00 C 580.33 169.00 590.67 169.00 601.00 169.00 C 601.00 174.67 601.00 180.33 601.00 186.00 C 590.67 186.00 580.33 186.00 570.00 186.00 C 570.00 180.33 570.00 174.67 570.00 169.00 Z" />
<path fill="#000000" opacity="1.00" d=" M 4.00 188.00 C 14.67 188.00 25.33 188.00 36.00 188.00 C 36.00 198.67 36.00 209.33 36.00 220.00 C 25.33 220.00 14.67 220.00 4.00 220.00 C 4.00 209.33 4.00 198.67 4.00 188.00 Z" />
<path fill="#000000" opacity="1.00" d=" M 567.00 208.00 C 578.00 208.00 589.00 208.00 600.00 208.00 C 600.00 214.67 600.00 221.33 600.00 228.00 C 589.00 228.00 578.00 228.00 567.00 228.00 C 567.00 221.33 567.00 214.67 567.00 208.00 Z" />
<path fill="#000000" opacity="1.00" d=" M 603.00 208.00 C 620.33 208.00 637.67 208.00 655.00 208.00 C 655.00 215.00 655.00 222.00 655.00 229.00 C 637.67 229.00 620.33 229.00 603.00 229.00 C 603.00 222.00 603.00 215.00 603.00 208.00 Z" />
<path fill="#000000" opacity="1.00" d=" M 54.00 209.00 C 60.00 209.00 66.00 209.00 72.00 209.00 C 72.00 215.33 72.00 221.67 72.00 228.00 C 66.00 228.00 60.00 228.00 54.00 228.00 C 54.00 221.67 54.00 215.33 54.00 209.00 Z" />
<path fill="#000000" opacity="1.00" d=" M 87.00 209.00 C 93.67 209.00 100.33 209.00 107.00 209.00 C 107.00 215.67 107.00 222.33 107.00 229.00 C 100.33 229.00 93.67 229.00 87.00 229.00 C 87.00 222.33 87.00 215.67 87.00 209.00 Z" />
<path fill="#000000" opacity="1.00" d=" M 121.00 209.00 C 136.00 209.00 151.00 209.00 166.00 209.00 C 166.00 215.33 166.00 221.67 166.00 228.00 C 151.00 228.00 136.00 228.00 121.00 228.00 C 121.00 221.67 121.00 215.33 121.00 209.00 Z" />
<path fill="#000000" opacity="1.00" d=" M 169.00 209.00 C 183.33 209.00 197.67 209.00 212.00 209.00 C 212.00 215.33 212.00 221.67 212.00 228.00 C 197.67 228.00 183.33 228.00 169.00 228.00 C 169.00 221.67 169.00 215.33 169.00 209.00 Z" />
<path fill="#000000" opacity="1.00" d=" M 214.00 209.00 C 222.67 209.00 231.33 209.00 240.00 209.00 C 240.00 215.33 240.00 221.67 240.00 228.00 C 231.33 228.00 222.67 228.00 214.00 228.00 C 214.00 221.67 214.00 215.33 214.00 209.00 Z" />
<path fill="#000000" opacity="1.00" d=" M 243.00 209.00 C 256.00 209.00 269.00 209.00 282.00 209.00 C 282.00 215.33 282.00 221.67 282.00 228.00 C 269.00 228.00 256.00 228.00 243.00 228.00 C 243.00 221.67 243.00 215.33 243.00 209.00 Z" />
<path fill="#000000" opacity="1.00" d=" M 285.00 209.00 C 298.67 209.00 312.33 209.00 326.00 209.00 C 326.00 215.33 326.00 221.67 326.00 228.00 C 312.33 228.00 298.67 228.00 285.00 228.00 C 285.00 221.67 285.00 215.33 285.00 209.00 Z" />
<path fill="#000000" opacity="1.00" d=" M 329.00 209.00 C 344.67 209.00 360.33 209.00 376.00 209.00 C 376.00 215.33 376.00 221.67 376.00 228.00 C 360.33 228.00 344.67 228.00 329.00 228.00 C 329.00 221.67 329.00 215.33 329.00 209.00 Z" />
<path fill="#000000" opacity="1.00" d=" M 379.00 209.00 C 389.67 209.00 400.33 209.00 411.00 209.00 C 411.00 215.33 411.00 221.67 411.00 228.00 C 400.33 228.00 389.67 228.00 379.00 228.00 C 379.00 221.67 379.00 215.33 379.00 209.00 Z" />
<path fill="#000000" opacity="1.00" d=" M 670.00 209.00 C 683.67 209.00 697.33 209.00 711.00 209.00 C 711.00 215.33 711.00 221.67 711.00 228.00 C 697.33 228.00 683.67 228.00 670.00 228.00 C 670.00 221.67 670.00 215.33 670.00 209.00 Z" />
<path fill="#000000" opacity="1.00" d=" M 727.00 209.00 C 739.33 209.00 751.67 209.00 764.00 209.00 C 764.00 215.33 764.00 221.67 764.00 228.00 C 751.67 228.00 739.33 228.00 727.00 228.00 C 727.00 221.67 727.00 215.33 727.00 209.00 Z" />
<path fill="#000000" opacity="1.00" d=" M 767.00 209.00 C 777.66 209.00 788.33 209.00 799.00 209.00 C 799.00 215.33 799.00 221.67 799.00 228.00 C 788.33 228.00 777.66 228.00 767.00 228.00 C 767.00 221.67 767.00 215.33 767.00 209.00 Z" />
<path fill="#000000" opacity="1.00" d=" M 813.00 209.00 C 820.33 209.00 827.66 209.00 835.00 209.00 C 835.00 215.67 835.00 222.33 835.00 229.00 C 827.66 229.00 820.33 229.00 813.00 229.00 C 813.00 222.33 813.00 215.67 813.00 209.00 Z" />
<path fill="#000000" opacity="1.00" d=" M 838.00 209.00 C 848.66 209.00 859.33 209.00 870.00 209.00 C 870.00 215.67 870.00 222.33 870.00 229.00 C 859.33 229.00 848.66 229.00 838.00 229.00 C 838.00 222.33 838.00 215.67 838.00 209.00 Z" />
<path fill="#000000" opacity="1.00" d=" M 3.00 223.00 C 14.00 223.00 25.00 223.00 36.00 223.00 C 36.00 244.00 36.00 265.00 36.00 286.00 C 25.00 286.00 14.00 286.00 3.00 286.00 C 3.00 265.00 3.00 244.00 3.00 223.00 Z" />
<path fill="#000000" opacity="1.00" d=" M 39.00 252.00 C 59.33 252.00 79.67 252.00 100.00 252.00 C 100.00 311.67 100.00 371.33 100.00 431.00 C 68.33 431.00 36.67 431.00 5.00 431.00 C 5.03 400.32 4.94 369.64 5.05 338.96 C 5.02 337.67 4.72 336.44 4.14 335.27 C 3.81 319.85 4.09 304.42 4.00 289.00 C 15.67 289.00 27.33 289.00 39.00 289.00 C 39.00 276.67 39.00 264.33 39.00 252.00 Z" />
<path fill="#000000" opacity="1.00" d=" M 103.00 252.00 C 113.33 252.00 123.67 252.00 134.00 252.00 C 134.00 311.67 134.00 371.33 134.00 431.00 C 123.67 431.00 113.33 431.00 103.00 431.00 C 103.00 371.33 103.00 311.67 103.00 252.00 Z" />
<path fill="#000000" opacity="1.00" d=" M 137.00 252.00 C 147.00 252.00 157.00 252.00 167.00 252.00 C 167.00 311.67 167.00 371.33 167.00 431.00 C 157.00 431.00 147.00 431.00 137.00 431.00 C 137.00 371.33 137.00 311.67 137.00 252.00 Z" />
<path fill="#000000" opacity="1.00" d=" M 170.00 252.00 C 175.00 252.00 180.00 252.00 185.00 252.00 C 185.00 297.00 185.00 342.00 185.00 387.00 C 180.00 387.00 175.00 387.00 170.00 387.00 C 170.00 342.00 170.00 297.00 170.00 252.00 Z" />
<path fill="#000000" opacity="1.00" d=" M 187.00 252.00 C 192.00 252.00 197.00 252.00 202.00 252.00 C 202.00 297.00 202.00 342.00 202.00 387.00 C 197.00 387.00 192.00 387.00 187.00 387.00 C 187.00 342.00 187.00 297.00 187.00 252.00 Z" />
<path fill="#000000" opacity="1.00" d=" M 204.00 252.00 C 223.67 252.00 243.33 252.00 263.00 252.00 C 263.00 297.00 263.00 342.00 263.00 387.00 C 243.33 387.00 223.67 387.00 204.00 387.00 C 204.00 342.00 204.00 297.00 204.00 252.00 Z" />
<path fill="#000000" opacity="1.00" d=" M 266.00 252.00 C 276.00 252.00 286.00 252.00 296.00 252.00 C 296.00 259.67 296.00 267.33 296.00 275.00 C 286.00 275.00 276.00 275.00 266.00 275.00 C 266.00 267.33 266.00 259.67 266.00 252.00 Z" />
<path fill="#000000" opacity="1.00" d=" M 299.00 252.00 C 309.67 252.00 320.33 252.00 331.00 252.00 C 331.00 259.67 331.00 267.33 331.00 275.00 C 320.33 275.00 309.67 275.00 299.00 275.00 C 299.00 267.33 299.00 259.67 299.00 252.00 Z" />
<path fill="#000000" opacity="1.00" d=" M 502.00 252.00 C 523.00 252.00 544.00 252.00 565.00 252.00 C 565.00 279.00 565.00 306.00 565.00 333.00 C 544.00 333.00 523.00 333.00 502.00 333.00 C 502.00 306.00 502.00 279.00 502.00 252.00 Z" />
<path fill="#000000" opacity="1.00" d=" M 568.00 252.00 C 584.00 252.00 600.00 252.00 616.00 252.00 C 616.00 311.67 616.00 371.33 616.00 431.00 C 588.67 431.00 561.33 431.00 534.00 431.00 C 534.00 399.33 534.00 367.67 534.00 336.00 C 545.33 336.00 556.67 336.00 568.00 336.00 C 568.00 308.00 568.00 280.00 568.00 252.00 Z" />
<path fill="#000000" opacity="1.00" d=" M 619.00 252.00 C 634.33 252.00 649.67 252.00 665.00 252.00 C 665.00 280.00 665.00 308.00 665.00 336.00 C 697.33 336.00 729.67 336.00 762.00 336.00 C 762.00 355.00 762.00 374.00 762.00 393.00 C 735.33 393.00 708.67 393.00 682.00 393.00 C 682.00 405.67 682.00 418.33 682.00 431.00 C 661.00 431.00 640.00 431.00 619.00 431.00 C 619.00 371.33 619.00 311.67 619.00 252.00 Z" />
<path fill="#000000" opacity="1.00" d=" M 668.00 252.00 C 678.00 252.00 688.00 252.00 698.00 252.00 C 698.00 279.00 698.00 306.00 698.00 333.00 C 688.00 333.00 678.00 333.00 668.00 333.00 C 668.00 306.00 668.00 279.00 668.00 252.00 Z" />
<path fill="#000000" opacity="1.00" d=" M 701.00 252.00 C 711.66 252.00 722.33 252.00 733.00 252.00 C 733.00 279.00 733.00 306.00 733.00 333.00 C 722.33 333.00 711.66 333.00 701.00 333.00 C 701.00 306.00 701.00 279.00 701.00 252.00 Z" />
<path fill="#000000" opacity="1.00" d=" M 736.00 252.00 C 744.66 252.00 753.33 252.00 762.00 252.00 C 762.00 279.00 762.00 306.00 762.00 333.00 C 753.33 333.00 744.66 333.00 736.00 333.00 C 736.00 306.00 736.00 279.00 736.00 252.00 Z" />
<path fill="#000000" opacity="1.00" d=" M 765.00 252.00 C 776.33 252.00 787.67 252.00 799.00 252.00 C 799.00 299.00 799.00 346.00 799.00 393.00 C 787.67 393.00 776.33 393.00 765.00 393.00 C 765.00 346.00 765.00 299.00 765.00 252.00 Z" />
<path fill="#000000" opacity="1.00" d=" M 802.00 252.00 C 833.33 252.00 864.67 252.00 896.00 252.00 C 896.00 311.67 896.00 371.33 896.00 431.00 C 875.33 431.00 854.67 431.00 834.00 431.00 C 834.00 418.33 834.00 405.67 834.00 393.00 C 823.33 393.00 812.66 393.00 802.00 393.00 C 802.00 346.00 802.00 299.00 802.00 252.00 Z" />
<path fill="#000000" opacity="1.00" d=" M 371.00 272.00 C 391.00 272.00 411.00 272.00 431.00 272.00 C 431.00 292.33 431.00 312.67 431.00 333.00 C 411.00 333.00 391.00 333.00 371.00 333.00 C 371.00 312.67 371.00 292.33 371.00 272.00 Z" />
<path fill="#000000" opacity="1.00" d=" M 434.00 272.00 C 455.67 272.00 477.33 272.00 499.00 272.00 C 499.00 293.33 499.00 314.67 499.00 336.00 C 510.00 336.00 521.00 336.00 532.00 336.00 C 532.00 367.67 532.00 399.33 532.00 431.00 C 510.67 431.00 489.33 431.00 468.00 431.00 C 468.00 398.33 468.00 365.67 468.00 333.00 C 456.67 333.00 445.33 333.00 434.00 333.00 C 434.00 312.67 434.00 292.33 434.00 272.00 Z" />
<path fill="#000000" opacity="1.00" d=" M 266.00 278.00 C 276.00 278.00 286.00 278.00 296.00 278.00 C 296.00 286.33 296.00 294.67 296.00 303.00 C 307.67 303.00 319.33 303.00 331.00 303.00 C 331.00 324.00 331.00 345.00 331.00 366.00 C 309.33 366.00 287.67 366.00 266.00 366.00 C 266.00 336.67 266.00 307.33 266.00 278.00 Z" />
<path fill="#000000" opacity="1.00" d=" M 299.00 278.00 C 309.67 278.00 320.33 278.00 331.00 278.00 C 331.00 285.33 331.00 292.67 331.00 300.00 C 320.33 300.00 309.67 300.00 299.00 300.00 C 299.00 292.67 299.00 285.33 299.00 278.00 Z" />
<path fill="#000000" opacity="1.00" d=" M 370.00 337.00 C 401.67 337.00 433.33 337.00 465.00 337.00 C 465.09 345.42 464.81 353.85 465.14 362.27 C 465.71 363.44 466.01 364.67 466.05 365.96 C 465.94 387.64 466.03 409.32 466.00 431.00 C 449.00 431.00 432.00 431.00 415.00 431.00 C 415.00 410.33 415.00 389.67 415.00 369.00 C 400.00 369.00 385.00 369.00 370.00 369.00 C 370.00 358.33 370.00 347.67 370.00 337.00 Z" />
<path fill="#000000" opacity="1.00" d=" M 266.00 369.00 C 287.67 369.00 309.33 369.00 331.00 369.00 C 331.00 379.29 331.00 389.57 331.00 399.86 C 320.99 407.58 311.01 415.35 300.99 423.07 C 301.00 425.71 301.00 428.35 301.00 431.00 C 257.67 431.00 214.33 431.00 171.00 431.00 C 171.00 417.67 171.00 404.33 171.00 391.00 C 202.67 391.00 234.33 391.00 266.00 391.00 C 266.00 383.67 266.00 376.33 266.00 369.00 Z" />
<path fill="#000000" opacity="1.00" d=" M 370.00 371.00 C 384.00 371.00 398.00 371.00 412.00 371.00 C 412.00 381.00 412.00 391.00 412.00 401.00 C 398.00 401.00 384.00 401.00 370.00 401.00 C 370.00 391.00 370.00 381.00 370.00 371.00 Z" />
<path fill="#000000" opacity="1.00" d=" M 370.00 404.00 C 384.00 404.00 398.00 404.00 412.00 404.00 C 412.00 413.00 412.00 422.00 412.00 431.00 C 398.00 431.00 384.00 431.00 370.00 431.00 C 370.00 422.00 370.00 413.00 370.00 404.00 Z" />
</g>
</svg>
