<?xml version="1.0" encoding="UTF-8" ?>
<!DOCTYPE svg PUBLIC "-//W3C//DTD SVG 1.1//EN" "http://www.w3.org/Graphics/SVG/1.1/DTD/svg11.dtd">
<svg width="900pt" height="574pt" viewBox="0 0 900 574" version="1.1" xmlns="http://www.w3.org/2000/svg">
<g id="#000000ff">
<path fill="#000000" opacity="1.00" d=" M 45.00 4.00 C 139.33 4.00 233.67 4.00 328.00 4.00 C 328.00 114.00 328.00 224.00 328.00 334.00 C 287.33 334.00 246.67 334.00 206.00 334.00 C 206.00 274.33 206.00 214.67 206.00 155.00 C 152.33 155.00 98.67 155.00 45.00 155.00 C 45.00 104.67 45.00 54.33 45.00 4.00 Z" />
<path fill="#000000" opacity="1.00" d=" M 331.00 4.00 C 364.67 4.00 398.33 4.00 432.00 4.00 C 432.00 114.00 432.00 224.00 432.00 334.00 C 398.33 334.00 364.67 334.00 331.00 334.00 C 331.00 224.00 331.00 114.00 331.00 4.00 Z" />
<path fill="#000000" opacity="1.00" d=" M 435.00 4.00 C 468.00 4.00 501.00 4.00 534.00 4.00 C 534.00 114.00 534.00 224.00 534.00 334.00 C 501.00 334.00 468.00 334.00 435.00 334.00 C 435.00 224.00 435.00 114.00 435.00 4.00 Z" />
<path fill="#000000" opacity="1.00" d=" M 538.00 4.00 C 657.00 4.00 776.00 4.00 895.00 4.00 C 895.00 79.67 895.00 155.33 895.00 231.00 C 803.33 231.00 711.67 231.00 620.00 231.00 C 620.00 265.33 620.00 299.67 620.00 334.00 C 592.67 334.00 565.33 334.00 538.00 334.00 C 538.00 224.00 538.00 114.00 538.00 4.00 Z" />
<path fill="#000000" opacity="1.00" d=" M 45.00 158.00 C 97.33 158.00 149.67 158.00 202.00 158.00 C 202.00 216.67 202.00 275.33 202.00 334.00 C 149.67 334.00 97.33 334.00 45.00 334.00 C 45.00 275.33 45.00 216.67 45.00 158.00 Z" />
<path fill="#000000" opacity="1.00" d=" M 623.00 234.00 C 636.33 234.00 649.67 234.00 663.00 234.00 C 663.00 267.33 663.00 300.67 663.00 334.00 C 649.67 334.00 636.33 334.00 623.00 334.00 C 623.00 300.67 623.00 267.33 623.00 234.00 Z" />
<path fill="#000000" opacity="1.00" d=" M 665.00 234.00 C 689.33 234.00 713.67 234.00 738.00 234.00 C 738.00 267.33 738.00 300.67 738.00 334.00 C 713.67 334.00 689.33 334.00 665.00 334.00 C 665.00 300.67 665.00 267.33 665.00 234.00 Z" />
<path fill="#000000" opacity="1.00" d=" M 741.00 234.00 C 766.67 234.00 792.33 234.00 818.00 234.00 C 818.00 267.33 818.00 300.67 818.00 334.00 C 792.33 334.00 766.67 334.00 741.00 334.00 C 741.00 300.67 741.00 267.33 741.00 234.00 Z" />
<path fill="#000000" opacity="1.00" d=" M 821.00 234.00 C 846.00 234.00 871.00 234.00 896.00 234.00 C 896.00 320.00 896.00 406.00 896.00 492.00 C 871.00 492.00 846.00 492.00 821.00 492.00 C 821.00 406.00 821.00 320.00 821.00 234.00 Z" />
<path fill="#000000" opacity="1.00" d=" M 4.00 347.00 C 16.67 347.00 29.33 347.00 42.00 347.00 C 42.00 395.33 42.00 443.67 42.00 492.00 C 29.33 492.00 16.67 492.00 4.00 492.00 C 4.00 443.67 4.00 395.33 4.00 347.00 Z" />
<path fill="#000000" opacity="1.00" d=" M 64.00 361.00 C 82.67 361.00 101.33 361.00 120.00 361.00 C 120.00 368.33 120.00 375.67 120.00 383.00 C 101.33 383.00 82.67 383.00 64.00 383.00 C 64.00 375.67 64.00 368.33 64.00 361.00 Z" />
<path fill="#000000" opacity="1.00" d=" M 358.00 362.00 C 380.67 362.00 403.33 362.00 426.00 362.00 C 426.00 370.33 426.00 378.67 426.00 387.00 C 403.33 387.00 380.67 387.00 358.00 387.00 C 358.00 378.67 358.00 370.33 358.00 362.00 Z" />
<path fill="#000000" opacity="1.00" d=" M 448.00 362.00 C 461.33 362.00 474.67 362.00 488.00 362.00 C 488.00 370.33 488.00 378.67 488.00 387.00 C 474.67 387.00 461.33 387.00 448.00 387.00 C 448.00 378.67 448.00 370.33 448.00 362.00 Z" />
<path fill="#000000" opacity="1.00" d=" M 531.00 362.00 C 550.33 362.00 569.67 362.00 589.00 362.00 C 589.00 370.33 589.00 378.67 589.00 387.00 C 569.67 387.00 550.33 387.00 531.00 387.00 C 531.00 378.67 531.00 370.33 531.00 362.00 Z" />
<path fill="#000000" opacity="1.00" d=" M 205.00 400.00 C 255.00 400.00 305.00 400.00 355.00 400.00 C 355.00 406.00 355.00 412.00 355.00 418.00 C 305.00 418.00 255.00 418.00 205.00 418.00 C 205.00 412.00 205.00 406.00 205.00 400.00 Z" />
<path fill="#000000" opacity="1.00" d=" M 412.00 400.00 C 443.67 400.00 475.33 400.00 507.00 400.00 C 507.00 430.67 507.00 461.33 507.00 492.00 C 475.33 492.00 443.67 492.00 412.00 492.00 C 412.00 461.33 412.00 430.67 412.00 400.00 Z" />
<path fill="#000000" opacity="1.00" d=" M 510.00 400.00 C 535.00 400.00 560.00 400.00 585.00 400.00 C 585.00 430.67 585.00 461.33 585.00 492.00 C 560.00 492.00 535.00 492.00 510.00 492.00 C 510.00 461.33 510.00 430.67 510.00 400.00 Z" />
<path fill="#000000" opacity="1.00" d=" M 588.00 400.00 C 613.00 400.00 638.00 400.00 663.00 400.00 C 663.00 430.67 663.00 461.33 663.00 492.00 C 638.00 492.00 613.00 492.00 588.00 492.00 C 588.00 461.33 588.00 430.67 588.00 400.00 Z" />
<path fill="#000000" opacity="1.00" d=" M 666.00 400.00 C 690.00 400.00 714.00 400.00 738.00 400.00 C 738.00 430.67 738.00 461.33 738.00 492.00 C 714.00 492.00 690.00 492.00 666.00 492.00 C 666.00 461.33 666.00 430.67 666.00 400.00 Z" />
<path fill="#000000" opacity="1.00" d=" M 741.00 400.00 C 767.06 400.00 793.12 399.99 819.19 400.00 C 819.02 401.61 818.85 403.24 818.15 404.72 C 817.81 433.81 818.10 462.91 818.00 492.00 C 792.33 492.00 766.67 492.00 741.00 492.00 C 741.00 461.33 741.00 430.67 741.00 400.00 Z" />
<path fill="#000000" opacity="1.00" d=" M 45.00 421.00 C 71.00 421.00 97.00 421.00 123.00 421.00 C 123.00 470.89 123.00 520.79 123.00 570.68 C 115.08 571.11 107.30 569.26 99.70 567.29 C 91.43 565.15 84.20 560.42 77.14 555.79 C 59.29 543.07 47.74 522.42 45.14 500.75 C 48.08 500.68 51.01 500.63 53.95 500.50 C 50.96 500.41 47.98 500.40 45.00 500.40 C 45.00 473.93 45.00 447.47 45.00 421.00 Z" />
<path fill="#000000" opacity="1.00" d=" M 126.00 421.00 C 138.00 421.00 150.00 421.00 162.00 421.00 C 162.00 427.33 162.00 433.67 162.00 440.00 C 175.33 440.00 188.67 440.00 202.00 440.00 C 202.00 457.33 202.00 474.67 202.00 492.00 C 176.67 492.00 151.33 492.00 126.00 492.00 C 126.00 468.33 126.00 444.67 126.00 421.00 Z" />
<path fill="#000000" opacity="1.00" d=" M 165.00 421.00 C 177.67 421.00 190.33 421.00 203.00 421.00 C 203.00 426.33 203.00 431.67 203.00 437.00 C 190.33 437.00 177.67 437.00 165.00 437.00 C 165.00 431.67 165.00 426.33 165.00 421.00 Z" />
<path fill="#000000" opacity="1.00" d=" M 358.00 469.00 C 375.00 469.00 392.00 469.00 409.00 469.00 C 409.00 476.67 409.00 484.33 409.00 492.00 C 392.00 492.00 375.00 492.00 358.00 492.00 C 358.00 484.33 358.00 476.67 358.00 469.00 Z" />
<path fill="#000000" opacity="1.00" d=" M 126.33 495.31 C 151.69 495.17 177.04 494.87 202.40 494.65 C 202.92 497.80 202.92 501.02 202.18 504.15 C 198.39 522.09 189.58 539.54 175.08 551.14 C 172.43 553.48 169.74 555.80 166.68 557.59 C 159.72 561.61 152.65 565.64 144.85 567.80 C 138.70 569.40 132.35 570.27 125.99 570.34 C 126.12 545.33 126.24 520.32 126.33 495.31 Z" />
</g>
</svg>
