<?xml version="1.0" standalone="no"?>
<!DOCTYPE svg PUBLIC "-//W3C//DTD SVG 20010904//EN"
 "http://www.w3.org/TR/2001/REC-SVG-20010904/DTD/svg10.dtd">
<svg version="1.0" xmlns="http://www.w3.org/2000/svg"
 width="960.000000pt" height="634.000000pt" viewBox="0 0 960.000000 634.000000"
 preserveAspectRatio="xMidYMid meet">
<metadata>
Created by potrace 1.12, written by Peter Selinger 2001-2015
</metadata>
<g transform="translate(0.000000,634.000000) scale(0.100000,-0.100000)"
fill="#000000" stroke="none">
<path d="M480 4120 l0 -2180 225 0 224 0 128 89 c70 49 150 105 176 123 26 18
64 45 84 61 l36 27 1218 0 1219 0 0 2030 0 2030 -1655 0 -1655 0 0 -2180z"/>
<path d="M3820 3960 l0 -2340 795 0 795 0 0 2340 0 2340 -795 0 -795 0 0
-2340z"/>
<path d="M5440 3700 l0 -2600 2060 0 2060 0 0 2600 0 2600 -2060 0 -2060 0 0
-2600z"/>
<path d="M40 1875 l0 -775 205 0 205 0 0 775 0 775 -205 0 -205 0 0 -775z"/>
<path d="M1260 2135 c-58 -41 -154 -108 -215 -150 l-110 -75 -228 0 -228 0 4
-472 c2 -260 6 -480 9 -488 3 -8 8 -28 12 -45 30 -121 119 -283 208 -376 83
-88 214 -173 329 -215 47 -16 54 -18 136 -34 65 -12 288 -6 326 9 15 6 41 13
58 16 45 8 156 62 232 112 166 110 284 281 345 501 20 70 21 100 22 683 l1
609 -398 -1 -398 0 -105 -74z"/>
<path d="M2190 1915 l0 -295 485 0 485 0 0 295 0 295 -485 0 -485 0 0 -295z"/>
<path d="M3820 1535 l0 -55 140 0 140 0 0 55 0 55 -140 0 -140 0 0 -55z"/>
<path d="M3820 1205 l0 -105 140 0 140 0 0 105 0 105 -140 0 -140 0 0 -105z"/>
<path d="M4130 1205 l0 -105 140 0 140 0 0 105 0 105 -140 0 -140 0 0 -105z"/>
<path d="M4440 1205 l0 -105 185 0 185 0 0 105 0 105 -185 0 -185 0 0 -105z"/>
<path d="M4840 1205 l0 -105 285 0 285 0 0 105 0 105 -285 0 -285 0 0 -105z"/>
</g>
</svg>
