<?xml version="1.0" standalone="no"?>
<!DOCTYPE svg PUBLIC "-//W3C//DTD SVG 20010904//EN"
 "http://www.w3.org/TR/2001/REC-SVG-20010904/DTD/svg10.dtd">
<svg version="1.0" xmlns="http://www.w3.org/2000/svg"
 width="900.000000pt" height="722.000000pt" viewBox="0 0 900.000000 722.000000"
 preserveAspectRatio="xMidYMid meet">
<metadata>
Created by potrace 1.12, written by Peter Selinger 2001-2015
</metadata>
<g transform="translate(0.000000,722.000000) scale(0.100000,-0.100000)"
fill="#000000" stroke="none">
<path d="M40 6908 l0 -273 166 -285 c92 -157 174 -298 184 -315 10 -16 156
-267 325 -557 l307 -528 3342 0 3342 0 28 53 c15 28 51 91 79 139 29 47 104
174 167 282 l115 196 175 0 175 0 55 97 c30 53 69 120 85 149 17 29 89 153
160 275 72 122 132 227 134 233 2 6 9 18 16 26 7 8 24 37 39 63 25 45 26 55
26 187 l0 140 -3445 0 -3445 0 0 195 0 195 -1015 0 -1015 0 0 -272z"/>
<path d="M1053 4901 c7 -14 26 -47 42 -72 17 -26 59 -96 95 -157 l65 -111 328
-1 327 0 0 180 0 180 -367 1 c-203 0 -398 2 -435 4 l-67 3 12 -27z"/>
<path d="M2470 4495 l0 -115 170 0 170 0 0 115 0 115 -170 0 -170 0 0 -115z"/>
<path d="M2840 4495 l0 -115 170 0 170 0 0 115 0 115 -170 0 -170 0 0 -115z"/>
<path d="M3220 4490 l0 -120 170 0 170 0 0 120 0 120 -170 0 -170 0 0 -120z"/>
<path d="M3590 4490 l0 -120 175 0 175 0 0 120 0 120 -175 0 -175 0 0 -120z"/>
<path d="M5660 4465 l0 -85 170 0 170 0 0 85 0 85 -170 0 -170 0 0 -85z"/>
<path d="M6030 4365 l0 -185 105 0 105 0 0 185 0 185 -105 0 -105 0 0 -185z"/>
<path d="M6260 4365 l0 -185 230 0 230 0 0 185 0 185 -230 0 -230 0 0 -185z"/>
<path d="M6740 4365 l0 -185 130 0 130 0 0 185 0 185 -130 0 -130 0 0 -185z"/>
<path d="M7020 4350 l0 -200 -140 0 -140 0 0 -190 0 -190 315 0 c291 0 316 1
322 18 4 9 22 40 40 69 l33 52 0 321 0 320 -215 0 -215 0 0 -200z"/>
<path d="M7471 4258 c1 -159 5 -291 9 -293 3 -2 23 24 42 58 20 34 93 160 162
279 69 120 127 223 128 230 2 10 -35 13 -170 14 l-173 1 2 -289z"/>
<path d="M1270 4519 c0 -5 23 -46 50 -90 28 -44 50 -82 50 -84 0 -2 24 -43 54
-92 l54 -88 216 -3 216 -2 0 185 0 185 -320 0 c-199 -1 -320 -5 -320 -11z"/>
<path d="M5660 4265 l0 -85 170 0 170 0 0 85 0 85 -170 0 -170 0 0 -85z"/>
<path d="M5660 3790 l0 -360 525 0 525 0 0 360 0 360 -525 0 -525 0 0 -360z"/>
<path d="M3930 3860 l0 -150 215 0 215 0 0 150 0 150 -215 0 -215 0 0 -150z"/>
<path d="M4510 3745 l0 -265 -60 0 -60 0 0 -115 0 -115 210 0 210 0 0 115 0
115 -60 0 -60 0 0 265 0 265 -90 0 -90 0 0 -265z"/>
<path d="M2390 3865 l0 -135 285 0 285 0 0 135 0 135 -285 0 -285 0 0 -135z"/>
<path d="M2990 3865 l0 -135 125 0 125 0 0 135 0 135 -125 0 -125 0 0 -135z"/>
<path d="M3270 3865 l0 -135 130 0 130 0 0 135 0 135 -130 0 -130 0 0 -135z"/>
<path d="M4840 3860 l0 -140 215 0 215 0 0 140 0 140 -215 0 -215 0 0 -140z"/>
<path d="M6740 3575 l0 -165 -540 0 -540 0 0 -190 0 -190 180 0 180 0 0 -110
0 -110 398 0 397 0 124 213 c68 116 146 250 174 297 27 47 57 99 67 115 10 17
49 85 89 152 39 67 74 128 77 136 4 12 -39 15 -300 16 l-306 1 0 -165z"/>
<path d="M1750 3693 c0 -9 44 -89 95 -173 30 -50 55 -92 55 -93 0 -2 51 -88
113 -192 l113 -190 702 -3 702 -2 0 331 0 330 -890 -2 c-489 -1 -890 -4 -890
-6z"/>
<path d="M3930 3505 l0 -185 215 0 215 0 0 185 0 185 -215 0 -215 0 0 -185z"/>
<path d="M4840 3605 l0 -85 215 0 215 0 0 85 0 85 -215 0 -215 0 0 -85z"/>
<path d="M3660 3500 l0 -130 70 0 70 0 0 130 0 130 -70 0 -70 0 0 -130z"/>
<path d="M4840 3355 l0 -135 -110 0 -110 0 0 -95 0 -95 325 0 325 0 0 230 0
230 -215 0 -215 0 0 -135z"/>
<path d="M5400 3255 l0 -125 65 0 65 0 0 125 0 125 -65 0 -65 0 0 -125z"/>
<path d="M3930 3165 l0 -135 330 0 330 0 0 95 0 95 -115 0 -115 0 0 40 0 40
-215 0 -215 0 0 -135z"/>
<path d="M3660 3015 l0 -125 70 0 70 0 0 125 0 125 -70 0 -70 0 0 -125z"/>
<path d="M2387 3014 c-2 -2 -53 -4 -115 -5 -62 0 -114 -5 -117 -9 -3 -4 53
-106 124 -226 l129 -219 561 -3 561 -2 0 230 0 230 -547 1 c-302 0 -558 2
-571 3 -12 2 -23 1 -25 0z"/>
<path d="M3930 2775 l0 -225 330 0 330 0 0 225 0 225 -330 0 -330 0 0 -225z"/>
<path d="M4610 2775 l0 -225 330 0 330 0 0 115 0 115 -160 0 -160 0 0 110 0
110 -170 0 -170 0 0 -225z"/>
<path d="M4970 2905 l0 -95 150 0 150 0 0 95 0 95 -150 0 -150 0 0 -95z"/>
<path d="M5660 2905 l0 -95 165 0 165 0 0 95 0 95 -165 0 -165 0 0 -95z"/>
<path d="M5390 2770 l0 -130 75 0 75 0 0 130 0 130 -75 0 -75 0 0 -130z"/>
<path d="M5660 2595 l0 -185 200 0 200 0 0 185 0 185 -200 0 -200 0 0 -185z"/>
<path d="M3660 2525 l0 -125 70 0 70 0 0 125 0 125 -70 0 -70 0 0 -125z"/>
<path d="M2420 2526 c0 -2 25 -46 56 -97 31 -52 66 -110 77 -129 10 -19 42
-74 70 -123 l51 -87 444 0 c415 1 443 2 436 18 -5 9 -10 108 -12 220 l-3 202
-560 0 c-307 0 -559 -2 -559 -4z"/>
<path d="M3931 2401 c2 -175 23 -220 138 -288 37 -23 58 -27 147 -31 l104 -5
0 227 0 226 -195 0 -196 0 2 -129z"/>
<path d="M4350 2305 l0 -225 260 0 260 0 0 225 0 225 -260 0 -260 0 0 -225z"/>
<path d="M4890 2305 l0 -225 96 0 c84 0 102 3 143 26 55 30 108 96 127 160 8
28 14 91 14 156 l0 108 -190 0 -190 0 0 -225z"/>
<path d="M6390 2295 l0 -65 -365 0 -365 0 0 -27 c0 -31 -30 -143 -42 -158 -5
-5 -26 -37 -48 -70 -22 -33 -54 -77 -72 -98 l-32 -38 112 -110 112 -109 219 0
218 0 74 126 c41 69 81 138 89 152 45 78 92 159 100 172 34 53 130 223 130
230 0 4 7 13 15 20 8 7 15 19 15 26 0 11 -19 14 -80 14 l-80 0 0 -65z"/>
<path d="M5307 2099 l-79 -90 53 -48 53 -48 25 31 c14 17 28 33 31 36 27 25
101 121 98 128 -5 13 -85 82 -94 82 -5 -1 -44 -41 -87 -91z"/>
<path d="M2709 2051 c-13 -5 8 -47 110 -223 l126 -217 270 -1 270 0 66 63 c36
34 94 88 128 120 l62 58 -47 39 c-51 42 -101 109 -111 148 l-6 23 -426 -2
c-234 -1 -434 -5 -442 -8z"/>
<path d="M4230 1900 l0 -70 130 0 130 0 0 70 0 70 -130 0 -130 0 0 -70z"/>
<path d="M4720 1900 l0 -70 125 0 125 0 0 70 0 70 -125 0 -125 0 0 -70z"/>
<path d="M3633 1710 l-122 -119 -271 -3 c-148 -1 -270 -4 -270 -6 0 -6 131
-243 192 -347 10 -16 25 -46 35 -66 9 -20 29 -41 45 -48 16 -7 70 -35 121 -63
188 -102 315 -171 577 -310 41 -22 98 -53 126 -69 28 -16 56 -29 61 -29 5 0 8
43 7 98 -1 53 -3 292 -3 530 l-1 432 -48 0 c-26 0 -75 7 -107 15 -63 16 -179
71 -197 92 -6 7 -13 13 -17 13 -3 0 -61 -54 -128 -120z"/>
<path d="M5386 1789 c-88 -58 -153 -79 -246 -79 l-80 0 0 -340 0 -340 370 0
c248 0 370 3 370 10 0 6 70 130 155 277 85 146 155 268 155 270 0 2 -66 4
-147 3 -82 -1 -178 -1 -214 -1 l-67 1 -118 119 -119 119 -59 -39z"/>
<path d="M4162 1169 l3 -540 75 -40 c41 -22 127 -68 190 -101 63 -33 119 -65
124 -69 32 -29 33 -11 35 641 l2 650 -215 0 -216 0 2 -541z"/>
<path d="M4610 1046 l0 -664 38 -20 c20 -10 54 -29 74 -40 21 -12 68 -38 105
-58 37 -21 102 -56 143 -79 145 -81 248 -135 258 -135 6 0 12 6 14 13 2 7 122
219 268 472 146 252 264 461 262 464 -2 6 -95 7 -534 10 l-198 1 0 350 0 350
-215 0 -215 0 0 -664z"/>
</g>
</svg>
