<?xml version="1.0" encoding="UTF-8" ?>
<!DOCTYPE svg PUBLIC "-//W3C//DTD SVG 1.1//EN" "http://www.w3.org/Graphics/SVG/1.1/DTD/svg11.dtd">
<svg width="900pt" height="579pt" viewBox="0 0 900 579" version="1.1" xmlns="http://www.w3.org/2000/svg">
<g id="#ffffffff">
<path fill="#ffffff" opacity="1.00" d=" M 0.00 0.00 L 900.00 0.00 L 900.00 579.00 L 0.00 579.00 L 0.00 0.00 M 4.00 4.00 C 4.00 67.67 4.00 131.33 4.00 195.00 C 13.33 195.00 22.67 195.00 32.00 195.00 C 32.00 196.66 32.00 198.33 32.00 200.00 C 76.33 200.00 120.67 200.00 165.00 200.00 C 165.00 139.00 165.00 78.00 165.00 17.00 C 213.33 17.00 261.67 17.00 310.00 17.00 C 310.00 12.67 310.00 8.33 310.00 4.00 C 208.00 4.00 106.00 4.00 4.00 4.00 M 168.00 20.00 C 168.00 106.67 168.00 193.33 168.00 280.00 C 202.33 280.00 236.67 280.00 271.00 280.00 C 271.00 274.67 271.00 269.33 271.00 264.00 C 284.00 264.00 297.00 264.00 310.00 264.00 C 310.00 182.67 310.00 101.33 310.00 20.00 C 262.67 20.00 215.33 20.00 168.00 20.00 M 32.00 216.00 C 32.00 224.00 32.00 232.00 32.00 240.00 C 48.00 240.00 64.00 240.00 80.00 240.00 C 80.00 232.00 80.00 224.00 80.00 216.00 C 64.00 216.00 48.00 216.00 32.00 216.00 M 82.00 216.00 C 82.00 224.00 82.00 232.00 82.00 240.00 C 89.67 240.00 97.33 240.00 105.00 240.00 C 105.00 232.00 105.00 224.00 105.00 216.00 C 97.33 216.00 89.67 216.00 82.00 216.00 M 657.00 219.00 C 657.00 223.33 657.00 227.67 657.00 232.00 C 654.00 231.99 651.00 232.00 648.00 232.00 C 648.00 302.33 648.00 372.67 648.00 443.00 C 688.33 443.00 728.67 443.00 769.00 443.00 C 769.00 420.33 769.00 397.67 769.00 375.00 C 775.00 375.00 781.00 375.00 787.00 375.00 C 787.00 339.00 787.00 303.00 787.00 267.00 C 781.33 267.00 775.66 267.00 770.00 267.00 C 770.00 254.00 770.00 241.00 770.00 228.00 C 735.67 228.00 701.33 228.00 667.00 228.00 C 667.00 225.00 666.99 222.00 667.00 219.00 C 663.66 219.00 660.33 219.00 657.00 219.00 M 4.00 243.00 C 4.00 256.00 4.00 269.00 4.00 282.00 C 37.67 282.00 71.33 282.00 105.00 282.00 C 105.00 269.00 105.00 256.00 105.00 243.00 C 71.33 243.00 37.67 243.00 4.00 243.00 M 275.00 267.00 C 275.00 272.33 275.00 277.67 275.00 283.00 C 239.33 283.00 203.67 283.00 168.00 283.00 C 168.00 296.33 168.00 309.67 168.00 323.00 C 198.33 323.00 228.67 323.00 259.00 323.00 C 259.00 337.00 259.00 351.00 259.00 365.00 C 276.00 365.00 293.00 365.00 310.00 365.00 C 310.00 332.33 310.00 299.67 310.00 267.00 C 298.33 267.00 286.67 267.00 275.00 267.00 M 461.00 267.00 C 461.00 273.00 461.00 279.00 461.00 285.00 C 452.67 285.00 444.33 285.00 436.00 285.00 C 436.00 292.00 436.00 299.00 436.00 306.00 C 464.00 306.00 492.00 306.00 520.00 306.00 C 520.00 354.33 520.00 402.67 520.00 451.00 C 532.67 451.00 545.33 451.00 558.00 451.00 C 557.99 448.33 558.00 445.66 558.00 443.00 C 572.33 443.00 586.67 443.00 601.00 443.00 C 601.00 419.33 601.00 395.67 601.00 372.00 C 616.00 372.00 631.00 372.00 646.00 372.00 C 646.00 337.00 646.00 302.00 646.00 267.00 C 584.33 267.00 522.67 267.00 461.00 267.00 M 4.00 285.00 C 4.00 311.67 4.00 338.33 4.00 365.00 C 13.33 365.00 22.67 365.00 32.00 365.00 C 32.00 351.00 32.00 337.00 32.00 323.00 C 56.33 323.00 80.67 323.00 105.00 323.00 C 105.00 310.33 105.00 297.67 105.00 285.00 C 71.33 285.00 37.67 285.00 4.00 285.00 M 818.00 307.00 C 818.00 309.66 817.99 312.33 818.00 315.00 C 808.66 315.00 799.33 315.00 790.00 315.00 C 790.00 335.00 790.00 355.00 790.00 375.00 C 798.00 375.00 806.00 375.00 814.00 375.00 C 814.00 401.33 814.00 427.67 814.00 454.00 C 841.33 454.00 868.67 454.00 896.00 454.00 C 896.00 405.00 896.00 356.00 896.00 307.00 C 870.00 307.00 844.00 307.00 818.00 307.00 M 436.00 309.00 C 436.00 356.33 436.00 403.67 436.00 451.00 C 449.00 451.00 462.00 451.00 475.00 451.00 C 475.00 403.67 475.00 356.33 475.00 309.00 C 462.00 309.00 449.00 309.00 436.00 309.00 M 478.00 309.00 C 478.00 356.33 478.00 403.67 478.00 451.00 C 491.33 451.00 504.66 451.00 518.00 451.00 C 518.00 403.67 518.00 356.33 518.00 309.00 C 504.67 309.00 491.33 309.00 478.00 309.00 M 35.00 326.00 C 35.00 339.00 35.00 352.00 35.00 365.00 C 58.33 365.00 81.67 365.00 105.00 365.00 C 105.00 352.00 105.00 339.00 105.00 326.00 C 81.67 326.00 58.33 326.00 35.00 326.00 M 168.00 326.00 C 168.00 353.00 168.00 380.00 168.00 407.00 C 215.33 407.00 262.67 407.00 310.00 407.00 C 310.00 394.00 310.00 381.00 310.00 368.00 C 292.00 368.00 274.00 368.00 256.00 368.00 C 256.00 354.00 256.00 340.00 256.00 326.00 C 226.67 326.00 197.33 326.00 168.00 326.00 M 4.00 368.00 C 4.00 408.67 4.00 449.33 4.00 490.00 C 37.67 490.00 71.33 490.00 105.00 490.00 C 105.00 449.33 105.00 408.67 105.00 368.00 C 71.33 368.00 37.67 368.00 4.00 368.00 M 313.00 368.00 C 313.00 395.67 313.00 423.33 313.00 451.00 C 326.00 451.00 339.00 451.00 352.00 451.00 C 352.00 423.33 352.00 395.67 352.00 368.00 C 339.00 368.00 326.00 368.00 313.00 368.00 M 354.00 368.00 C 354.00 395.67 354.00 423.33 354.00 451.00 C 367.00 451.00 380.00 451.00 393.00 451.00 C 393.00 423.33 393.00 395.67 393.00 368.00 C 380.00 368.00 367.00 368.00 354.00 368.00 M 395.00 368.00 C 395.00 395.67 395.00 423.33 395.00 451.00 C 408.00 451.00 421.00 451.00 434.00 451.00 C 434.00 423.33 434.00 395.67 434.00 368.00 C 421.00 368.00 408.00 368.00 395.00 368.00 M 603.00 375.00 C 603.00 397.67 603.00 420.33 603.00 443.00 C 609.67 443.00 616.33 443.00 623.00 443.00 C 623.00 420.33 623.00 397.67 623.00 375.00 C 616.33 375.00 609.67 375.00 603.00 375.00 M 626.00 375.00 C 626.00 397.67 626.00 420.33 626.00 443.00 C 632.67 443.00 639.33 443.00 646.00 443.00 C 646.00 420.33 646.00 397.67 646.00 375.00 C 639.33 375.00 632.66 375.00 626.00 375.00 M 771.00 377.00 C 771.00 402.67 771.00 428.33 771.00 454.00 C 784.67 454.00 798.33 454.00 812.00 454.00 C 812.00 428.33 812.00 402.67 812.00 377.00 C 798.33 377.00 784.67 377.00 771.00 377.00 M 168.00 410.00 C 168.00 423.67 168.00 437.33 168.00 451.00 C 180.67 451.00 193.33 451.00 206.00 451.00 C 206.00 437.33 206.00 423.67 206.00 410.00 C 193.33 410.00 180.67 410.00 168.00 410.00 M 209.00 410.00 C 209.00 423.67 209.00 437.33 209.00 451.00 C 225.67 451.00 242.33 451.00 259.00 451.00 C 259.00 437.33 259.00 423.67 259.00 410.00 C 242.33 410.00 225.67 410.00 209.00 410.00 M 262.00 410.00 C 262.00 423.67 262.00 437.33 262.00 451.00 C 278.00 451.00 294.00 451.00 310.00 451.00 C 310.00 437.33 310.00 423.67 310.00 410.00 C 294.00 410.00 278.00 410.00 262.00 410.00 M 856.00 456.00 C 856.00 466.00 856.00 476.00 856.00 486.00 C 869.33 486.00 882.67 486.00 896.00 486.00 C 896.00 476.00 896.00 466.00 896.00 456.00 C 882.66 456.00 869.33 456.00 856.00 456.00 M 690.00 489.00 C 690.00 496.33 690.00 503.67 690.00 511.00 C 702.33 511.00 714.67 511.00 727.00 511.00 C 727.00 503.67 727.00 496.33 727.00 489.00 C 714.67 489.00 702.33 489.00 690.00 489.00 M 730.00 489.00 C 730.00 496.33 730.00 503.66 730.00 511.00 C 743.33 511.00 756.67 511.00 770.00 511.00 C 770.00 503.67 770.00 496.33 770.00 489.00 C 756.67 489.00 743.33 489.00 730.00 489.00 M 773.00 489.00 C 773.00 517.00 773.00 545.00 773.00 573.00 C 814.00 573.00 855.00 573.00 896.00 573.00 C 896.00 545.00 896.00 517.00 896.00 489.00 C 855.00 489.00 814.00 489.00 773.00 489.00 M 169.00 491.00 C 169.00 505.00 169.00 519.00 169.00 533.00 C 181.33 533.00 193.67 533.00 206.00 533.00 C 206.00 519.00 206.00 505.00 206.00 491.00 C 193.67 491.00 181.33 491.00 169.00 491.00 M 209.00 491.00 C 209.00 518.33 209.00 545.67 209.00 573.00 C 224.67 573.00 240.33 573.00 256.00 573.00 C 256.00 545.67 256.00 518.33 256.00 491.00 C 240.33 491.00 224.67 491.00 209.00 491.00 M 259.00 491.00 C 259.00 518.33 259.00 545.67 259.00 573.00 C 275.67 573.00 292.33 573.00 309.00 573.00 C 309.00 545.67 309.00 518.33 309.00 491.00 C 292.33 491.00 275.67 491.00 259.00 491.00 M 311.00 491.00 C 311.00 518.33 311.00 545.67 311.00 573.00 C 325.33 573.00 339.67 573.00 354.00 573.00 C 354.00 545.67 354.00 518.33 354.00 491.00 C 339.67 491.00 325.33 491.00 311.00 491.00 M 357.00 491.00 C 357.00 518.33 357.00 545.67 357.00 573.00 C 382.67 573.00 408.33 573.00 434.00 573.00 C 434.00 545.67 434.00 518.33 434.00 491.00 C 408.33 491.00 382.67 491.00 357.00 491.00 M 437.00 491.00 C 437.00 518.33 437.00 545.67 437.00 573.00 C 449.67 573.00 462.33 573.00 475.00 573.00 C 475.00 545.67 475.00 518.33 475.00 491.00 C 462.33 491.00 449.67 491.00 437.00 491.00 M 478.00 491.00 C 478.00 518.33 478.00 545.67 478.00 573.00 C 491.00 573.00 504.00 573.00 517.00 573.00 C 517.00 545.67 517.00 518.33 517.00 491.00 C 504.00 491.00 491.00 491.00 478.00 491.00 M 520.00 491.00 C 520.00 518.33 520.00 545.67 520.00 573.00 C 547.33 573.00 574.67 573.00 602.00 573.00 C 602.00 549.00 602.00 525.00 602.00 501.00 C 588.33 501.00 574.67 501.00 561.00 501.00 C 561.00 497.66 560.99 494.33 561.00 491.00 C 547.33 491.00 533.67 491.00 520.00 491.00 M 4.00 493.00 C 4.00 506.33 4.00 519.67 4.00 533.00 C 37.67 533.00 71.33 533.00 105.00 533.00 C 105.00 519.67 105.00 506.33 105.00 493.00 C 71.33 493.00 37.67 493.00 4.00 493.00 M 605.00 501.00 C 605.00 512.67 605.00 524.33 605.00 536.00 C 618.67 536.00 632.33 536.00 646.00 536.00 C 646.00 524.33 646.00 512.67 646.00 501.00 C 632.33 501.00 618.67 501.00 605.00 501.00 M 690.00 514.00 C 690.00 525.67 690.00 537.33 690.00 549.00 C 703.33 549.00 716.67 549.00 730.00 549.00 C 730.00 557.00 730.00 565.00 730.00 573.00 C 743.33 573.00 756.67 573.00 770.00 573.00 C 770.00 553.33 770.00 533.67 770.00 514.00 C 743.33 514.00 716.67 514.00 690.00 514.00 M 4.00 536.00 C 4.00 549.00 4.00 562.00 4.00 575.00 C 37.67 575.00 71.33 575.00 105.00 575.00 C 105.00 562.00 105.00 549.00 105.00 536.00 C 71.33 536.00 37.67 536.00 4.00 536.00 M 169.00 536.00 C 169.00 548.33 169.00 560.67 169.00 573.00 C 181.33 573.00 193.67 573.00 206.00 573.00 C 206.00 560.67 206.00 548.33 206.00 536.00 C 193.67 536.00 181.33 536.00 169.00 536.00 Z" />
</g>
<g id="#000000ff">
<path fill="#000000" opacity="1.00" d=" M 4.00 4.00 C 106.00 4.00 208.00 4.00 310.00 4.00 C 310.00 8.33 310.00 12.67 310.00 17.00 C 261.67 17.00 213.33 17.00 165.00 17.00 C 165.00 78.00 165.00 139.00 165.00 200.00 C 120.67 200.00 76.33 200.00 32.00 200.00 C 32.00 198.33 32.00 196.66 32.00 195.00 C 22.67 195.00 13.33 195.00 4.00 195.00 C 4.00 131.33 4.00 67.67 4.00 4.00 Z" />
<path fill="#000000" opacity="1.00" d=" M 168.00 20.00 C 215.33 20.00 262.67 20.00 310.00 20.00 C 310.00 101.33 310.00 182.67 310.00 264.00 C 297.00 264.00 284.00 264.00 271.00 264.00 C 271.00 269.33 271.00 274.67 271.00 280.00 C 236.67 280.00 202.33 280.00 168.00 280.00 C 168.00 193.33 168.00 106.67 168.00 20.00 Z" />
<path fill="#000000" opacity="1.00" d=" M 32.00 216.00 C 48.00 216.00 64.00 216.00 80.00 216.00 C 80.00 224.00 80.00 232.00 80.00 240.00 C 64.00 240.00 48.00 240.00 32.00 240.00 C 32.00 232.00 32.00 224.00 32.00 216.00 Z" />
<path fill="#000000" opacity="1.00" d=" M 82.00 216.00 C 89.67 216.00 97.33 216.00 105.00 216.00 C 105.00 224.00 105.00 232.00 105.00 240.00 C 97.33 240.00 89.67 240.00 82.00 240.00 C 82.00 232.00 82.00 224.00 82.00 216.00 Z" />
<path fill="#000000" opacity="1.00" d=" M 657.00 219.00 C 660.33 219.00 663.66 219.00 667.00 219.00 C 666.99 222.00 667.00 225.00 667.00 228.00 C 701.33 228.00 735.67 228.00 770.00 228.00 C 770.00 241.00 770.00 254.00 770.00 267.00 C 775.66 267.00 781.33 267.00 787.00 267.00 C 787.00 303.00 787.00 339.00 787.00 375.00 C 781.00 375.00 775.00 375.00 769.00 375.00 C 769.00 397.67 769.00 420.33 769.00 443.00 C 728.67 443.00 688.33 443.00 648.00 443.00 C 648.00 372.67 648.00 302.33 648.00 232.00 C 651.00 232.00 654.00 231.99 657.00 232.00 C 657.00 227.67 657.00 223.33 657.00 219.00 Z" />
<path fill="#000000" opacity="1.00" d=" M 4.00 243.00 C 37.67 243.00 71.33 243.00 105.00 243.00 C 105.00 256.00 105.00 269.00 105.00 282.00 C 71.33 282.00 37.67 282.00 4.00 282.00 C 4.00 269.00 4.00 256.00 4.00 243.00 Z" />
<path fill="#000000" opacity="1.00" d=" M 275.00 267.00 C 286.67 267.00 298.33 267.00 310.00 267.00 C 310.00 299.67 310.00 332.33 310.00 365.00 C 293.00 365.00 276.00 365.00 259.00 365.00 C 259.00 351.00 259.00 337.00 259.00 323.00 C 228.67 323.00 198.33 323.00 168.00 323.00 C 168.00 309.67 168.00 296.33 168.00 283.00 C 203.67 283.00 239.33 283.00 275.00 283.00 C 275.00 277.67 275.00 272.33 275.00 267.00 Z" />
<path fill="#000000" opacity="1.00" d=" M 461.00 267.00 C 522.67 267.00 584.33 267.00 646.00 267.00 C 646.00 302.00 646.00 337.00 646.00 372.00 C 631.00 372.00 616.00 372.00 601.00 372.00 C 601.00 395.67 601.00 419.33 601.00 443.00 C 586.67 443.00 572.33 443.00 558.00 443.00 C 558.00 445.66 557.99 448.33 558.00 451.00 C 545.33 451.00 532.67 451.00 520.00 451.00 C 520.00 402.67 520.00 354.33 520.00 306.00 C 492.00 306.00 464.00 306.00 436.00 306.00 C 436.00 299.00 436.00 292.00 436.00 285.00 C 444.33 285.00 452.67 285.00 461.00 285.00 C 461.00 279.00 461.00 273.00 461.00 267.00 Z" />
<path fill="#000000" opacity="1.00" d=" M 4.00 285.00 C 37.67 285.00 71.33 285.00 105.00 285.00 C 105.00 297.67 105.00 310.33 105.00 323.00 C 80.67 323.00 56.33 323.00 32.00 323.00 C 32.00 337.00 32.00 351.00 32.00 365.00 C 22.67 365.00 13.33 365.00 4.00 365.00 C 4.00 338.33 4.00 311.67 4.00 285.00 Z" />
<path fill="#000000" opacity="1.00" d=" M 818.00 307.00 C 844.00 307.00 870.00 307.00 896.00 307.00 C 896.00 356.00 896.00 405.00 896.00 454.00 C 868.67 454.00 841.33 454.00 814.00 454.00 C 814.00 427.67 814.00 401.33 814.00 375.00 C 806.00 375.00 798.00 375.00 790.00 375.00 C 790.00 355.00 790.00 335.00 790.00 315.00 C 799.33 315.00 808.66 315.00 818.00 315.00 C 817.99 312.33 818.00 309.66 818.00 307.00 Z" />
<path fill="#000000" opacity="1.00" d=" M 436.00 309.00 C 449.00 309.00 462.00 309.00 475.00 309.00 C 475.00 356.33 475.00 403.67 475.00 451.00 C 462.00 451.00 449.00 451.00 436.00 451.00 C 436.00 403.67 436.00 356.33 436.00 309.00 Z" />
<path fill="#000000" opacity="1.00" d=" M 478.00 309.00 C 491.33 309.00 504.67 309.00 518.00 309.00 C 518.00 356.33 518.00 403.67 518.00 451.00 C 504.66 451.00 491.33 451.00 478.00 451.00 C 478.00 403.67 478.00 356.33 478.00 309.00 Z" />
<path fill="#000000" opacity="1.00" d=" M 35.00 326.00 C 58.33 326.00 81.67 326.00 105.00 326.00 C 105.00 339.00 105.00 352.00 105.00 365.00 C 81.67 365.00 58.33 365.00 35.00 365.00 C 35.00 352.00 35.00 339.00 35.00 326.00 Z" />
<path fill="#000000" opacity="1.00" d=" M 168.00 326.00 C 197.33 326.00 226.67 326.00 256.00 326.00 C 256.00 340.00 256.00 354.00 256.00 368.00 C 274.00 368.00 292.00 368.00 310.00 368.00 C 310.00 381.00 310.00 394.00 310.00 407.00 C 262.67 407.00 215.33 407.00 168.00 407.00 C 168.00 380.00 168.00 353.00 168.00 326.00 Z" />
<path fill="#000000" opacity="1.00" d=" M 4.00 368.00 C 37.67 368.00 71.33 368.00 105.00 368.00 C 105.00 408.67 105.00 449.33 105.00 490.00 C 71.33 490.00 37.67 490.00 4.00 490.00 C 4.00 449.33 4.00 408.67 4.00 368.00 Z" />
<path fill="#000000" opacity="1.00" d=" M 313.00 368.00 C 326.00 368.00 339.00 368.00 352.00 368.00 C 352.00 395.67 352.00 423.33 352.00 451.00 C 339.00 451.00 326.00 451.00 313.00 451.00 C 313.00 423.33 313.00 395.67 313.00 368.00 Z" />
<path fill="#000000" opacity="1.00" d=" M 354.00 368.00 C 367.00 368.00 380.00 368.00 393.00 368.00 C 393.00 395.67 393.00 423.33 393.00 451.00 C 380.00 451.00 367.00 451.00 354.00 451.00 C 354.00 423.33 354.00 395.67 354.00 368.00 Z" />
<path fill="#000000" opacity="1.00" d=" M 395.00 368.00 C 408.00 368.00 421.00 368.00 434.00 368.00 C 434.00 395.67 434.00 423.33 434.00 451.00 C 421.00 451.00 408.00 451.00 395.00 451.00 C 395.00 423.33 395.00 395.67 395.00 368.00 Z" />
<path fill="#000000" opacity="1.00" d=" M 603.00 375.00 C 609.67 375.00 616.33 375.00 623.00 375.00 C 623.00 397.67 623.00 420.33 623.00 443.00 C 616.33 443.00 609.67 443.00 603.00 443.00 C 603.00 420.33 603.00 397.67 603.00 375.00 Z" />
<path fill="#000000" opacity="1.00" d=" M 626.00 375.00 C 632.66 375.00 639.33 375.00 646.00 375.00 C 646.00 397.67 646.00 420.33 646.00 443.00 C 639.33 443.00 632.67 443.00 626.00 443.00 C 626.00 420.33 626.00 397.67 626.00 375.00 Z" />
<path fill="#000000" opacity="1.00" d=" M 771.00 377.00 C 784.67 377.00 798.33 377.00 812.00 377.00 C 812.00 402.67 812.00 428.33 812.00 454.00 C 798.33 454.00 784.67 454.00 771.00 454.00 C 771.00 428.33 771.00 402.67 771.00 377.00 Z" />
<path fill="#000000" opacity="1.00" d=" M 168.00 410.00 C 180.67 410.00 193.33 410.00 206.00 410.00 C 206.00 423.67 206.00 437.33 206.00 451.00 C 193.33 451.00 180.67 451.00 168.00 451.00 C 168.00 437.33 168.00 423.67 168.00 410.00 Z" />
<path fill="#000000" opacity="1.00" d=" M 209.00 410.00 C 225.67 410.00 242.33 410.00 259.00 410.00 C 259.00 423.67 259.00 437.33 259.00 451.00 C 242.33 451.00 225.67 451.00 209.00 451.00 C 209.00 437.33 209.00 423.67 209.00 410.00 Z" />
<path fill="#000000" opacity="1.00" d=" M 262.00 410.00 C 278.00 410.00 294.00 410.00 310.00 410.00 C 310.00 423.67 310.00 437.33 310.00 451.00 C 294.00 451.00 278.00 451.00 262.00 451.00 C 262.00 437.33 262.00 423.67 262.00 410.00 Z" />
<path fill="#000000" opacity="1.00" d=" M 856.00 456.00 C 869.33 456.00 882.66 456.00 896.00 456.00 C 896.00 466.00 896.00 476.00 896.00 486.00 C 882.67 486.00 869.33 486.00 856.00 486.00 C 856.00 476.00 856.00 466.00 856.00 456.00 Z" />
<path fill="#000000" opacity="1.00" d=" M 690.00 489.00 C 702.33 489.00 714.67 489.00 727.00 489.00 C 727.00 496.33 727.00 503.67 727.00 511.00 C 714.67 511.00 702.33 511.00 690.00 511.00 C 690.00 503.67 690.00 496.33 690.00 489.00 Z" />
<path fill="#000000" opacity="1.00" d=" M 730.00 489.00 C 743.33 489.00 756.67 489.00 770.00 489.00 C 770.00 496.33 770.00 503.67 770.00 511.00 C 756.67 511.00 743.33 511.00 730.00 511.00 C 730.00 503.66 730.00 496.33 730.00 489.00 Z" />
<path fill="#000000" opacity="1.00" d=" M 773.00 489.00 C 814.00 489.00 855.00 489.00 896.00 489.00 C 896.00 517.00 896.00 545.00 896.00 573.00 C 855.00 573.00 814.00 573.00 773.00 573.00 C 773.00 545.00 773.00 517.00 773.00 489.00 Z" />
<path fill="#000000" opacity="1.00" d=" M 169.00 491.00 C 181.33 491.00 193.67 491.00 206.00 491.00 C 206.00 505.00 206.00 519.00 206.00 533.00 C 193.67 533.00 181.33 533.00 169.00 533.00 C 169.00 519.00 169.00 505.00 169.00 491.00 Z" />
<path fill="#000000" opacity="1.00" d=" M 209.00 491.00 C 224.67 491.00 240.33 491.00 256.00 491.00 C 256.00 518.33 256.00 545.67 256.00 573.00 C 240.33 573.00 224.67 573.00 209.00 573.00 C 209.00 545.67 209.00 518.33 209.00 491.00 Z" />
<path fill="#000000" opacity="1.00" d=" M 259.00 491.00 C 275.67 491.00 292.33 491.00 309.00 491.00 C 309.00 518.33 309.00 545.67 309.00 573.00 C 292.33 573.00 275.67 573.00 259.00 573.00 C 259.00 545.67 259.00 518.33 259.00 491.00 Z" />
<path fill="#000000" opacity="1.00" d=" M 311.00 491.00 C 325.33 491.00 339.67 491.00 354.00 491.00 C 354.00 518.33 354.00 545.67 354.00 573.00 C 339.67 573.00 325.33 573.00 311.00 573.00 C 311.00 545.67 311.00 518.33 311.00 491.00 Z" />
<path fill="#000000" opacity="1.00" d=" M 357.00 491.00 C 382.67 491.00 408.33 491.00 434.00 491.00 C 434.00 518.33 434.00 545.67 434.00 573.00 C 408.33 573.00 382.67 573.00 357.00 573.00 C 357.00 545.67 357.00 518.33 357.00 491.00 Z" />
<path fill="#000000" opacity="1.00" d=" M 437.00 491.00 C 449.67 491.00 462.33 491.00 475.00 491.00 C 475.00 518.33 475.00 545.67 475.00 573.00 C 462.33 573.00 449.67 573.00 437.00 573.00 C 437.00 545.67 437.00 518.33 437.00 491.00 Z" />
<path fill="#000000" opacity="1.00" d=" M 478.00 491.00 C 491.00 491.00 504.00 491.00 517.00 491.00 C 517.00 518.33 517.00 545.67 517.00 573.00 C 504.00 573.00 491.00 573.00 478.00 573.00 C 478.00 545.67 478.00 518.33 478.00 491.00 Z" />
<path fill="#000000" opacity="1.00" d=" M 520.00 491.00 C 533.67 491.00 547.33 491.00 561.00 491.00 C 560.99 494.33 561.00 497.66 561.00 501.00 C 574.67 501.00 588.33 501.00 602.00 501.00 C 602.00 525.00 602.00 549.00 602.00 573.00 C 574.67 573.00 547.33 573.00 520.00 573.00 C 520.00 545.67 520.00 518.33 520.00 491.00 Z" />
<path fill="#000000" opacity="1.00" d=" M 4.00 493.00 C 37.67 493.00 71.33 493.00 105.00 493.00 C 105.00 506.33 105.00 519.67 105.00 533.00 C 71.33 533.00 37.67 533.00 4.00 533.00 C 4.00 519.67 4.00 506.33 4.00 493.00 Z" />
<path fill="#000000" opacity="1.00" d=" M 605.00 501.00 C 618.67 501.00 632.33 501.00 646.00 501.00 C 646.00 512.67 646.00 524.33 646.00 536.00 C 632.33 536.00 618.67 536.00 605.00 536.00 C 605.00 524.33 605.00 512.67 605.00 501.00 Z" />
<path fill="#000000" opacity="1.00" d=" M 690.00 514.00 C 716.67 514.00 743.33 514.00 770.00 514.00 C 770.00 533.67 770.00 553.33 770.00 573.00 C 756.67 573.00 743.33 573.00 730.00 573.00 C 730.00 565.00 730.00 557.00 730.00 549.00 C 716.67 549.00 703.33 549.00 690.00 549.00 C 690.00 537.33 690.00 525.67 690.00 514.00 Z" />
<path fill="#000000" opacity="1.00" d=" M 4.00 536.00 C 37.67 536.00 71.33 536.00 105.00 536.00 C 105.00 549.00 105.00 562.00 105.00 575.00 C 71.33 575.00 37.67 575.00 4.00 575.00 C 4.00 562.00 4.00 549.00 4.00 536.00 Z" />
<path fill="#000000" opacity="1.00" d=" M 169.00 536.00 C 181.33 536.00 193.67 536.00 206.00 536.00 C 206.00 548.33 206.00 560.67 206.00 573.00 C 193.67 573.00 181.33 573.00 169.00 573.00 C 169.00 560.67 169.00 548.33 169.00 536.00 Z" />
</g>
</svg>
