<?xml version="1.0" standalone="no"?>
<!DOCTYPE svg PUBLIC "-//W3C//DTD SVG 20010904//EN"
 "http://www.w3.org/TR/2001/REC-SVG-20010904/DTD/svg10.dtd">
<svg version="1.0" xmlns="http://www.w3.org/2000/svg"
 width="900.000000pt" height="691.000000pt" viewBox="0 0 900.000000 691.000000"
 preserveAspectRatio="xMidYMid meet">
<metadata>
Created by potrace 1.12, written by Peter Selinger 2001-2015
</metadata>
<g transform="translate(0.000000,691.000000) scale(0.100000,-0.100000)"
fill="#000000" stroke="none">
<path d="M3880 4920 l0 -1950 180 0 180 0 0 -1370 0 -1370 540 0 540 0 0 -95
0 -95 515 0 515 0 0 95 0 95 790 0 790 0 0 -95 0 -95 515 0 515 0 0 515 0 515
-115 0 -115 0 0 2900 0 2900 -2425 0 -2425 0 0 -1950z"/>
<path d="M40 4270 l0 -500 115 0 115 0 0 -525 0 -525 225 0 225 0 0 -415 0
-415 380 0 380 0 0 1240 0 1240 -235 0 -235 0 0 200 0 200 -485 0 -485 0 0
-500z"/>
<path d="M1040 4585 l0 -185 235 0 235 0 0 -1255 0 -1255 405 0 405 0 0 735 0
735 285 0 285 0 0 705 0 705 -925 0 -925 0 0 -185z"/>
<path d="M2920 3870 l0 -900 465 0 465 0 0 900 0 900 -465 0 -465 0 0 -900z"/>
<path d="M2350 3135 l0 -165 270 0 270 0 0 165 0 165 -270 0 -270 0 0 -165z"/>
<path d="M2750 2280 l0 -390 65 0 65 0 0 390 0 390 -65 0 -65 0 0 -390z"/>
<path d="M2910 2270 l0 -400 -80 0 -80 0 0 -410 0 -410 410 0 410 0 0 810 0
810 -330 0 -330 0 0 -400z"/>
<path d="M3600 2280 l0 -390 165 0 165 0 0 390 0 390 -165 0 -165 0 0 -390z"/>
<path d="M2546 1570 l-156 -240 0 -140 0 -140 165 0 165 0 0 380 c0 212 -4
380 -9 380 -5 0 -79 -108 -165 -240z"/>
<path d="M1291 670 c-51 -53 -126 -144 -126 -154 0 -22 180 -64 283 -65 l42
-1 0 -110 0 -110 385 0 385 0 0 225 0 225 -452 1 c-249 0 -464 2 -477 3 -13 2
-31 -5 -40 -14z"/>
<path d="M2290 455 l0 -225 180 0 180 0 0 225 0 225 -180 0 -180 0 0 -225z"/>
<path d="M2680 360 l0 -320 515 0 515 0 0 320 0 320 -515 0 -515 0 0 -320z"/>
<path d="M3740 455 l0 -225 235 0 235 0 0 225 0 225 -235 0 -235 0 0 -225z"/>
</g>
</svg>
