<?xml version="1.0" standalone="no"?>
<!DOCTYPE svg PUBLIC "-//W3C//DTD SVG 20010904//EN"
 "http://www.w3.org/TR/2001/REC-SVG-20010904/DTD/svg10.dtd">
<svg version="1.0" xmlns="http://www.w3.org/2000/svg"
 width="987.000000pt" height="488.000000pt" viewBox="0 0 987.000000 488.000000"
 preserveAspectRatio="xMidYMid meet">
<metadata>
Created by potrace 1.13, written by Peter Selinger 2001-2015
</metadata>
<g transform="translate(0.000000,488.000000) scale(0.100000,-0.100000)"
fill="#000000" stroke="none">
<path d="M40 3870 l0 -970 1050 0 1050 0 0 970 0 970 -1050 0 -1050 0 0 -970z"/>
<path d="M2170 4150 l0 -690 180 0 180 0 0 -280 0 -280 335 0 335 0 0 970 0
970 -515 0 -515 0 0 -690z"/>
<path d="M3230 4265 l0 -575 715 0 715 0 0 -130 0 -130 335 0 335 0 0 -160 0
-160 555 0 555 0 0 -110 0 -110 690 0 690 0 0 975 0 975 -2295 0 -2295 0 0
-575z"/>
<path d="M7850 3865 l0 -975 140 0 140 0 0 975 0 975 -140 0 -140 0 0 -975z"/>
<path d="M8160 4220 l0 -260 350 0 350 0 0 -535 0 -535 350 0 350 0 0 795 0
795 -700 0 -700 0 0 -260z"/>
<path d="M8160 3410 l0 -520 170 0 170 0 0 520 0 520 -170 0 -170 0 0 -520z"/>
<path d="M8530 3410 l0 -520 150 0 150 0 0 520 0 520 -150 0 -150 0 0 -520z"/>
<path d="M3230 3280 l0 -380 160 0 160 0 0 380 0 380 -160 0 -160 0 0 -380z"/>
<path d="M3580 3280 l0 -380 155 0 155 0 0 380 0 380 -155 0 -155 0 0 -380z"/>
<path d="M3920 3385 l0 -275 355 0 355 0 0 275 0 275 -355 0 -355 0 0 -275z"/>
<path d="M2170 3165 l0 -265 165 0 165 0 0 265 0 265 -165 0 -165 0 0 -265z"/>
<path d="M4660 3255 l0 -145 320 0 320 0 0 145 0 145 -320 0 -320 0 0 -145z"/>
<path d="M5330 2985 l0 -95 165 0 165 0 0 95 0 95 -165 0 -165 0 0 -95z"/>
<path d="M5690 2985 l0 -95 180 0 180 0 0 95 0 95 -180 0 -180 0 0 -95z"/>
<path d="M6080 2985 l0 -95 165 0 165 0 0 95 0 95 -165 0 -165 0 0 -95z"/>
<path d="M40 2700 l0 -170 170 0 170 0 0 170 0 170 -170 0 -170 0 0 -170z"/>
<path d="M570 2545 l0 -105 105 0 105 0 0 105 0 105 -105 0 -105 0 0 -105z"/>
<path d="M930 2545 l0 -105 105 0 105 0 0 105 0 105 -105 0 -105 0 0 -105z"/>
<path d="M1290 2545 l0 -105 240 0 240 0 0 105 0 105 -240 0 -240 0 0 -105z"/>
<path d="M1800 2545 l0 -105 230 0 230 0 0 105 0 105 -230 0 -230 0 0 -105z"/>
<path d="M2290 2545 l0 -105 135 0 135 0 0 105 0 105 -135 0 -135 0 0 -105z"/>
<path d="M2590 2545 l0 -105 210 0 210 0 0 105 0 105 -210 0 -210 0 0 -105z"/>
<path d="M3040 2545 l0 -105 220 0 220 0 0 105 0 105 -220 0 -220 0 0 -105z"/>
<path d="M3510 2545 l0 -105 250 0 250 0 0 105 0 105 -250 0 -250 0 0 -105z"/>
<path d="M4040 2545 l0 -105 175 0 175 0 0 105 0 105 -175 0 -175 0 0 -105z"/>
<path d="M6040 2550 l0 -100 180 0 180 0 0 100 0 100 -180 0 -180 0 0 -100z"/>
<path d="M6430 2545 l0 -105 280 0 280 0 0 105 0 105 -280 0 -280 0 0 -105z"/>
<path d="M7150 2545 l0 -105 220 0 220 0 0 105 0 105 -220 0 -220 0 0 -105z"/>
<path d="M7750 2545 l0 -105 200 0 200 0 0 105 0 105 -200 0 -200 0 0 -105z"/>
<path d="M8180 2545 l0 -105 170 0 170 0 0 105 0 105 -170 0 -170 0 0 -105z"/>
<path d="M8670 2545 l0 -105 120 0 120 0 0 105 0 105 -120 0 -120 0 0 -105z"/>
<path d="M8940 2545 l0 -105 170 0 170 0 0 105 0 105 -170 0 -170 0 0 -105z"/>
<path d="M40 2160 l0 -340 170 0 170 0 0 340 0 340 -170 0 -170 0 0 -340z"/>
<path d="M410 1990 l0 -200 -185 0 -185 0 0 -760 0 -760 520 0 520 0 0 960 0
960 -335 0 -335 0 0 -200z"/>
<path d="M1110 1230 l0 -960 160 0 160 0 0 960 0 960 -160 0 -160 0 0 -960z"/>
<path d="M1460 1230 l0 -960 160 0 160 0 0 960 0 960 -160 0 -160 0 0 -960z"/>
<path d="M1810 1465 l0 -725 80 0 80 0 0 725 0 725 -80 0 -80 0 0 -725z"/>
<path d="M2000 1465 l0 -725 75 0 75 0 0 725 0 725 -75 0 -75 0 0 -725z"/>
<path d="M2180 1465 l0 -725 315 0 315 0 0 725 0 725 -315 0 -315 0 0 -725z"/>
<path d="M2840 2065 l0 -125 160 0 160 0 0 125 0 125 -160 0 -160 0 0 -125z"/>
<path d="M3190 2065 l0 -125 170 0 170 0 0 125 0 125 -170 0 -170 0 0 -125z"/>
<path d="M5350 1755 l0 -435 340 0 340 0 0 435 0 435 -340 0 -340 0 0 -435z"/>
<path d="M6060 1740 l0 -450 -180 0 -180 0 0 -510 0 -510 435 0 435 0 0 960 0
960 -255 0 -255 0 0 -450z"/>
<path d="M6600 1230 l0 -960 340 0 340 0 0 205 0 205 425 0 425 0 0 305 0 305
-515 0 -515 0 0 450 0 450 -250 0 -250 0 0 -960z"/>
<path d="M7130 1755 l0 -435 160 0 160 0 0 435 0 435 -160 0 -160 0 0 -435z"/>
<path d="M7480 1755 l0 -435 170 0 170 0 0 435 0 435 -170 0 -170 0 0 -435z"/>
<path d="M7850 1755 l0 -435 140 0 140 0 0 435 0 435 -140 0 -140 0 0 -435z"/>
<path d="M8160 1435 l0 -755 180 0 180 0 0 755 0 755 -180 0 -180 0 0 -755z"/>
<path d="M8550 1435 l0 -755 170 0 170 0 0 -205 0 -205 335 0 335 0 0 960 0
960 -505 0 -505 0 0 -755z"/>
<path d="M3950 1650 l0 -330 325 0 325 0 0 330 0 330 -325 0 -325 0 0 -330z"/>
<path d="M4630 1650 l0 -330 180 0 180 0 0 -525 0 -525 340 0 340 0 0 510 0
510 -175 0 -175 0 0 345 0 345 -345 0 -345 0 0 -330z"/>
<path d="M2840 1440 l0 -470 345 0 345 0 0 340 0 340 -185 0 -185 0 0 130 0
130 -160 0 -160 0 0 -470z"/>
<path d="M3190 1795 l0 -115 170 0 170 0 0 115 0 115 -170 0 -170 0 0 -115z"/>
<path d="M3950 1115 l0 -175 240 0 240 0 0 -335 0 -335 265 0 265 0 0 510 0
510 -505 0 -505 0 0 -175z"/>
<path d="M2840 825 l0 -115 -515 0 -515 0 0 -220 0 -220 700 0 700 0 0 50 c0
28 3 50 8 50 4 0 19 10 34 23 14 12 36 29 49 37 12 8 33 25 45 38 11 12 25 22
30 22 5 0 17 8 26 18 9 9 29 26 44 37 14 11 35 28 45 38 11 9 24 17 29 17 6 0
10 63 10 170 l0 170 -345 0 -345 0 0 -115z"/>
<path d="M3950 750 l0 -160 225 0 225 0 0 160 0 160 -225 0 -225 0 0 -160z"/>
<path d="M3950 415 l0 -145 225 0 225 0 0 145 0 145 -225 0 -225 0 0 -145z"/>
</g>
</svg>
