<?xml version="1.0" standalone="no"?>
<!DOCTYPE svg PUBLIC "-//W3C//DTD SVG 20010904//EN"
 "http://www.w3.org/TR/2001/REC-SVG-20010904/DTD/svg10.dtd">
<svg version="1.0" xmlns="http://www.w3.org/2000/svg"
 width="961.000000pt" height="738.000000pt" viewBox="0 0 961.000000 738.000000"
 preserveAspectRatio="xMidYMid meet">
<metadata>
Created by potrace 1.12, written by Peter Selinger 2001-2015
</metadata>
<g transform="translate(0.000000,738.000000) scale(0.100000,-0.100000)"
fill="#000000" stroke="none">
<path d="M4140 5580 l0 -1760 -605 0 -605 0 0 -320 0 -320 455 0 455 0 0
-1025 0 -1025 580 0 580 0 0 445 0 445 355 0 355 0 0 2660 0 2660 -785 0 -785
0 0 -1760z"/>
<path d="M5740 4665 l0 -2675 -355 0 -355 0 0 -445 0 -445 -135 0 -135 0 0
-425 0 -425 2275 0 2275 0 0 3545 0 3545 -1785 0 -1785 0 0 -2675z"/>
<path d="M40 4565 l0 -535 125 0 125 0 0 -560 0 -560 440 0 440 0 0 -410 0
-410 220 0 220 0 0 -480 0 -480 645 0 645 0 0 1360 0 1360 605 0 605 0 0 625
0 625 -2035 0 -2035 0 0 -535z"/>
<path d="M2930 2140 l0 -1010 440 0 440 0 0 1010 0 1010 -440 0 -440 0 0
-1010z"/>
<path d="M290 2270 l0 -610 280 0 280 0 0 -279 0 -279 -87 0 c-279 1 -393 -3
-393 -12 0 -5 23 -56 51 -113 84 -172 216 -334 369 -454 70 -54 226 -153 244
-153 6 0 37 -11 69 -24 l58 -24 -1 51 c-1 29 -1 136 -1 240 l1 187 155 0 155
0 0 -50 0 -50 255 0 255 0 0 -225 0 -225 125 0 125 0 0 225 0 225 675 0 675 0
0 -225 0 -225 575 0 575 0 0 425 0 425 -1575 0 -1575 0 0 480 0 480 -220 0
-220 0 0 410 0 410 -425 0 -425 0 0 -610z"/>
<path d="M293 1498 c6 -142 10 -179 33 -246 8 -23 14 -49 14 -57 0 -8 5 -26
12 -40 l11 -25 229 0 228 0 0 250 0 250 -266 0 -266 0 5 -132z"/>
<path d="M1190 542 l0 -228 38 -14 c20 -7 44 -14 52 -16 8 -1 49 -9 90 -18 58
-12 132 -16 328 -16 l252 0 0 210 0 210 -255 0 -255 0 0 50 0 50 -125 0 -125
0 0 -228z"/>
<path d="M2260 460 l0 -210 645 0 645 0 0 210 0 210 -645 0 -645 0 0 -210z"/>
</g>
</svg>
