<?xml version="1.0" standalone="no"?>
<!DOCTYPE svg PUBLIC "-//W3C//DTD SVG 20010904//EN"
 "http://www.w3.org/TR/2001/REC-SVG-20010904/DTD/svg10.dtd">
<svg version="1.0" xmlns="http://www.w3.org/2000/svg"
 width="960.000000pt" height="634.000000pt" viewBox="0 0 960.000000 634.000000"
 preserveAspectRatio="xMidYMid meet">
<metadata>
Created by potrace 1.12, written by Peter Selinger 2001-2015
</metadata>
<g transform="translate(0.000000,634.000000) scale(0.100000,-0.100000)"
fill="#000000" stroke="none">
<path d="M480 5830 l0 -470 840 0 840 0 0 470 0 470 -840 0 -840 0 0 -470z"/>
<path d="M2190 5830 l0 -470 185 0 185 0 0 470 0 470 -185 0 -185 0 0 -470z"/>
<path d="M2590 5830 l0 -470 1010 0 1010 0 0 470 0 470 -1010 0 -1010 0 0
-470z"/>
<path d="M4640 5830 l0 -470 390 0 390 0 0 470 0 470 -390 0 -390 0 0 -470z"/>
<path d="M5450 5830 l0 -470 380 0 380 0 0 470 0 470 -380 0 -380 0 0 -470z"/>
<path d="M8460 5765 l0 -535 -680 0 -680 0 0 -1065 0 -1065 400 0 400 0 0
-495 0 -495 830 0 830 0 0 2095 0 2095 -550 0 -550 0 0 -535z"/>
<path d="M480 5010 l0 -320 570 0 570 0 0 320 0 320 -570 0 -570 0 0 -320z"/>
<path d="M480 4205 l0 -455 570 0 570 0 0 455 0 455 -570 0 -570 0 0 -455z"/>
<path d="M2190 4135 l0 -525 245 0 245 0 0 525 0 525 -245 0 -245 0 0 -525z"/>
<path d="M2710 4135 l0 -525 135 0 135 0 0 525 0 525 -135 0 -135 0 0 -525z"/>
<path d="M3010 4135 l0 -525 390 0 390 0 0 525 0 525 -390 0 -390 0 0 -525z"/>
<path d="M3820 3590 l0 -1070 800 0 800 0 0 1070 0 1070 -800 0 -800 0 0
-1070z"/>
<path d="M5450 3590 l0 -1070 580 0 580 0 0 1070 0 1070 -580 0 -580 0 0
-1070z"/>
<path d="M480 3250 l0 -470 570 0 570 0 0 470 0 470 -570 0 -570 0 0 -470z"/>
<path d="M2200 3050 l0 -530 390 0 390 0 0 530 0 530 -390 0 -390 0 0 -530z"/>
<path d="M3010 3050 l0 -530 390 0 390 0 0 530 0 530 -390 0 -390 0 0 -530z"/>
<path d="M40 1875 l0 -775 205 0 205 0 0 775 0 775 -205 0 -205 0 0 -775z"/>
<path d="M680 2380 l0 -120 300 0 300 0 0 120 0 120 -300 0 -300 0 0 -120z"/>
<path d="M2190 1985 l0 -95 185 0 185 0 0 95 0 95 -185 0 -185 0 0 -95z"/>
<path d="M2890 1985 l0 -95 235 0 235 0 0 95 0 95 -235 0 -235 0 0 -95z"/>
<path d="M3820 1590 l0 -490 385 0 385 0 0 490 0 490 -385 0 -385 0 0 -490z"/>
<path d="M4620 1590 l0 -490 395 0 395 0 0 490 0 490 -395 0 -395 0 0 -490z"/>
<path d="M5440 1590 l0 -490 400 0 400 0 0 490 0 490 -400 0 -400 0 0 -490z"/>
<path d="M6270 1590 l0 -490 400 0 400 0 0 490 0 490 -400 0 -400 0 0 -490z"/>
<path d="M7100 1590 l0 -490 1230 0 1230 0 0 490 0 490 -1230 0 -1230 0 0
-490z"/>
<path d="M480 1700 l0 -160 415 0 415 0 0 160 0 160 -415 0 -415 0 0 -160z"/>
<path d="M483 1228 c5 -305 11 -347 66 -459 44 -90 115 -199 129 -199 11 0
223 169 252 200 12 13 327 277 352 295 l27 20 1 213 0 212 -416 0 -416 0 5
-282z"/>
<path d="M1285 1038 c-22 -18 -42 -35 -45 -38 -3 -3 -57 -48 -120 -100 -63
-52 -120 -99 -126 -105 -24 -22 -114 -97 -201 -170 -51 -42 -93 -79 -93 -81 0
-20 135 -125 220 -172 141 -76 229 -97 415 -96 113 0 142 4 220 28 178 56 339
168 435 306 14 19 28 37 31 40 3 3 22 34 41 70 46 84 87 214 93 290 l4 60
-417 0 -417 0 -40 -32z"/>
</g>
</svg>
