<?xml version="1.0" standalone="no"?>
<!DOCTYPE svg PUBLIC "-//W3C//DTD SVG 20010904//EN"
 "http://www.w3.org/TR/2001/REC-SVG-20010904/DTD/svg10.dtd">
<svg version="1.0" xmlns="http://www.w3.org/2000/svg"
 width="961.000000pt" height="772.000000pt" viewBox="0 0 961.000000 772.000000"
 preserveAspectRatio="xMidYMid meet">
<metadata>
Created by potrace 1.12, written by Peter Selinger 2001-2015
</metadata>
<g transform="translate(0.000000,772.000000) scale(0.100000,-0.100000)"
fill="#000000" stroke="none">
<path d="M50 7380 l0 -289 36 -63 c19 -35 44 -77 54 -94 10 -18 52 -90 93
-160 40 -71 131 -228 202 -349 70 -121 139 -240 153 -265 14 -25 35 -61 47
-80 12 -19 33 -55 47 -80 47 -85 221 -385 243 -420 12 -19 55 -92 94 -162 l73
-126 3556 -2 c2249 0 3558 -4 3562 -10 3 -6 25 23 48 63 23 39 49 83 57 97 8
14 84 144 169 290 l155 265 190 5 191 5 278 485 277 485 -2 60 c0 33 -2 96 -2
141 l-1 80 -87 -2 c-189 -5 -563 -6 -3855 -5 l-3408 1 0 210 0 210 -1085 0
-1085 0 0 -290z"/>
<path d="M1151 5190 c21 -38 47 -84 57 -102 11 -18 43 -75 72 -125 l52 -93
359 0 359 0 0 195 0 196 -469 -1 -469 -1 39 -69z"/>
<path d="M2640 4800 l0 -130 185 0 185 0 0 130 0 130 -185 0 -185 0 0 -130z"/>
<path d="M3040 4800 l0 -130 185 0 185 0 0 130 0 130 -185 0 -185 0 0 -130z"/>
<path d="M3440 4800 l0 -130 185 0 185 0 0 130 0 130 -185 0 -185 0 0 -130z"/>
<path d="M3840 4800 l0 -130 185 0 185 0 0 130 0 130 -185 0 -185 0 0 -130z"/>
<path d="M7982 4863 c-4 -2 -6 -56 -5 -120 1 -65 2 -205 3 -310 0 -109 4 -193
9 -193 8 0 69 100 148 240 11 19 34 59 52 88 17 29 31 55 31 58 0 2 17 33 38
67 59 95 94 158 90 162 -4 4 -354 11 -366 8z"/>
<path d="M6050 4770 l0 -90 180 0 180 0 0 90 0 90 -180 0 -180 0 0 -90z"/>
<path d="M6440 4665 l0 -195 110 0 110 0 0 195 0 195 -110 0 -110 0 0 -195z"/>
<path d="M6690 4665 l0 -195 240 0 240 0 0 195 0 195 -240 0 -240 0 0 -195z"/>
<path d="M7200 4665 l0 -195 135 0 135 0 0 195 0 195 -135 0 -135 0 0 -195z"/>
<path d="M7500 4650 l0 -210 -150 0 -150 0 0 -205 0 -205 338 0 337 0 38 59
37 59 0 356 0 356 -225 0 -225 0 0 -210z"/>
<path d="M1466 4641 l113 -196 235 -3 236 -2 0 200 0 201 -349 -2 -348 -2 113
-196z"/>
<path d="M6050 4560 l0 -90 180 0 180 0 0 90 0 90 -180 0 -180 0 0 -90z"/>
<path d="M6050 4055 l0 -385 560 0 560 0 0 385 0 385 -560 0 -560 0 0 -385z"/>
<path d="M2560 4130 l0 -150 305 0 305 0 0 150 0 150 -305 0 -305 0 0 -150z"/>
<path d="M3200 4130 l0 -150 135 0 135 0 0 150 0 150 -135 0 -135 0 0 -150z"/>
<path d="M3500 4130 l0 -150 140 0 140 0 0 150 0 150 -140 0 -140 0 0 -150z"/>
<path d="M4200 4125 l0 -155 230 0 230 0 0 155 0 155 -230 0 -230 0 0 -155z"/>
<path d="M4820 4000 l0 -280 -65 0 -65 0 0 -125 0 -125 225 0 225 0 0 125 0
125 -65 0 -65 0 0 280 0 280 -95 0 -95 0 0 -280z"/>
<path d="M5170 4125 l0 -155 230 0 230 0 0 155 0 155 -230 0 -230 0 0 -155z"/>
<path d="M7200 3821 l0 -181 -575 0 -575 0 0 -200 0 -200 190 0 190 0 0 -120
0 -120 424 0 425 0 69 118 c231 392 502 862 502 869 0 5 -146 10 -325 11
l-325 3 0 -180z"/>
<path d="M1876 3941 c-3 -5 19 -51 49 -102 30 -51 57 -101 61 -111 3 -10 10
-18 15 -18 5 0 9 -4 9 -10 0 -5 27 -55 60 -111 33 -55 60 -102 60 -104 0 -2
21 -39 48 -82 26 -43 56 -95 67 -115 l20 -38 757 0 758 0 0 350 0 350 -950 0
c-535 0 -951 -4 -954 -9z"/>
<path d="M4200 3745 l0 -195 230 0 230 0 0 195 0 195 -230 0 -230 0 0 -195z"/>
<path d="M5170 3850 l0 -90 230 0 230 0 0 90 0 90 -230 0 -230 0 0 -90z"/>
<path d="M3920 3740 l0 -130 70 0 70 0 0 130 0 130 -70 0 -70 0 0 -130z"/>
<path d="M5170 3585 l0 -145 -120 0 -120 0 0 -100 0 -100 350 0 350 0 0 245 0
245 -230 0 -230 0 0 -145z"/>
<path d="M5770 3480 l0 -130 70 0 70 0 0 130 0 130 -70 0 -70 0 0 -130z"/>
<path d="M4200 3380 l0 -140 350 0 350 0 0 100 0 100 -120 0 -120 0 0 40 0 40
-230 0 -230 0 0 -140z"/>
<path d="M3920 3220 l0 -130 70 0 70 0 0 130 0 130 -70 0 -70 0 0 -130z"/>
<path d="M2290 3215 c0 -3 53 -98 119 -212 65 -115 126 -223 135 -240 l17 -33
609 0 610 0 0 245 0 245 -745 0 c-410 0 -745 -3 -745 -5z"/>
<path d="M4200 2970 l0 -240 350 0 350 0 0 240 0 240 -350 0 -350 0 0 -240z"/>
<path d="M4930 2970 l0 -240 350 0 350 0 0 120 0 120 -175 0 -175 0 0 120 0
120 -175 0 -175 0 0 -240z"/>
<path d="M5310 3105 l0 -105 160 0 160 0 0 105 0 105 -160 0 -160 0 0 -105z"/>
<path d="M6050 3105 l0 -105 175 0 175 0 0 105 0 105 -175 0 -175 0 0 -105z"/>
<path d="M5770 2960 l0 -130 70 0 70 0 0 130 0 130 -70 0 -70 0 0 -130z"/>
<path d="M6050 2775 l0 -195 215 0 215 0 0 195 0 195 -215 0 -215 0 0 -195z"/>
<path d="M3920 2700 l0 -130 70 0 70 0 0 130 0 130 -70 0 -70 0 0 -130z"/>
<path d="M2597 2694 c-4 -5 34 -78 73 -139 11 -16 23 -37 27 -45 5 -8 35 -60
68 -115 33 -55 67 -113 76 -130 l16 -30 462 -3 461 -2 0 235 0 235 -589 0
c-324 -1 -591 -3 -594 -6z"/>
<path d="M4202 2563 c3 -154 11 -180 76 -250 62 -66 91 -77 225 -81 l117 -4 0
236 0 236 -211 0 -211 0 4 -137z"/>
<path d="M4650 2465 l0 -235 275 0 275 0 0 235 0 235 -275 0 -275 0 0 -235z"/>
<path d="M5230 2465 l0 -235 93 0 c80 0 100 4 144 26 29 14 69 42 91 63 57 56
72 109 72 258 l0 123 -200 0 -200 0 0 -235z"/>
<path d="M6818 2463 l-3 -68 -255 -2 c-140 -1 -313 -2 -383 -2 -93 -1 -129 -4
-131 -13 -2 -7 -9 -40 -15 -73 -16 -81 -15 -77 -29 -102 -7 -13 -10 -23 -7
-23 12 0 -57 -96 -121 -169 l-32 -36 117 -123 116 -123 233 1 c223 1 233 2
252 23 11 11 20 24 20 29 0 4 15 31 33 60 19 29 45 73 59 98 14 25 51 90 83
145 32 55 65 111 72 125 8 14 22 39 32 55 10 17 44 75 75 130 32 55 62 104 67
110 18 19 7 22 -86 23 l-94 2 -3 -67z"/>
<path d="M5684 2268 c-37 -46 -74 -91 -82 -100 -14 -16 -11 -22 34 -63 27 -24
54 -45 60 -45 6 0 48 43 94 96 l83 97 -53 48 c-29 27 -56 49 -60 49 -5 0 -39
-37 -76 -82z"/>
<path d="M2895 2172 c9 -15 25 -43 36 -62 12 -19 66 -113 121 -207 l100 -173
296 0 297 0 122 122 122 122 -47 51 c-26 28 -63 79 -82 113 l-35 62 -472 -1
-473 -1 15 -26z"/>
<path d="M4530 2030 l0 -70 130 0 130 0 0 70 0 70 -130 0 -130 0 0 -70z"/>
<path d="M5050 2030 l0 -70 130 0 130 0 0 70 0 70 -130 0 -130 0 0 -70z"/>
<path d="M5786 1940 c-47 -47 -235 -110 -332 -110 l-44 0 0 -360 0 -360 394 0
394 0 105 188 c58 103 115 203 126 222 11 19 24 42 28 50 4 8 19 36 35 61 15
25 28 51 28 56 0 6 -86 11 -227 12 l-228 2 -125 130 c-69 71 -127 129 -130
129 -3 -1 -13 -10 -24 -20z"/>
<path d="M3873 1824 l-128 -126 -293 1 -293 2 35 -56 c20 -30 36 -58 36 -60 0
-3 21 -40 47 -82 25 -42 51 -86 57 -97 6 -12 33 -58 59 -103 51 -87 53 -88
231 -183 85 -45 188 -101 249 -136 32 -19 60 -34 62 -34 1 0 109 -58 239 -129
130 -71 238 -126 240 -123 2 4 4 260 5 570 l2 562 -48 -1 c-72 -2 -168 19
-236 52 -34 16 -63 33 -66 37 -8 10 -49 32 -61 32 -5 0 -67 -57 -137 -126z"/>
<path d="M4450 1251 l0 -579 43 -21 c39 -19 81 -41 247 -133 36 -20 86 -47
111 -61 l47 -25 2 86 c2 127 2 127 1 745 l-1 567 -225 0 -225 0 0 -579z"/>
<path d="M4930 1122 l0 -709 58 -30 c31 -17 91 -50 132 -72 41 -23 89 -49 105
-57 17 -8 48 -25 70 -37 40 -23 219 -120 265 -144 13 -7 25 -11 26 -10 2 3
243 404 258 432 6 11 41 71 76 133 36 62 74 130 85 150 11 20 22 39 26 42 5 5
40 70 63 117 6 13 14 23 19 23 4 0 7 5 7 10 0 6 12 29 26 51 14 22 23 46 21
52 -2 8 -109 10 -395 8 l-392 -3 0 376 0 376 -225 0 -225 0 0 -708z"/>
</g>
</svg>
