<?xml version="1.0" standalone="no"?>
<!DOCTYPE svg PUBLIC "-//W3C//DTD SVG 20010904//EN"
 "http://www.w3.org/TR/2001/REC-SVG-20010904/DTD/svg10.dtd">
<svg version="1.0" xmlns="http://www.w3.org/2000/svg"
 width="900.000000pt" height="436.000000pt" viewBox="0 0 900.000000 436.000000"
 preserveAspectRatio="xMidYMid meet">
<metadata>
Created by potrace 1.12, written by Peter Selinger 2001-2015
</metadata>
<g transform="translate(0.000000,436.000000) scale(0.100000,-0.100000)"
fill="#000000" stroke="none">
<path d="M40 3415 l0 -905 985 0 985 0 0 95 0 95 305 0 305 0 0 640 0 640
-320 0 -320 0 0 170 0 170 -970 0 -970 0 0 -905z"/>
<path d="M2890 4150 l0 -170 -115 0 -115 0 0 -640 0 -640 565 0 565 0 0 90 0
90 90 0 90 0 0 720 0 720 -540 0 -540 0 0 -170z"/>
<path d="M4010 3600 l0 -720 165 0 165 0 0 720 0 720 -165 0 -165 0 0 -720z"/>
<path d="M4370 3600 l0 -720 135 0 135 0 0 720 0 720 -135 0 -135 0 0 -720z"/>
<path d="M4670 3675 l0 -645 490 0 490 0 0 -75 0 -75 35 0 35 0 0 720 0 720
-525 0 -525 0 0 -645z"/>
<path d="M6020 3600 l0 -720 255 0 255 0 0 55 0 55 220 0 220 0 0 665 0 665
-475 0 -475 0 0 -720z"/>
<path d="M7010 3640 l0 -680 -35 0 -35 0 1 -95 c0 -52 2 -95 4 -95 1 0 69 50
151 110 l148 110 98 0 98 0 0 665 0 665 -215 0 -215 0 0 -680z"/>
<path d="M7480 3910 l0 -410 85 0 85 0 0 70 0 70 655 0 655 0 0 340 0 340
-740 0 -740 0 0 -410z"/>
<path d="M7680 3535 l0 -75 -100 0 -100 0 0 -235 0 -235 740 0 740 0 0 310 0
310 -640 0 -640 0 0 -75z"/>
<path d="M4670 2940 l0 -60 240 0 240 0 0 60 0 60 -240 0 -240 0 0 -60z"/>
<path d="M5180 2940 l0 -60 125 0 125 0 0 60 0 60 -125 0 -125 0 0 -60z"/>
<path d="M5460 2940 l0 -60 75 0 75 0 0 60 0 60 -75 0 -75 0 0 -60z"/>
<path d="M8010 2815 l0 -145 135 0 135 0 0 145 0 145 -135 0 -135 0 0 -145z"/>
<path d="M8310 2815 l0 -145 155 0 155 0 0 145 0 145 -155 0 -155 0 0 -145z"/>
<path d="M8650 2815 l0 -145 155 0 155 0 0 145 0 145 -155 0 -155 0 0 -145z"/>
<path d="M6570 2860 l0 -90 170 0 170 0 0 90 0 90 -170 0 -170 0 0 -90z"/>
<path d="M3820 2800 l0 -50 80 0 80 0 0 50 0 50 -80 0 -80 0 0 -50z"/>
<path d="M5270 2585 l0 -95 235 0 235 0 0 95 0 95 -235 0 -235 0 0 -95z"/>
<path d="M8010 2140 l0 -500 475 0 475 0 0 500 0 500 -475 0 -475 0 0 -500z"/>
<path d="M40 1255 l0 -1215 1965 0 1965 0 0 310 0 310 -980 0 -980 0 0 905 0
905 -985 0 -985 0 0 -1215z"/>
<path d="M5940 2325 l0 -145 180 0 180 0 0 145 0 145 -180 0 -180 0 0 -145z"/>
<path d="M6320 2170 l0 -300 145 0 145 0 0 300 0 300 -145 0 -145 0 0 -300z"/>
<path d="M6640 2325 l0 -145 195 0 195 0 0 145 0 145 -195 0 -195 0 0 -145z"/>
<path d="M7050 2320 l0 -150 170 0 170 0 0 150 0 150 -170 0 -170 0 0 -150z"/>
<path d="M5940 2010 l0 -140 180 0 180 0 0 140 0 140 -180 0 -180 0 0 -140z"/>
<path d="M6640 2010 l0 -140 190 0 190 0 0 140 0 140 -190 0 -190 0 0 -140z"/>
<path d="M7050 2010 l0 -140 170 0 170 0 0 140 0 140 -170 0 -170 0 0 -140z"/>
<path d="M5800 1150 l0 -460 85 0 85 0 0 460 0 460 -85 0 -85 0 0 -460z"/>
<path d="M6000 1130 l0 -480 -100 0 -100 0 0 -220 0 -220 425 0 425 0 0 -85 0
-85 165 0 165 0 0 405 0 405 -165 0 -165 0 0 380 0 380 -325 0 -325 0 0 -480z"/>
<path d="M6690 1250 l0 -360 145 0 145 0 0 360 0 360 -145 0 -145 0 0 -360z"/>
<path d="M7010 825 l0 -785 160 0 160 0 0 785 0 785 -160 0 -160 0 0 -785z"/>
<path d="M7360 825 l0 -785 130 0 130 0 0 785 0 785 -130 0 -130 0 0 -785z"/>
<path d="M7650 830 l0 -780 655 0 655 0 0 490 0 490 -340 0 -340 0 0 140 0
140 -150 0 -150 0 0 150 0 150 -165 0 -165 0 0 -780z"/>
<path d="M8010 1475 l0 -135 135 0 135 0 0 135 0 135 -135 0 -135 0 0 -135z"/>
<path d="M8310 1335 l0 -275 155 0 155 0 0 275 0 275 -155 0 -155 0 0 -275z"/>
<path d="M8650 1335 l0 -275 155 0 155 0 0 275 0 275 -155 0 -155 0 0 -275z"/>
<path d="M2050 1135 l0 -435 135 0 135 0 0 435 0 435 -135 0 -135 0 0 -435z"/>
<path d="M2360 1135 l0 -435 135 0 135 0 0 435 0 435 -135 0 -135 0 0 -435z"/>
<path d="M2670 1135 l0 -435 145 0 145 0 0 435 0 435 -145 0 -145 0 0 -435z"/>
<path d="M3000 1135 l0 -435 155 0 155 0 0 435 0 435 -155 0 -155 0 0 -435z"/>
<path d="M3340 1135 l0 -435 165 0 165 0 0 435 0 435 -165 0 -165 0 0 -435z"/>
<path d="M3700 1135 l0 -435 135 0 135 0 0 358 c0 407 10 364 -94 421 -110 61
-166 91 -171 91 -2 0 -5 -196 -5 -435z"/>
<path d="M4000 730 l0 -690 155 0 155 0 0 690 0 690 -155 0 -155 0 0 -690z"/>
<path d="M4340 730 l0 -690 100 0 100 0 0 250 0 250 55 0 55 0 0 440 0 440
-155 0 -155 0 0 -690z"/>
<path d="M4680 980 l0 -440 155 0 155 0 0 440 0 440 -155 0 -155 0 0 -440z"/>
<path d="M5020 980 l0 -440 145 0 145 0 0 440 0 440 -145 0 -145 0 0 -440z"/>
<path d="M5340 980 l0 -440 155 0 155 0 0 440 0 440 -155 0 -155 0 0 -440z"/>
<path d="M4680 200 l0 -160 485 0 485 0 0 160 0 160 -485 0 -485 0 0 -160z"/>
</g>
</svg>
