<?xml version="1.0" standalone="no"?>
<!DOCTYPE svg PUBLIC "-//W3C//DTD SVG 20010904//EN"
 "http://www.w3.org/TR/2001/REC-SVG-20010904/DTD/svg10.dtd">
<svg version="1.0" xmlns="http://www.w3.org/2000/svg"
 width="961.000000pt" height="738.000000pt" viewBox="0 0 961.000000 738.000000"
 preserveAspectRatio="xMidYMid meet">
<metadata>
Created by potrace 1.12, written by Peter Selinger 2001-2015
</metadata>
<g transform="translate(0.000000,738.000000) scale(0.100000,-0.100000)"
fill="#000000" stroke="none">
<path d="M4140 5260 l0 -2080 190 0 190 0 0 -1465 0 -1465 575 0 575 0 0 -100
0 -100 555 0 555 0 0 100 0 100 840 0 840 0 0 -100 0 -100 550 0 550 0 0 550
0 550 -125 0 -125 0 0 3095 0 3095 -2585 0 -2585 0 0 -2080z"/>
<path d="M40 4565 l0 -535 125 0 125 0 0 -560 0 -560 240 0 240 0 0 -445 0
-445 405 0 405 0 0 1325 0 1325 -250 0 -250 0 0 215 0 215 -520 0 -520 0 0
-535z"/>
<path d="M1110 4900 l0 -200 250 0 250 0 0 -1340 0 -1340 435 0 435 0 0 770 0
770 300 0 300 0 0 770 0 770 -985 0 -985 0 0 -200z"/>
<path d="M3110 4140 l0 -960 500 0 500 0 0 960 0 960 -500 0 -500 0 0 -960z"/>
<path d="M2510 3355 l0 -175 285 0 285 0 0 175 0 175 -285 0 -285 0 0 -175z"/>
<path d="M2930 2445 l0 -415 65 0 65 0 0 415 0 415 -65 0 -65 0 0 -415z"/>
<path d="M3840 2445 l0 -415 175 0 175 0 0 415 0 415 -175 0 -175 0 0 -415z"/>
<path d="M2865 1917 c-10 -17 -85 -133 -167 -256 l-148 -224 0 -154 0 -153
176 0 175 0 -2 400 c-2 221 -6 405 -9 410 -3 5 -14 -5 -25 -23z"/>
<path d="M1380 732 c0 -4 -34 -43 -75 -87 -41 -44 -75 -83 -75 -86 0 -13 92
-40 235 -68 3 -1 32 -1 65 -1 l60 0 0 -120 0 -120 410 0 410 0 0 245 0 245
-515 0 c-283 0 -515 -4 -515 -8z"/>
<path d="M2440 495 l0 -245 195 0 195 0 0 245 0 245 -195 0 -195 0 0 -245z"/>
<path d="M2860 395 l0 -345 550 0 550 0 0 345 0 345 -550 0 -550 0 0 -345z"/>
<path d="M3990 495 l0 -245 250 0 250 0 0 245 0 245 -250 0 -250 0 0 -245z"/>
</g>
</svg>
