<?xml version="1.0" standalone="no"?>
<!DOCTYPE svg PUBLIC "-//W3C//DTD SVG 20010904//EN"
 "http://www.w3.org/TR/2001/REC-SVG-20010904/DTD/svg10.dtd">
<svg version="1.0" xmlns="http://www.w3.org/2000/svg"
 width="900.000000pt" height="579.000000pt" viewBox="0 0 900.000000 579.000000"
 preserveAspectRatio="xMidYMid meet">
<metadata>
Created by potrace 1.13, written by Peter Selinger 2001-2015
</metadata>
<g transform="translate(0.000000,579.000000) scale(0.100000,-0.100000)"
fill="#000000" stroke="none">
<path d="M40 4975 l0 -775 805 0 805 0 0 220 0 220 725 0 725 0 0 555 0 555
-1530 0 -1530 0 0 -775z"/>
<path d="M1680 4400 l0 -210 710 0 710 0 0 210 0 210 -710 0 -710 0 0 -210z"/>
<path d="M40 3980 l0 -190 505 0 505 0 0 190 0 190 -505 0 -505 0 0 -190z"/>
<path d="M1680 3990 l0 -170 710 0 710 0 0 170 0 170 -710 0 -710 0 0 -170z"/>
<path d="M1680 3570 l0 -210 710 0 710 0 0 210 0 210 -710 0 -710 0 0 -210z"/>
<path d="M40 3565 l0 -195 505 0 505 0 0 195 0 195 -505 0 -505 0 0 -195z"/>
<path d="M6580 3490 c0 -17 -7 -20 -45 -20 l-45 0 0 -950 0 -950 190 0 190 0
0 970 0 970 -145 0 c-138 0 -145 -1 -145 -20z"/>
<path d="M6900 2520 l0 -990 -100 0 -100 0 0 -115 0 -115 1130 0 1130 0 0 705
0 705 -405 0 -405 0 0 380 0 380 -55 0 c-48 0 -55 2 -55 20 0 20 -7 20 -570
20 l-570 0 0 -990z"/>
<path d="M3140 2520 l0 -950 280 0 280 0 0 950 0 950 -280 0 -280 0 0 -950z"/>
<path d="M3730 2520 l0 -950 305 0 305 0 0 950 0 950 -305 0 -305 0 0 -950z"/>
<path d="M4370 2760 l0 -710 210 0 210 0 0 -240 0 -240 185 0 185 0 0 950 0
950 -395 0 -395 0 0 -710z"/>
<path d="M5200 2520 l0 -950 190 0 190 0 0 240 0 240 110 0 110 0 0 595 0 595
-210 0 -210 0 0 115 0 115 -90 0 -90 0 0 -950z"/>
<path d="M5410 3370 l0 -100 215 0 215 0 0 -610 0 -610 100 0 100 0 0 -240 0
-240 205 0 205 0 0 950 0 950 -520 0 -520 0 0 -100z"/>
<path d="M40 3140 l0 -190 505 0 505 0 0 190 0 190 -505 0 -505 0 0 -190z"/>
<path d="M1680 2819 l0 -501 107 -109 108 -109 602 0 603 0 0 610 0 610 -710
0 -710 0 0 -501z"/>
<path d="M40 2715 l0 -195 505 0 505 0 0 195 0 195 -505 0 -505 0 0 -195z"/>
<path d="M40 2295 l0 -195 396 0 397 0 108 113 109 112 0 83 0 82 -505 0 -505
0 0 -195z"/>
<path d="M40 1875 l0 -195 385 0 385 0 0 195 0 195 -385 0 -385 0 0 -195z"/>
<path d="M1920 1870 l0 -200 50 -50 50 -50 120 0 120 0 0 250 0 250 -170 0
-170 0 0 -200z"/>
<path d="M2290 1820 l0 -250 180 0 180 0 0 250 0 250 -180 0 -180 0 0 -250z"/>
<path d="M2680 1820 l0 -250 210 0 210 0 0 250 0 250 -210 0 -210 0 0 -250z"/>
<path d="M4370 1790 l0 -220 195 0 195 0 0 220 0 220 -195 0 -195 0 0 -220z"/>
<path d="M5620 1790 l0 -220 195 0 195 0 0 220 0 220 -195 0 -195 0 0 -220z"/>
<path d="M40 1380 l0 -270 240 0 240 0 0 75 0 75 145 0 145 0 0 195 0 195
-385 0 -385 0 0 -270z"/>
<path d="M1932 1305 l-50 -50 3 -81 2 -81 46 -48 46 -49 487 -1 487 -1 53 54
52 53 -1 79 -1 79 -50 50 -51 50 -486 -2 -486 -2 -51 -50z"/>
<path d="M6700 780 l0 -480 305 0 305 0 0 -120 0 -120 818 0 819 0 6 182 c4
99 7 369 7 600 l0 418 -1130 0 -1130 0 0 -480z"/>
<path d="M550 1035 l0 -195 130 0 130 0 0 195 0 195 -130 0 -130 0 0 -195z"/>
<path d="M40 960 l0 -120 240 0 240 0 0 120 0 120 -240 0 -240 0 0 -120z"/>
<path d="M40 350 l0 -290 265 0 265 0 0 290 0 290 -265 0 -265 0 0 -290z"/>
<path d="M600 530 l0 -110 725 0 725 0 0 110 0 110 -725 0 -725 0 0 -110z"/>
<path d="M2080 350 l0 -290 140 0 140 0 0 290 0 290 -140 0 -140 0 0 -290z"/>
<path d="M2390 350 l0 -290 220 0 220 0 0 290 0 290 -220 0 -220 0 0 -290z"/>
<path d="M3130 350 l0 -290 295 0 295 0 0 290 0 290 -295 0 -295 0 0 -290z"/>
<path d="M3750 350 l0 -290 295 0 295 0 0 290 0 290 -295 0 -295 0 0 -290z"/>
<path d="M4370 350 l0 -290 180 0 180 0 0 290 0 290 -180 0 -180 0 0 -290z"/>
<path d="M4770 350 l0 -290 200 0 200 0 0 290 0 290 -200 0 -200 0 0 -290z"/>
<path d="M5210 290 l0 -230 185 0 185 0 0 230 0 230 -185 0 -185 0 0 -230z"/>
<path d="M5620 290 l0 -230 195 0 195 0 0 190 0 190 80 0 80 0 0 40 0 40 -275
0 -275 0 0 -230z"/>
<path d="M6360 495 c0 -24 2 -25 70 -25 56 0 70 -3 70 -15 0 -12 16 -15 80
-15 l80 0 0 40 0 40 -150 0 -150 0 0 -25z"/>
<path d="M600 220 l0 -160 175 0 175 0 0 160 0 160 -175 0 -175 0 0 -160z"/>
<path d="M990 220 l0 -160 145 0 145 0 0 160 0 160 -145 0 -145 0 0 -160z"/>
<path d="M1310 220 l0 -160 200 0 200 0 0 160 0 160 -200 0 -200 0 0 -160z"/>
<path d="M1750 220 l0 -160 150 0 150 0 0 160 0 160 -150 0 -150 0 0 -160z"/>
</g>
</svg>
