<?xml version="1.0" encoding="UTF-8" ?>
<!DOCTYPE svg PUBLIC "-//W3C//DTD SVG 1.1//EN" "http://www.w3.org/Graphics/SVG/1.1/DTD/svg11.dtd">
<svg width="900pt" height="579pt" viewBox="0 0 900 579" version="1.1" xmlns="http://www.w3.org/2000/svg">
<g id="#000000ff">
<path fill="#000000" opacity="1.00" d=" M 4.00 4.00 C 106.00 4.00 208.00 4.00 310.00 4.00 C 310.00 41.00 310.00 78.00 310.00 115.00 C 261.67 115.00 213.33 115.00 165.00 115.00 C 165.00 129.67 165.00 144.33 165.00 159.00 C 111.33 159.00 57.67 159.00 4.00 159.00 C 4.00 107.33 4.00 55.67 4.00 4.00 Z" />
<path fill="#000000" opacity="1.00" d=" M 168.00 118.00 C 215.33 118.00 262.67 118.00 310.00 118.00 C 310.00 144.33 310.00 170.67 310.00 197.00 C 262.67 197.00 215.33 197.00 168.00 197.00 C 168.00 170.67 168.00 144.33 168.00 118.00 Z" />
<path fill="#000000" opacity="1.00" d=" M 4.00 162.00 C 37.67 162.00 71.33 162.00 105.00 162.00 C 105.00 174.67 105.00 187.33 105.00 200.00 C 71.33 200.00 37.67 200.00 4.00 200.00 C 4.00 187.33 4.00 174.67 4.00 162.00 Z" />
<path fill="#000000" opacity="1.00" d=" M 168.00 201.00 C 215.33 201.00 262.67 201.00 310.00 201.00 C 310.00 215.00 310.00 229.00 310.00 243.00 C 262.67 243.00 215.33 243.00 168.00 243.00 C 168.00 229.00 168.00 215.00 168.00 201.00 Z" />
<path fill="#000000" opacity="1.00" d=" M 4.00 203.00 C 37.67 203.00 71.33 203.00 105.00 203.00 C 105.00 216.00 105.00 229.00 105.00 242.00 C 71.33 242.00 37.67 242.00 4.00 242.00 C 4.00 229.00 4.00 216.00 4.00 203.00 Z" />
<path fill="#000000" opacity="1.00" d=" M 658.01 228.00 C 667.67 228.00 677.33 228.00 687.00 228.00 C 687.00 292.67 687.00 357.33 687.00 422.00 C 674.33 422.00 661.67 422.00 649.00 422.00 C 649.00 358.67 649.00 295.33 649.00 232.00 C 651.99 232.00 654.99 232.00 657.99 232.00 C 657.99 230.66 657.99 229.33 658.01 228.00 Z" />
<path fill="#000000" opacity="1.00" d=" M 690.00 228.00 C 728.00 228.00 766.00 228.00 803.99 228.00 C 803.99 229.33 803.99 230.66 804.01 232.00 C 807.66 232.00 811.33 232.00 815.00 232.00 C 815.00 257.33 815.00 282.67 815.00 308.00 C 842.00 308.00 869.00 308.00 896.00 308.00 C 896.00 355.00 896.00 402.00 896.00 449.00 C 820.67 449.00 745.33 449.00 670.00 449.00 C 670.00 441.33 670.00 433.67 670.00 426.00 C 676.66 426.00 683.33 426.00 690.00 426.00 C 690.00 360.00 690.00 294.00 690.00 228.00 Z" />
<path fill="#000000" opacity="1.00" d=" M 314.00 232.00 C 332.67 232.00 351.33 232.00 370.00 232.00 C 370.00 295.33 370.00 358.67 370.00 422.00 C 351.33 422.00 332.67 422.00 314.00 422.00 C 314.00 358.67 314.00 295.33 314.00 232.00 Z" />
<path fill="#000000" opacity="1.00" d=" M 373.00 232.00 C 393.33 232.00 413.67 232.00 434.00 232.00 C 434.00 295.33 434.00 358.67 434.00 422.00 C 413.67 422.00 393.33 422.00 373.00 422.00 C 373.00 358.67 373.00 295.33 373.00 232.00 Z" />
<path fill="#000000" opacity="1.00" d=" M 437.00 232.00 C 463.33 232.00 489.67 232.00 516.00 232.00 C 516.00 295.33 516.00 358.67 516.00 422.00 C 503.67 422.00 491.33 422.00 479.00 422.00 C 479.00 406.00 479.00 390.00 479.00 374.00 C 465.00 374.00 451.00 374.00 437.00 374.00 C 437.00 326.67 437.00 279.33 437.00 232.00 Z" />
<path fill="#000000" opacity="1.00" d=" M 520.00 232.00 C 526.00 232.00 532.00 232.00 538.00 232.00 C 538.00 239.67 538.00 247.33 538.00 255.00 C 552.00 255.00 566.00 255.00 580.00 255.00 C 580.00 294.67 580.00 334.33 580.00 374.00 C 572.66 374.00 565.33 374.00 558.00 374.00 C 558.00 390.00 558.00 406.00 558.00 422.00 C 545.33 422.00 532.67 422.00 520.00 422.00 C 520.00 358.67 520.00 295.33 520.00 232.00 Z" />
<path fill="#000000" opacity="1.00" d=" M 541.00 232.00 C 575.67 232.00 610.33 232.00 645.00 232.00 C 645.00 295.33 645.00 358.67 645.00 422.00 C 631.33 422.00 617.67 422.00 604.00 422.00 C 604.00 406.00 604.00 390.00 604.00 374.00 C 597.33 374.00 590.67 374.00 584.00 374.00 C 584.00 333.33 584.00 292.67 584.00 252.00 C 569.67 252.00 555.33 252.00 541.00 252.00 C 541.00 245.33 541.00 238.67 541.00 232.00 Z" />
<path fill="#000000" opacity="1.00" d=" M 4.00 246.00 C 37.67 246.00 71.33 246.00 105.00 246.00 C 105.00 258.67 105.00 271.33 105.00 284.00 C 71.33 284.00 37.67 284.00 4.00 284.00 C 4.00 271.33 4.00 258.67 4.00 246.00 Z" />
<path fill="#000000" opacity="1.00" d=" M 168.00 247.00 C 215.33 247.00 262.67 247.00 310.00 247.00 C 310.00 287.67 310.00 328.33 310.00 369.00 C 269.81 369.00 229.62 369.01 189.43 368.99 C 182.47 361.68 175.49 354.33 168.02 347.53 C 167.97 314.02 168.01 280.51 168.00 247.00 Z" />
<path fill="#000000" opacity="1.00" d=" M 4.00 288.00 C 37.67 288.00 71.33 288.00 105.00 288.00 C 105.00 301.00 105.00 314.00 105.00 327.00 C 71.33 327.00 37.67 327.00 4.00 327.00 C 4.00 314.00 4.00 301.00 4.00 288.00 Z" />
<path fill="#000000" opacity="1.00" d=" M 4.00 330.00 C 37.67 330.00 71.33 330.00 105.00 330.00 C 104.92 335.06 105.15 340.13 104.94 345.20 C 104.93 346.96 103.45 348.15 102.38 349.37 C 95.87 355.97 89.42 362.63 82.89 369.22 C 56.60 368.71 30.30 369.15 4.00 369.00 C 4.00 356.00 4.00 343.00 4.00 330.00 Z" />
<path fill="#000000" opacity="1.00" d=" M 4.00 372.00 C 29.67 372.00 55.33 372.00 81.00 372.00 C 81.00 385.00 81.00 398.00 81.00 411.00 C 55.33 411.00 29.67 411.00 4.00 411.00 C 4.00 398.00 4.00 385.00 4.00 372.00 Z" />
<path fill="#000000" opacity="1.00" d=" M 192.00 372.00 C 203.33 372.00 214.67 372.00 226.00 372.00 C 226.00 388.67 226.00 405.33 226.00 422.00 C 218.00 422.05 209.99 421.89 201.99 422.09 C 198.64 418.72 195.33 415.31 192.00 411.92 C 192.00 398.61 192.00 385.31 192.00 372.00 Z" />
<path fill="#000000" opacity="1.00" d=" M 229.00 372.00 C 241.00 372.00 253.00 372.00 265.00 372.00 C 265.00 388.67 265.00 405.33 265.00 422.00 C 253.00 422.00 241.00 422.00 229.00 422.00 C 229.00 405.33 229.00 388.67 229.00 372.00 Z" />
<path fill="#000000" opacity="1.00" d=" M 268.00 372.00 C 282.00 372.00 296.00 372.00 310.00 372.00 C 310.00 388.67 310.00 405.33 310.00 422.00 C 296.00 422.00 282.00 422.00 268.00 422.00 C 268.00 405.33 268.00 388.67 268.00 372.00 Z" />
<path fill="#000000" opacity="1.00" d=" M 437.00 378.00 C 450.00 378.00 463.00 378.00 476.00 378.00 C 476.00 392.67 476.00 407.33 476.00 422.00 C 463.00 422.00 450.00 422.00 437.00 422.00 C 437.00 407.33 437.00 392.67 437.00 378.00 Z" />
<path fill="#000000" opacity="1.00" d=" M 562.00 378.00 C 575.00 378.00 588.00 378.00 601.00 378.00 C 601.00 392.67 601.00 407.33 601.00 422.00 C 588.00 422.00 575.00 422.00 562.00 422.00 C 562.00 407.33 562.00 392.67 562.00 378.00 Z" />
<path fill="#000000" opacity="1.00" d=" M 4.00 414.00 C 29.67 414.00 55.33 414.00 81.00 414.00 C 81.00 427.00 81.00 440.00 81.00 453.00 C 71.33 453.00 61.67 453.00 52.00 453.00 C 52.00 458.00 52.00 463.00 52.00 468.00 C 36.00 468.00 20.00 468.00 4.00 468.00 C 4.00 450.00 4.00 432.00 4.00 414.00 Z" />
<path fill="#000000" opacity="1.00" d=" M 198.05 444.03 C 199.10 443.06 200.68 443.49 201.97 443.33 C 233.18 443.39 264.38 443.20 295.59 443.22 C 298.80 446.66 302.58 449.56 305.53 453.23 C 305.89 458.51 305.62 463.81 305.81 469.11 C 302.36 472.60 298.83 476.01 295.44 479.56 C 262.99 479.66 230.54 479.42 198.09 479.41 C 194.92 476.12 191.75 472.84 188.62 469.52 C 188.52 463.98 188.39 458.45 188.42 452.91 C 191.75 450.08 194.77 446.90 198.05 444.03 Z" />
<path fill="#000000" opacity="1.00" d=" M 670.00 453.00 C 745.33 453.00 820.67 453.00 896.00 453.00 C 895.91 484.79 896.17 516.59 895.87 548.38 C 895.18 549.48 894.88 550.68 894.97 551.98 C 895.00 558.98 895.00 565.99 895.00 573.00 C 840.33 573.00 785.67 573.00 731.00 573.00 C 731.00 565.00 731.00 557.00 731.00 549.00 C 710.67 549.00 690.33 549.00 670.00 549.00 C 670.00 517.00 670.00 485.00 670.00 453.00 Z" />
<path fill="#000000" opacity="1.00" d=" M 55.00 456.00 C 63.67 456.00 72.33 456.00 81.00 456.00 C 81.00 469.00 81.00 482.00 81.00 495.00 C 72.33 495.00 63.67 495.00 55.00 495.00 C 55.00 482.00 55.00 469.00 55.00 456.00 Z" />
<path fill="#000000" opacity="1.00" d=" M 4.00 471.00 C 20.00 471.00 36.00 471.00 52.00 471.00 C 52.00 479.00 52.00 487.00 52.00 495.00 C 36.00 495.00 20.00 495.00 4.00 495.00 C 4.00 487.00 4.00 479.00 4.00 471.00 Z" />
<path fill="#000000" opacity="1.00" d=" M 4.00 515.00 C 21.67 515.00 39.33 515.00 57.00 515.00 C 57.00 534.33 57.00 553.67 57.00 573.00 C 39.33 573.00 21.67 573.00 4.00 573.00 C 4.00 553.67 4.00 534.33 4.00 515.00 Z" />
<path fill="#000000" opacity="1.00" d=" M 60.00 515.00 C 108.33 515.00 156.67 515.00 205.00 515.00 C 205.00 522.33 205.00 529.66 205.00 537.00 C 156.67 537.00 108.33 537.00 60.00 537.00 C 60.00 529.66 60.00 522.33 60.00 515.00 Z" />
<path fill="#000000" opacity="1.00" d=" M 208.00 515.00 C 217.33 515.00 226.67 515.00 236.00 515.00 C 236.00 534.33 236.00 553.67 236.00 573.00 C 226.67 573.00 217.33 573.00 208.00 573.00 C 208.00 553.67 208.00 534.33 208.00 515.00 Z" />
<path fill="#000000" opacity="1.00" d=" M 239.00 515.00 C 253.67 515.00 268.33 515.00 283.00 515.00 C 283.00 534.33 283.00 553.67 283.00 573.00 C 268.33 573.00 253.67 573.00 239.00 573.00 C 239.00 553.67 239.00 534.33 239.00 515.00 Z" />
<path fill="#000000" opacity="1.00" d=" M 313.00 515.00 C 332.67 515.00 352.33 515.00 372.00 515.00 C 372.00 534.33 372.00 553.67 372.00 573.00 C 352.33 573.00 332.67 573.00 313.00 573.00 C 313.00 553.67 313.00 534.33 313.00 515.00 Z" />
<path fill="#000000" opacity="1.00" d=" M 375.00 515.00 C 394.67 515.00 414.33 515.00 434.00 515.00 C 434.00 534.33 434.00 553.67 434.00 573.00 C 414.33 573.00 394.67 573.00 375.00 573.00 C 375.00 553.67 375.00 534.33 375.00 515.00 Z" />
<path fill="#000000" opacity="1.00" d=" M 437.00 515.00 C 449.00 515.00 461.00 515.00 473.00 515.00 C 473.00 534.33 473.00 553.67 473.00 573.00 C 461.00 573.00 449.00 573.00 437.00 573.00 C 437.00 553.67 437.00 534.33 437.00 515.00 Z" />
<path fill="#000000" opacity="1.00" d=" M 477.00 515.00 C 490.33 515.00 503.67 515.00 517.00 515.00 C 517.00 534.33 517.00 553.67 517.00 573.00 C 503.67 573.00 490.33 573.00 477.00 573.00 C 477.00 553.67 477.00 534.33 477.00 515.00 Z" />
<path fill="#000000" opacity="1.00" d=" M 521.00 527.00 C 533.33 527.00 545.67 527.00 558.00 527.00 C 558.00 542.33 558.00 557.67 558.00 573.00 C 545.67 573.00 533.33 573.00 521.00 573.00 C 521.00 557.67 521.00 542.33 521.00 527.00 Z" />
<path fill="#000000" opacity="1.00" d=" M 562.00 527.00 C 580.33 527.00 598.67 527.00 617.00 527.00 C 616.99 529.66 617.00 532.33 617.00 535.00 C 611.66 535.00 606.33 535.00 601.00 535.00 C 601.00 547.67 601.00 560.33 601.00 573.00 C 588.00 573.00 575.00 573.00 562.00 573.00 C 562.00 557.67 562.00 542.33 562.00 527.00 Z" />
<path fill="#000000" opacity="1.00" d=" M 636.00 527.00 C 646.00 527.00 656.00 527.00 666.00 527.00 C 665.99 529.66 665.99 532.33 666.00 535.00 C 660.67 535.00 655.34 535.00 650.01 535.00 C 650.01 534.25 649.99 532.75 649.99 532.00 C 645.32 532.00 640.66 532.00 636.00 532.00 C 635.99 530.33 635.99 528.66 636.00 527.00 Z" />
<path fill="#000000" opacity="1.00" d=" M 60.00 541.00 C 71.67 541.00 83.33 541.00 95.00 541.00 C 95.00 551.67 95.00 562.33 95.00 573.00 C 83.33 573.00 71.67 573.00 60.00 573.00 C 60.00 562.33 60.00 551.67 60.00 541.00 Z" />
<path fill="#000000" opacity="1.00" d=" M 99.00 541.00 C 108.67 541.00 118.33 541.00 128.00 541.00 C 128.00 551.67 128.00 562.33 128.00 573.00 C 118.33 573.00 108.67 573.00 99.00 573.00 C 99.00 562.33 99.00 551.67 99.00 541.00 Z" />
<path fill="#000000" opacity="1.00" d=" M 131.00 541.00 C 144.33 541.00 157.67 541.00 171.00 541.00 C 171.00 551.67 171.00 562.33 171.00 573.00 C 157.67 573.00 144.33 573.00 131.00 573.00 C 131.00 562.33 131.00 551.67 131.00 541.00 Z" />
<path fill="#000000" opacity="1.00" d=" M 175.00 541.00 C 185.00 541.00 195.00 541.00 205.00 541.00 C 205.00 551.67 205.00 562.33 205.00 573.00 C 195.00 573.00 185.00 573.00 175.00 573.00 C 175.00 562.33 175.00 551.67 175.00 541.00 Z" />
</g>
</svg>
