<?xml version="1.0" standalone="no"?>
<!DOCTYPE svg PUBLIC "-//W3C//DTD SVG 20010904//EN"
 "http://www.w3.org/TR/2001/REC-SVG-20010904/DTD/svg10.dtd">
<svg version="1.0" xmlns="http://www.w3.org/2000/svg"
 width="900.000000pt" height="573.000000pt" viewBox="0 0 900.000000 573.000000"
 preserveAspectRatio="xMidYMid meet">
<metadata>
Created by potrace 1.12, written by Peter Selinger 2001-2015
</metadata>
<g transform="translate(0.000000,573.000000) scale(0.100000,-0.100000)"
fill="#000000" stroke="none">
<path d="M450 3648 l0 -2043 193 1 c235 2 219 1 242 19 11 9 65 45 120 80 55
36 141 92 190 125 l90 60 1133 0 1132 0 0 1900 0 1900 -1550 0 -1550 0 0
-2042z"/>
<path d="M5110 3255 l0 -2435 1925 0 1925 0 0 2435 0 2435 -1925 0 -1925 0 0
-2435z"/>
<path d="M3590 3495 l0 -2185 740 0 740 0 0 2185 0 2185 -740 0 -740 0 0
-2185z"/>
<path d="M40 1545 l0 -725 190 0 190 0 0 725 0 725 -190 0 -190 0 0 -725z"/>
<path d="M2050 1580 l0 -280 455 0 455 0 0 280 0 280 -455 0 -455 0 0 -280z"/>
<path d="M1184 1789 c-49 -34 -141 -97 -206 -140 l-116 -79 -206 0 -206 0 0
-402 c0 -222 5 -433 10 -470 43 -295 268 -548 570 -638 89 -27 258 -34 348
-14 175 38 347 132 447 247 53 59 127 194 157 282 42 124 43 149 40 723 l-2
552 -373 0 -373 0 -90 -61z"/>
<path d="M3580 1225 l0 -55 135 0 135 0 0 55 0 55 -135 0 -135 0 0 -55z"/>
<path d="M3580 915 l0 -95 130 0 130 0 0 95 0 95 -130 0 -130 0 0 -95z"/>
<path d="M3870 915 l0 -95 130 0 130 0 0 95 0 95 -130 0 -130 0 0 -95z"/>
<path d="M4160 915 l0 -95 175 0 175 0 0 95 0 95 -175 0 -175 0 0 -95z"/>
<path d="M4540 915 l0 -95 265 0 265 0 0 95 0 95 -265 0 -265 0 0 -95z"/>
</g>
</svg>
