<?xml version="1.0" standalone="no"?>
<!DOCTYPE svg PUBLIC "-//W3C//DTD SVG 20010904//EN"
 "http://www.w3.org/TR/2001/REC-SVG-20010904/DTD/svg10.dtd">
<svg version="1.0" xmlns="http://www.w3.org/2000/svg"
 width="900.000000pt" height="689.000000pt" viewBox="0 0 900.000000 689.000000"
 preserveAspectRatio="xMidYMid meet">
<metadata>
Created by potrace 1.12, written by Peter Selinger 2001-2015
</metadata>
<g transform="translate(0.000000,689.000000) scale(0.100000,-0.100000)"
fill="#000000" stroke="none">
<path d="M3990 5160 l0 -1690 -585 0 -585 0 0 -305 0 -305 440 0 440 0 0 -985
0 -985 555 0 555 0 0 425 0 425 345 0 345 0 0 2555 0 2555 -755 0 -755 0 0
-1690z"/>
<path d="M5530 4280 l0 -2570 -345 0 -345 0 0 -430 0 -430 -130 0 -130 0 0
-405 0 -405 2190 0 2190 0 0 3405 0 3405 -1715 0 -1715 0 0 -2570z"/>
<path d="M40 4185 l0 -515 120 0 120 0 0 -535 0 -535 425 0 425 0 0 -395 0
-395 210 0 210 0 0 -460 0 -460 620 0 620 0 0 1305 0 1305 580 0 580 0 0 600
0 600 -1955 0 -1955 0 0 -515z"/>
<path d="M2820 1855 l0 -965 425 0 425 0 0 965 0 965 -425 0 -425 0 0 -965z"/>
<path d="M286 1351 c-3 -5 -4 -66 -1 -136 3 -92 11 -152 30 -222 14 -52 25
-97 25 -99 0 -2 101 -4 225 -4 l225 0 0 235 0 235 -249 0 c-138 0 -252 -4
-255 -9z"/>
<path d="M1152 318 l3 -222 60 -18 c101 -30 112 -31 393 -35 l272 -5 0 201 0
201 -250 0 -250 0 0 50 0 50 -115 0 -115 0 2 -222z"/>
<path d="M2180 240 l0 -200 620 0 620 0 0 200 0 200 -620 0 -620 0 0 -200z"/>
</g>
</svg>
