<?xml version="1.0" standalone="no"?>
<!DOCTYPE svg PUBLIC "-//W3C//DTD SVG 20010904//EN"
 "http://www.w3.org/TR/2001/REC-SVG-20010904/DTD/svg10.dtd">
<svg version="1.0" xmlns="http://www.w3.org/2000/svg"
 width="961.000000pt" height="738.000000pt" viewBox="0 0 961.000000 738.000000"
 preserveAspectRatio="xMidYMid meet">
<metadata>
Created by potrace 1.12, written by Peter Selinger 2001-2015
</metadata>
<g transform="translate(0.000000,738.000000) scale(0.100000,-0.100000)"
fill="#000000" stroke="none">
<path d="M4140 6220 l0 -1120 -370 0 -370 0 0 -960 0 -960 680 0 680 0 0
-1465 0 -1465 805 0 805 0 0 -100 0 -100 205 0 205 0 0 100 0 100 1265 0 1265
0 0 3545 0 3545 -2585 0 -2585 0 0 -1120z"/>
<path d="M40 4565 l0 -535 125 0 125 0 0 -1297 c0 -1341 0 -1326 39 -1498 50
-219 174 -434 355 -616 200 -201 529 -350 809 -366 l87 -5 0 421 0 421 450 0
450 0 0 450 0 450 -450 0 -450 0 0 1555 0 1555 -770 0 -770 0 0 -535z"/>
<path d="M1610 4525 l0 -575 450 0 450 0 0 -385 0 -385 430 0 430 0 0 960 0
960 -880 0 -880 0 0 -575z"/>
<path d="M1610 2970 l0 -950 435 0 435 0 0 950 0 950 -435 0 -435 0 0 -950z"/>
<path d="M4260 2990 l0 -160 235 0 235 0 0 160 0 160 -235 0 -235 0 0 -160z"/>
<path d="M4260 1945 l0 -855 235 0 235 0 0 855 0 855 -235 0 -235 0 0 -855z"/>
<path d="M1610 655 l0 -405 625 0 625 0 0 -100 0 -100 255 0 255 0 0 345 0
345 -445 0 -445 0 0 160 0 160 -435 0 -435 0 0 -405z"/>
<path d="M4260 900 l0 -160 -430 0 -430 0 0 -345 0 -345 280 0 280 0 0 100 0
100 385 0 385 0 0 405 0 405 -235 0 -235 0 0 -160z"/>
</g>
</svg>
