<?xml version="1.0" standalone="no"?>
<!DOCTYPE svg PUBLIC "-//W3C//DTD SVG 20010904//EN"
 "http://www.w3.org/TR/2001/REC-SVG-20010904/DTD/svg10.dtd">
<svg version="1.0" xmlns="http://www.w3.org/2000/svg"
 width="960.000000pt" height="669.000000pt" viewBox="0 0 960.000000 669.000000"
 preserveAspectRatio="xMidYMid meet">
<metadata>
Created by potrace 1.12, written by Peter Selinger 2001-2015
</metadata>
<g transform="translate(0.000000,669.000000) scale(0.100000,-0.100000)"
fill="#000000" stroke="none">
<path d="M89 6618 c10 -18 78 -136 151 -263 150 -260 159 -276 209 -363 20
-35 41 -71 46 -81 6 -9 53 -92 105 -184 l95 -167 385 0 385 0 43 69 42 68 0
162 0 161 -157 0 -157 0 -65 69 c-36 38 -149 156 -251 262 -102 106 -206 215
-232 243 l-47 52 -285 2 -286 2 19 -32z"/>
<path d="M703 6615 c18 -18 73 -75 122 -127 50 -52 164 -172 254 -266 l165
-172 168 0 168 0 0 -143 c0 -79 3 -147 6 -150 4 -4 40 24 80 62 44 41 104 84
149 107 l75 39 0 343 0 342 -609 -1 -609 -2 31 -32z"/>
<path d="M1920 6319 l2 -331 21 6 c179 53 152 50 520 54 l347 3 0 300 0 299
-445 0 -446 0 1 -331z"/>
<path d="M2840 6350 l0 -300 240 0 240 0 0 300 0 300 -240 0 -240 0 0 -300z"/>
<path d="M3350 6350 l0 -300 410 0 410 0 0 300 0 300 -410 0 -410 0 0 -300z"/>
<path d="M4380 6319 l0 -331 177 -241 c98 -133 180 -244 183 -247 3 -3 17 -23
33 -46 l27 -40 0 -467 0 -467 180 0 180 0 0 468 0 467 80 110 c44 61 93 128
108 150 99 139 206 282 223 297 18 15 19 32 19 347 l0 331 -605 0 -605 0 0
-331z"/>
<path d="M5610 6319 l0 -331 -197 -269 c-109 -148 -202 -279 -208 -289 -5 -11
-12 -20 -15 -20 -3 0 -4 -216 -2 -480 l2 -480 28 -28 c15 -15 70 -74 121 -132
52 -58 117 -130 145 -161 28 -31 78 -86 110 -122 l60 -67 1160 0 1161 1 63
112 c34 61 73 130 86 152 13 22 67 117 121 210 87 150 117 204 194 337 10 18
42 74 71 123 29 50 62 106 72 125 41 72 69 120 193 335 70 121 137 236 148
255 11 19 89 157 175 305 125 217 412 717 428 747 3 3 -878 7 -1956 8 l-1960
1 0 -332z"/>
<path d="M2170 5701 c-77 -30 -86 -35 -121 -66 -57 -51 -90 -104 -104 -163
-10 -43 -14 -188 -15 -604 l-1 -548 71 0 70 0 0 -325 0 -325 625 0 625 0 0
195 0 195 385 0 385 0 0 830 0 830 -937 -1 c-869 -1 -941 -2 -983 -18z"/>
<path d="M1225 4646 c14 -25 54 -95 90 -156 36 -61 65 -115 65 -119 0 -4 8
-15 18 -24 15 -14 42 -17 160 -17 l142 0 0 180 0 180 -250 0 -250 0 25 -44z"/>
<path d="M3350 3835 l0 -195 -640 0 -640 0 0 -80 0 -80 -85 0 c-75 0 -84 -2
-78 -17 4 -9 81 -145 173 -302 91 -157 193 -332 226 -389 32 -57 71 -124 86
-150 16 -26 42 -73 60 -104 l33 -58 1172 0 1173 0 0 650 0 650 -370 0 -370 0
0 135 0 135 -370 0 -370 0 0 -195z"/>
<path d="M5383 3762 l-523 -2 -1 -393 c0 -215 -1 -515 -1 -665 l-1 -273 -1166
2 c-641 0 -1170 0 -1174 0 -10 -1 -16 9 223 -406 95 -165 182 -316 192 -335
65 -116 79 -137 105 -151 15 -9 55 -31 88 -49 33 -18 83 -45 110 -60 28 -15
82 -44 120 -65 39 -21 234 -128 435 -238 201 -110 394 -215 430 -235 36 -19
85 -46 110 -60 56 -31 83 -46 403 -221 143 -77 260 -141 262 -141 2 0 36 -19
77 -43 40 -24 93 -54 118 -66 57 -29 108 -56 190 -102 111 -62 162 -90 240
-132 41 -22 79 -44 84 -48 14 -13 46 -11 46 2 0 6 19 43 43 82 24 40 54 92 68
117 13 25 27 47 32 48 4 2 7 7 7 12 0 4 107 194 238 422 249 432 503 872 532
923 9 17 37 64 62 105 24 41 47 82 51 90 4 8 18 33 32 55 14 22 28 47 32 55 4
8 20 38 36 65 17 28 40 68 52 90 13 22 123 213 245 425 122 212 234 405 248
430 14 25 48 86 77 135 29 50 62 106 73 125 43 77 240 417 262 453 12 21 21
40 18 42 -5 5 -1814 11 -2475 7z"/>
</g>
</svg>
