<?xml version="1.0" encoding="UTF-8" ?>
<!DOCTYPE svg PUBLIC "-//W3C//DTD SVG 1.1//EN" "http://www.w3.org/Graphics/SVG/1.1/DTD/svg11.dtd">
<svg width="986pt" height="550pt" viewBox="0 0 986 550" version="1.1" xmlns="http://www.w3.org/2000/svg">
<g id="#000000ff">
<path fill="#000000" opacity="1.00" d=" M 29.98 28.87 C 29.87 27.73 30.07 25.64 31.77 26.02 C 74.55 25.96 117.32 26.04 160.10 25.98 C 161.25 25.87 163.36 26.06 162.98 27.78 C 162.96 64.55 163.12 101.33 162.90 138.10 C 162.69 138.30 162.26 138.70 162.05 138.90 C 142.38 139.14 122.68 138.93 103.00 139.00 C 103.02 156.01 102.96 173.02 103.03 190.03 C 102.80 191.25 103.54 193.26 102.07 193.90 C 96.05 194.18 90.02 193.90 84.00 194.00 C 84.01 210.02 83.98 226.03 84.02 242.05 C 84.20 243.34 83.91 245.32 82.11 244.98 C 65.69 245.04 49.28 244.96 32.86 245.02 C 31.68 245.17 29.67 244.90 30.02 243.20 C 29.96 171.76 30.04 100.31 29.98 28.87 Z" />
<path fill="#000000" opacity="1.00" d=" M 165.98 28.88 C 165.83 27.69 166.09 25.68 167.80 26.02 C 226.21 25.96 284.62 26.04 343.02 25.98 C 344.30 25.89 346.36 26.01 345.98 27.88 C 346.02 46.63 346.01 65.39 345.98 84.14 C 346.29 85.87 344.38 86.22 343.13 86.02 C 335.75 86.00 328.38 86.00 321.00 86.00 C 321.00 94.00 321.00 102.00 321.00 110.00 C 313.00 110.00 305.00 110.00 297.00 110.00 C 296.96 117.72 297.05 125.45 296.98 133.17 C 297.29 134.90 295.34 135.20 294.11 135.02 C 281.39 134.97 268.66 135.04 255.94 134.97 C 250.41 135.35 245.21 137.39 239.95 138.92 C 216.29 139.12 192.62 138.92 168.96 139.02 C 167.74 139.10 165.63 138.99 166.02 137.17 C 165.96 101.07 166.04 64.98 165.98 28.88 Z" />
<path fill="#000000" opacity="1.00" d=" M 348.98 28.96 C 348.89 27.75 349.02 25.61 350.84 26.02 C 380.25 25.96 409.66 26.04 439.06 25.98 C 440.26 25.88 442.36 26.03 441.98 27.83 C 442.03 47.22 441.98 66.61 442.00 86.00 C 411.30 85.93 380.60 86.14 349.91 85.90 C 349.71 85.68 349.31 85.23 349.10 85.00 C 348.84 66.33 349.10 47.64 348.98 28.96 Z" />
<path fill="#000000" opacity="1.00" d=" M 485.46 26.46 L 485.89 26.09 C 492.96 25.93 500.07 25.93 507.15 26.09 C 507.34 26.31 507.71 26.76 507.90 26.98 C 508.16 36.65 507.90 46.35 508.02 56.03 C 508.14 57.23 507.96 59.33 506.19 58.98 C 499.75 59.02 493.31 59.03 486.87 58.98 C 485.08 59.34 484.83 57.37 484.98 56.11 C 485.09 46.38 484.85 36.64 485.09 26.92 L 485.46 26.46 Z" />
<path fill="#000000" opacity="1.00" d=" M 511.46 26.42 C 512.79 25.61 514.52 26.14 516.02 25.97 C 544.75 26.05 573.47 25.95 602.19 26.02 C 603.93 25.67 604.14 27.72 604.02 28.91 C 603.96 63.64 604.04 98.37 603.98 133.10 C 604.34 134.88 602.37 135.20 601.11 135.02 C 572.05 134.99 542.98 134.99 513.92 135.02 C 512.75 135.10 510.60 134.97 511.02 133.19 C 510.96 98.44 511.04 63.68 510.98 28.93 C 511.10 28.30 511.34 27.05 511.46 26.42 Z" />
<path fill="#000000" opacity="1.00" d=" M 607.02 27.86 C 606.64 26.02 608.68 25.88 609.95 25.98 C 641.30 26.10 672.67 25.84 704.01 26.11 C 704.23 26.31 704.68 26.73 704.90 26.94 C 705.07 44.97 705.07 63.04 704.90 81.08 C 704.67 81.28 704.21 81.69 703.98 81.89 C 697.33 82.19 690.66 81.90 684.00 82.00 C 683.73 90.86 684.53 99.86 683.62 108.63 C 677.19 109.53 670.52 108.73 664.00 109.00 C 663.92 117.36 664.15 125.73 663.91 134.09 C 663.70 134.29 663.28 134.70 663.07 134.91 C 644.99 135.12 626.89 134.96 608.80 134.98 C 607.05 135.32 606.83 133.26 606.98 132.06 C 607.04 97.33 606.95 62.59 607.02 27.86 Z" />
<path fill="#000000" opacity="1.00" d=" M 708.42 26.41 C 709.79 25.65 711.50 26.12 713.02 25.97 C 723.73 26.06 734.44 25.94 745.15 26.02 C 746.94 25.61 747.12 27.75 747.02 28.94 C 746.91 64.01 747.14 99.08 746.91 134.14 C 746.67 134.33 746.20 134.71 745.97 134.90 C 734.29 135.16 722.59 134.90 710.90 135.02 C 709.69 135.14 707.62 134.92 708.02 133.16 C 707.96 99.10 708.05 65.05 707.97 30.99 C 708.11 29.49 707.62 27.77 708.42 26.41 Z" />
<path fill="#000000" opacity="1.00" d=" M 750.02 27.86 C 749.65 26.07 751.62 25.86 752.89 25.98 C 781.98 26.01 811.08 26.01 840.18 25.98 C 841.35 25.81 843.32 26.13 842.98 27.81 C 842.96 46.92 843.11 66.03 842.91 85.13 C 842.70 85.32 842.28 85.71 842.07 85.90 C 835.72 86.17 829.35 85.91 823.00 86.00 C 822.92 93.71 823.15 101.43 822.91 109.13 C 822.69 109.32 822.26 109.71 822.05 109.90 C 817.04 110.18 812.01 109.91 807.00 110.00 C 806.96 117.74 807.05 125.48 806.98 133.21 C 807.34 134.94 805.23 135.14 804.08 135.02 C 786.68 134.96 769.28 135.04 751.89 134.98 C 750.08 135.38 749.83 133.34 749.98 132.09 C 750.04 97.35 749.96 62.60 750.02 27.86 Z" />
<path fill="#000000" opacity="1.00" d=" M 846.02 27.86 C 845.64 26.08 847.68 25.82 848.93 25.98 C 892.68 26.04 936.44 25.96 980.19 26.02 C 981.92 25.67 982.15 27.71 982.02 28.91 C 981.96 109.98 982.04 191.05 981.98 272.11 C 982.35 273.97 980.30 274.13 979.04 274.02 C 929.62 273.96 880.20 274.04 830.78 273.98 C 829.06 274.35 828.85 272.26 828.98 271.11 C 829.01 227.70 829.01 184.30 828.98 140.90 C 828.85 139.73 829.06 137.62 830.81 138.02 C 835.87 137.93 840.93 138.04 846.00 138.00 C 846.01 101.29 845.97 64.57 846.02 27.86 Z" />
<path fill="#000000" opacity="1.00" d=" M 485.42 62.52 L 485.80 62.08 C 492.88 61.95 499.99 61.91 507.08 62.10 C 507.28 62.34 507.69 62.80 507.89 63.04 C 508.17 72.38 507.90 81.75 508.02 91.11 C 508.13 92.28 507.92 94.37 506.19 93.98 C 499.41 93.97 492.63 94.12 485.87 93.91 C 485.68 93.70 485.29 93.28 485.10 93.07 C 484.83 84.41 485.12 75.72 484.97 67.05 C 485.13 65.57 484.60 63.84 485.42 62.52 Z" />
<path fill="#000000" opacity="1.00" d=" M 687.43 85.41 C 692.52 84.45 697.98 85.22 703.21 85.02 C 704.95 84.64 705.11 86.77 705.02 87.93 C 704.91 103.31 705.14 118.71 704.91 134.08 C 704.70 134.29 704.28 134.70 704.07 134.90 C 698.99 135.14 693.89 134.98 688.81 134.98 C 687.06 135.33 686.82 133.27 686.98 132.07 C 687.00 118.05 687.03 104.03 686.97 90.01 C 687.13 88.51 686.60 86.76 687.43 85.41 Z" />
<path fill="#000000" opacity="1.00" d=" M 348.97 92.97 C 349.22 91.77 348.40 89.56 350.02 89.12 C 355.33 88.79 360.67 89.10 366.00 89.00 C 366.00 104.33 366.00 119.67 366.00 135.00 C 360.61 134.92 355.21 135.16 349.82 134.91 C 349.64 134.69 349.28 134.23 349.10 134.00 C 348.83 120.34 349.11 106.65 348.97 92.97 Z" />
<path fill="#000000" opacity="1.00" d=" M 369.00 89.00 C 374.04 89.09 379.09 88.82 384.13 89.09 C 384.32 89.32 384.70 89.78 384.90 90.01 C 385.17 103.67 384.88 117.36 385.03 131.04 C 384.80 132.30 385.56 134.22 384.06 134.90 C 379.04 135.18 374.02 134.91 369.00 135.00 C 369.00 119.67 369.00 104.33 369.00 89.00 Z" />
<path fill="#000000" opacity="1.00" d=" M 388.00 89.00 C 406.00 89.00 424.00 89.00 442.00 89.00 C 442.01 103.36 441.98 117.72 442.02 132.08 C 442.15 133.30 441.92 135.37 440.14 134.98 C 430.73 135.05 421.31 134.96 411.89 135.02 C 410.61 135.12 408.63 134.95 409.02 133.12 C 408.94 125.41 409.04 117.71 409.00 110.00 C 402.00 110.00 395.00 110.00 388.00 110.00 C 388.00 103.00 388.00 96.00 388.00 89.00 Z" />
<path fill="#000000" opacity="1.00" d=" M 826.09 89.85 C 826.30 89.67 826.73 89.29 826.95 89.10 C 831.68 88.86 836.44 89.02 841.20 89.02 C 842.93 88.63 843.12 90.73 843.02 91.90 C 842.96 105.63 843.05 119.37 842.98 133.10 C 843.35 134.92 841.37 135.15 840.10 135.02 C 830.38 134.90 820.65 135.16 810.94 134.90 C 810.73 134.67 810.32 134.21 810.11 133.98 C 810.12 127.18 809.49 120.08 810.43 113.45 C 815.38 112.36 820.85 113.32 826.00 113.00 C 826.08 105.28 825.85 97.56 826.09 89.85 Z" />
<path fill="#000000" opacity="1.00" d=" M 485.44 97.46 L 485.89 97.09 C 492.94 96.93 500.02 96.92 507.07 97.09 C 507.28 97.29 507.70 97.70 507.91 97.90 C 508.14 109.28 507.91 120.69 508.02 132.08 C 508.13 133.28 507.93 135.37 506.17 134.98 C 499.42 134.97 492.67 135.14 485.93 134.90 C 485.73 134.67 485.31 134.23 485.11 134.00 C 484.82 123.36 485.12 112.70 484.97 102.05 C 485.15 100.56 484.57 98.77 485.44 97.46 Z" />
<path fill="#000000" opacity="1.00" d=" M 667.46 112.46 C 672.55 111.61 678.38 111.80 683.62 112.37 C 684.45 119.48 683.89 126.84 683.90 134.04 C 683.71 134.26 683.32 134.69 683.13 134.91 C 678.05 135.08 672.96 135.09 667.89 134.91 C 667.69 134.70 667.29 134.29 667.10 134.08 C 666.92 127.03 666.93 119.95 667.09 112.89 L 667.46 112.46 Z" />
<path fill="#000000" opacity="1.00" d=" M 300.00 113.00 C 307.00 113.00 314.00 113.00 321.00 113.00 C 320.91 120.02 321.16 127.05 320.90 134.06 C 320.70 134.27 320.28 134.69 320.08 134.90 C 313.69 135.08 307.28 135.07 300.90 134.91 C 300.69 134.70 300.29 134.29 300.09 134.09 C 299.84 127.07 300.08 120.03 300.00 113.00 Z" />
<path fill="#000000" opacity="1.00" d=" M 388.00 113.00 C 394.00 113.00 400.00 113.00 406.00 113.00 C 405.92 120.04 406.15 127.08 405.91 134.12 C 405.69 134.31 405.27 134.71 405.05 134.90 C 399.69 135.08 394.30 135.09 388.94 134.90 C 388.73 134.67 388.32 134.23 388.11 134.01 C 387.82 127.01 388.09 120.00 388.00 113.00 Z" />
<path fill="#000000" opacity="1.00" d=" M 106.10 142.94 C 106.32 142.73 106.75 142.31 106.97 142.10 C 119.33 141.92 131.72 141.94 144.09 142.09 C 144.29 142.29 144.70 142.69 144.91 142.89 C 145.18 169.63 144.83 196.39 145.08 223.13 C 135.04 230.97 124.15 238.11 111.84 241.76 C 110.08 242.22 108.06 243.68 106.30 242.58 C 105.85 241.12 106.01 239.56 105.97 238.06 C 106.11 206.36 105.84 174.64 106.10 142.94 Z" />
<path fill="#000000" opacity="1.00" d=" M 148.09 142.88 C 148.30 142.68 148.72 142.29 148.93 142.10 C 159.30 141.85 169.70 142.09 180.09 141.98 C 181.29 141.83 183.33 142.07 182.98 143.82 C 183.04 158.24 182.98 172.66 183.00 187.08 C 179.59 190.27 176.68 194.06 172.72 196.63 C 168.92 199.51 166.26 203.68 162.21 206.27 C 157.44 209.57 154.56 215.29 148.91 217.36 C 148.09 216.07 147.87 214.55 147.97 213.05 C 148.11 189.66 147.85 166.26 148.09 142.88 Z" />
<path fill="#000000" opacity="1.00" d=" M 186.47 142.42 C 187.79 141.60 189.53 142.14 191.02 141.97 C 203.71 142.06 216.41 141.95 229.11 142.02 C 230.52 141.69 231.85 143.47 230.57 144.55 C 224.97 148.97 218.71 152.66 214.02 158.12 C 208.33 161.96 204.08 167.43 199.00 171.97 C 194.93 174.49 192.04 178.36 188.52 181.53 C 187.66 182.75 185.57 181.59 186.02 180.17 C 186.02 167.74 185.89 155.29 186.09 142.86 L 186.47 142.42 Z" />
<path fill="#000000" opacity="1.00" d=" M 279.00 156.00 C 290.33 156.00 301.67 156.00 313.00 156.00 C 313.00 160.67 313.00 165.33 313.00 170.00 C 301.67 170.00 290.33 170.00 279.00 170.00 C 279.00 165.33 279.00 160.67 279.00 156.00 Z" />
<path fill="#000000" opacity="1.00" d=" M 349.00 156.00 C 360.33 156.00 371.67 156.00 383.00 156.00 C 383.00 160.67 383.00 165.33 383.00 170.00 C 371.67 170.00 360.33 170.00 349.00 170.00 C 349.00 165.33 349.00 160.67 349.00 156.00 Z" />
<path fill="#000000" opacity="1.00" d=" M 419.00 156.00 C 430.33 156.00 441.67 156.00 453.00 156.00 C 453.00 160.67 453.00 165.33 453.00 170.00 C 441.67 170.00 430.33 170.00 419.00 170.00 C 419.00 165.33 419.00 160.67 419.00 156.00 Z" />
<path fill="#000000" opacity="1.00" d=" M 499.00 156.00 C 510.33 156.00 521.67 156.00 533.00 156.00 C 533.00 160.67 533.00 165.33 533.00 170.00 C 521.67 170.00 510.33 170.00 499.00 170.00 C 499.00 165.33 499.00 160.67 499.00 156.00 Z" />
<path fill="#000000" opacity="1.00" d=" M 569.00 156.00 C 580.33 156.00 591.67 156.00 603.00 156.00 C 603.00 160.67 603.00 165.33 603.00 170.00 C 591.66 170.00 580.33 170.00 569.00 170.00 C 569.00 165.33 569.00 160.67 569.00 156.00 Z" />
<path fill="#000000" opacity="1.00" d=" M 639.00 156.00 C 650.33 156.00 661.66 156.00 673.00 156.00 C 673.00 160.67 673.00 165.33 673.00 170.00 C 661.66 170.00 650.33 170.00 639.00 170.00 C 639.00 165.33 639.00 160.67 639.00 156.00 Z" />
<path fill="#000000" opacity="1.00" d=" M 709.00 156.00 C 720.33 156.00 731.66 156.00 743.00 156.00 C 743.00 160.67 743.00 165.33 743.00 170.00 C 731.66 170.00 720.33 170.00 709.00 170.00 C 709.00 165.33 709.00 160.67 709.00 156.00 Z" />
<path fill="#000000" opacity="1.00" d=" M 280.44 191.69 C 282.42 191.32 286.81 189.56 286.98 192.82 C 287.01 247.60 287.01 302.39 286.98 357.18 C 287.35 358.87 285.24 359.39 284.03 358.91 C 274.75 356.87 265.39 354.89 256.50 351.46 C 253.61 350.09 250.20 349.58 247.93 347.15 C 248.09 331.44 247.96 315.72 248.00 300.00 C 240.97 299.91 233.93 300.16 226.91 299.91 C 226.71 299.70 226.30 299.29 226.09 299.08 C 225.84 284.39 226.11 269.68 225.97 254.98 C 226.19 253.71 225.41 251.74 226.97 251.10 C 233.97 250.83 240.99 251.09 248.00 251.00 C 247.95 234.95 248.10 218.89 247.92 202.84 C 248.98 201.91 250.11 201.02 251.52 200.73 C 261.25 197.96 270.36 193.18 280.44 191.69 Z" />
<path fill="#000000" opacity="1.00" d=" M 290.49 191.43 C 295.11 190.47 300.24 191.13 305.05 191.10 C 305.26 191.30 305.69 191.71 305.91 191.91 C 306.07 201.29 306.07 210.70 305.90 220.08 C 305.68 220.29 305.24 220.69 305.01 220.90 C 300.35 221.09 295.67 221.10 291.01 220.89 C 290.78 220.69 290.33 220.29 290.10 220.09 C 289.92 210.68 289.94 201.25 290.09 191.85 L 290.49 191.43 Z" />
<path fill="#000000" opacity="1.00" d=" M 309.09 191.90 C 309.30 191.70 309.70 191.30 309.90 191.09 C 314.64 190.87 319.40 191.00 324.15 191.02 C 325.90 190.67 326.18 192.66 326.02 193.90 C 325.91 248.66 326.13 303.43 325.91 358.18 C 325.69 358.36 325.25 358.72 325.03 358.90 C 319.99 359.10 314.92 359.07 309.88 358.91 C 309.69 358.68 309.30 358.22 309.10 357.99 C 308.84 347.34 309.08 336.66 309.00 326.00 C 303.29 325.95 297.58 326.08 291.88 325.98 C 289.52 326.33 290.03 323.48 289.97 322.04 C 290.02 290.70 290.02 259.36 289.97 228.02 C 290.21 226.79 289.42 224.67 290.97 224.11 C 296.97 223.81 302.99 224.10 309.00 224.00 C 309.08 213.30 308.86 202.59 309.09 191.90 Z" />
<path fill="#000000" opacity="1.00" d=" M 329.47 191.45 C 334.05 190.45 339.21 191.12 344.00 191.11 C 344.22 191.32 344.67 191.73 344.89 191.94 C 345.07 210.30 345.07 228.70 344.90 247.07 C 344.67 247.28 344.22 247.69 344.00 247.89 C 339.31 248.11 334.60 248.08 329.91 247.91 C 329.71 247.70 329.30 247.29 329.10 247.08 C 328.93 228.69 328.94 210.27 329.09 191.88 L 329.47 191.45 Z" />
<path fill="#000000" opacity="1.00" d=" M 347.98 193.99 C 347.85 192.66 348.04 190.63 349.92 191.02 C 360.99 190.95 372.07 191.04 383.14 190.98 C 384.33 190.82 386.30 191.10 385.98 192.80 C 385.96 247.92 386.11 303.05 385.91 358.16 C 385.67 358.35 385.20 358.71 384.96 358.90 C 373.65 359.16 362.31 358.90 350.99 359.02 C 349.84 359.07 347.63 359.02 348.02 357.23 C 347.97 337.82 348.02 318.41 348.00 299.00 C 341.82 298.74 335.49 299.52 329.40 298.63 C 329.31 298.26 329.12 297.52 329.02 297.15 C 328.94 283.12 329.06 269.09 328.97 255.05 C 329.19 253.75 328.42 251.84 329.92 251.10 C 335.94 250.83 341.97 251.09 348.00 251.00 C 347.99 232.00 348.02 212.99 347.98 193.99 Z" />
<path fill="#000000" opacity="1.00" d=" M 389.46 191.46 L 389.90 191.09 C 401.94 190.85 414.00 191.09 426.05 190.98 C 427.29 190.83 429.31 191.06 428.98 192.84 C 429.04 247.26 428.96 301.69 429.02 356.12 C 429.25 357.43 428.84 359.30 427.08 358.98 C 414.98 359.02 402.88 359.02 390.78 358.98 C 389.07 359.30 388.82 357.28 388.98 356.10 C 389.01 302.04 389.01 247.98 388.98 193.91 C 389.10 193.30 389.34 192.07 389.46 191.46 Z" />
<path fill="#000000" opacity="1.00" d=" M 432.10 192.01 C 432.28 191.78 432.65 191.32 432.83 191.09 C 438.91 190.93 445.01 190.92 451.10 191.09 C 451.30 191.29 451.70 191.69 451.91 191.89 C 452.13 209.58 451.93 227.30 452.00 245.00 C 445.33 245.00 438.67 245.00 432.00 245.00 C 432.07 227.34 431.86 209.66 432.10 192.01 Z" />
<path fill="#000000" opacity="1.00" d=" M 569.41 191.38 C 570.83 190.71 572.48 191.08 574.01 190.97 C 583.73 191.06 593.45 190.94 603.17 191.02 C 604.94 190.63 605.12 192.74 605.02 193.94 C 604.91 220.32 605.14 246.71 604.91 273.09 C 604.70 273.30 604.30 273.70 604.10 273.91 C 593.36 274.14 582.61 273.91 571.87 274.02 C 570.66 274.15 568.64 273.90 569.02 272.16 C 568.95 246.77 569.05 221.38 568.97 195.99 C 569.10 194.47 568.65 192.76 569.41 191.38 Z" />
<path fill="#000000" opacity="1.00" d=" M 608.35 191.41 C 609.76 190.68 611.46 191.09 613.01 190.97 C 623.08 191.06 633.16 190.94 643.23 191.02 C 644.96 190.64 645.10 192.78 645.02 193.92 C 644.96 220.00 645.04 246.07 644.98 272.14 C 645.36 273.97 643.32 274.10 642.09 274.02 C 631.02 273.91 619.95 274.15 608.90 273.91 C 608.70 273.70 608.30 273.28 608.10 273.07 C 607.85 247.39 608.11 221.69 607.97 196.01 C 608.05 194.48 607.75 192.85 608.35 191.41 Z" />
<path fill="#000000" opacity="1.00" d=" M 648.43 191.50 C 652.99 190.35 658.29 191.25 663.13 191.02 C 665.49 190.68 664.94 193.52 665.03 194.97 C 664.88 204.67 665.17 214.39 664.90 224.09 C 664.66 224.29 664.19 224.69 663.96 224.89 C 658.99 225.10 653.99 225.09 649.02 224.90 C 648.79 224.71 648.32 224.33 648.09 224.14 C 647.84 214.77 648.11 205.38 647.97 196.01 C 648.15 194.54 647.57 192.78 648.43 191.50 Z" />
<path fill="#000000" opacity="1.00" d=" M 668.02 192.84 C 667.66 191.06 669.67 190.85 670.91 190.98 C 675.26 191.08 679.63 190.81 683.97 191.12 C 685.60 191.56 684.76 193.78 685.03 194.99 C 684.88 220.99 685.17 247.00 684.89 272.99 C 684.69 273.22 684.28 273.67 684.08 273.90 C 673.03 274.16 661.95 273.90 650.89 274.02 C 649.62 274.20 647.65 273.88 648.02 272.11 C 648.04 257.75 647.87 243.37 648.10 229.02 C 648.28 228.78 648.64 228.32 648.82 228.09 C 655.20 227.84 661.60 228.08 668.00 228.00 C 668.02 216.28 667.96 204.56 668.02 192.84 Z" />
<path fill="#000000" opacity="1.00" d=" M 688.10 191.94 C 688.30 191.73 688.70 191.31 688.90 191.09 C 699.57 190.84 710.25 191.11 720.93 190.97 C 722.45 191.12 724.20 190.63 725.61 191.42 C 726.30 192.82 725.90 194.50 726.03 196.02 C 725.95 237.75 726.04 279.48 725.98 321.20 C 726.36 322.97 724.21 323.10 723.05 323.02 C 717.37 323.01 711.68 322.99 706.00 323.00 C 705.92 334.68 706.15 346.36 705.90 358.03 C 705.71 358.25 705.32 358.69 705.13 358.91 C 700.05 359.12 694.97 358.99 689.89 358.98 C 688.11 359.36 687.80 357.36 687.98 356.12 C 688.09 301.39 687.86 246.66 688.10 191.94 Z" />
<path fill="#000000" opacity="1.00" d=" M 728.97 194.98 C 729.05 193.54 728.49 190.67 730.87 191.02 C 737.57 190.93 744.29 191.04 751.00 191.00 C 751.00 208.67 751.00 226.33 751.00 244.00 C 756.00 244.00 761.00 244.00 766.00 244.00 C 765.92 253.67 766.15 263.34 765.90 273.00 C 765.72 273.23 765.36 273.68 765.18 273.91 C 754.09 274.14 742.99 273.91 731.90 274.02 C 730.63 274.21 728.68 273.89 729.02 272.14 C 728.95 246.42 729.06 220.70 728.97 194.98 Z" />
<path fill="#000000" opacity="1.00" d=" M 754.00 191.00 C 758.00 191.00 762.00 191.00 766.00 191.00 C 766.00 207.67 766.00 224.33 766.00 241.00 C 762.00 241.00 758.00 241.00 754.00 241.00 C 754.00 224.33 754.00 207.67 754.00 191.00 Z" />
<path fill="#000000" opacity="1.00" d=" M 769.10 191.91 C 769.32 191.71 769.76 191.30 769.98 191.10 C 774.03 190.88 778.11 190.92 782.17 191.09 C 782.35 191.31 782.72 191.76 782.90 191.98 C 783.15 201.31 782.92 210.66 783.00 220.00 C 778.33 220.00 773.66 220.00 769.00 220.00 C 769.08 210.64 768.85 201.27 769.10 191.91 Z" />
<path fill="#000000" opacity="1.00" d=" M 87.09 197.84 C 87.31 197.66 87.75 197.29 87.98 197.10 C 92.65 196.91 97.35 196.90 102.02 197.10 C 102.24 197.30 102.68 197.71 102.90 197.91 C 103.15 212.62 102.91 227.35 103.02 242.07 C 103.19 243.33 102.91 245.32 101.13 244.98 C 96.41 244.81 91.56 245.57 86.92 244.45 C 87.17 228.92 86.82 213.37 87.09 197.84 Z" />
<path fill="#000000" opacity="1.00" d=" M 226.05 213.62 C 232.29 210.65 237.89 206.48 244.21 203.68 C 245.23 205.65 245.03 207.89 245.02 210.04 C 244.90 222.40 245.15 234.77 244.91 247.12 C 244.70 247.32 244.28 247.71 244.07 247.90 C 238.66 248.13 233.23 247.98 227.82 247.98 C 226.10 248.29 225.80 246.35 225.98 245.13 C 226.04 234.62 225.93 224.12 226.05 213.62 Z" />
<path fill="#000000" opacity="1.00" d=" M 208.96 226.88 C 212.77 223.21 217.47 220.54 221.12 216.72 C 222.58 217.23 223.38 218.28 223.02 219.88 C 222.90 237.59 223.16 255.32 222.89 273.02 C 222.68 273.24 222.27 273.68 222.06 273.90 C 217.86 273.95 213.53 274.40 209.40 273.65 C 208.70 272.19 209.08 270.49 208.97 268.94 C 209.01 254.92 209.03 240.90 208.96 226.88 Z" />
<path fill="#000000" opacity="1.00" d=" M 769.00 223.00 C 773.66 223.00 778.33 223.00 783.00 223.00 C 783.00 229.00 783.00 235.00 783.00 241.00 C 778.33 241.00 773.66 241.00 769.00 241.00 C 769.00 235.00 769.00 229.00 769.00 223.00 Z" />
<path fill="#000000" opacity="1.00" d=" M 195.48 241.42 C 197.91 237.90 200.81 234.75 204.08 231.98 C 206.49 231.62 205.95 234.49 206.03 235.99 C 205.89 248.36 206.15 260.75 205.91 273.12 C 205.70 273.31 205.28 273.71 205.07 273.91 C 200.33 274.13 195.57 273.99 190.82 273.98 C 189.08 274.30 188.81 272.30 188.98 271.07 C 189.04 263.73 188.93 256.38 189.06 249.04 C 190.96 246.30 192.99 243.65 195.48 241.42 Z" />
<path fill="#000000" opacity="1.00" d=" M 146.00 239.00 C 154.00 239.00 162.00 239.00 170.00 239.00 C 170.00 243.33 170.00 247.66 170.00 252.00 C 162.00 252.00 154.00 252.00 146.00 252.00 C 146.00 247.67 146.00 243.33 146.00 239.00 Z" />
<path fill="#000000" opacity="1.00" d=" M 769.00 244.00 C 773.66 244.00 778.33 244.00 783.00 244.00 C 782.92 253.69 783.15 263.38 782.90 273.06 C 782.70 273.27 782.29 273.69 782.09 273.91 C 778.01 274.10 773.90 274.08 769.82 273.91 C 769.64 273.69 769.28 273.23 769.10 273.01 C 768.84 263.35 769.08 253.67 769.00 244.00 Z" />
<path fill="#000000" opacity="1.00" d=" M 432.00 248.00 C 438.67 248.00 445.33 248.00 452.00 248.00 C 452.00 266.00 452.00 284.00 452.00 302.00 C 445.33 302.00 438.67 302.00 432.00 302.00 C 432.00 284.00 432.00 266.00 432.00 248.00 Z" />
<path fill="#000000" opacity="1.00" d=" M 182.61 258.37 C 183.19 257.09 185.19 256.23 185.91 257.89 C 186.17 263.25 185.91 268.63 186.00 274.00 C 181.70 274.00 177.41 274.01 173.12 273.99 C 176.31 268.80 179.72 263.75 182.61 258.37 Z" />
<path fill="#000000" opacity="1.00" d=" M 174.10 277.02 C 178.07 276.98 182.03 277.01 186.00 277.00 C 185.98 281.70 186.03 286.41 186.02 291.11 C 186.38 292.76 185.45 294.01 183.86 294.37 C 181.00 288.37 177.51 282.71 174.10 277.02 Z" />
<path fill="#000000" opacity="1.00" d=" M 189.10 277.94 C 189.31 277.73 189.74 277.31 189.95 277.10 C 194.95 276.92 199.98 276.89 204.98 277.11 C 205.21 277.32 205.67 277.73 205.89 277.94 C 206.17 289.95 205.88 301.99 206.03 314.01 C 205.93 315.50 206.50 318.33 204.12 318.02 C 200.47 315.57 198.69 311.37 195.45 308.51 C 193.62 306.76 191.83 304.98 190.13 303.11 C 188.18 294.88 189.17 286.33 189.10 277.94 Z" />
<path fill="#000000" opacity="1.00" d=" M 209.09 277.88 C 209.32 277.69 209.79 277.30 210.02 277.10 C 213.99 276.90 217.99 276.88 221.96 277.11 C 223.62 277.56 222.77 279.76 223.03 280.98 C 222.98 296.67 222.98 312.35 223.03 328.04 C 222.88 329.56 223.36 331.30 222.55 332.69 C 220.49 333.89 219.45 330.96 217.89 330.13 C 215.07 328.35 212.96 325.60 209.93 324.16 C 210.63 320.69 208.70 317.50 208.96 314.05 C 209.12 302.00 208.84 289.93 209.09 277.88 Z" />
<path fill="#000000" opacity="1.00" d=" M 569.44 277.49 L 569.85 277.09 C 580.60 276.86 591.36 277.09 602.11 276.98 C 603.32 276.86 605.33 277.06 604.98 278.83 C 604.99 284.60 605.11 290.39 604.91 296.17 C 604.69 296.35 604.23 296.72 604.01 296.90 C 592.94 297.13 581.85 296.96 570.77 296.98 C 568.13 297.09 569.20 293.62 568.97 292.00 C 569.33 287.20 568.36 282.09 569.44 277.49 Z" />
<path fill="#000000" opacity="1.00" d=" M 608.48 277.45 C 613.08 276.45 618.24 277.13 623.05 277.10 C 623.26 277.31 623.69 277.73 623.90 277.94 C 624.16 303.63 623.89 329.34 624.03 355.03 C 623.78 356.27 624.58 358.30 623.02 358.90 C 618.36 359.09 613.67 359.10 609.01 358.89 C 608.78 358.69 608.33 358.29 608.10 358.08 C 607.84 332.73 608.11 307.37 607.97 282.01 C 608.19 280.54 607.49 278.66 608.48 277.45 Z" />
<path fill="#000000" opacity="1.00" d=" M 627.42 277.47 L 627.89 277.09 C 639.30 276.85 650.74 277.09 662.16 276.98 C 663.39 276.78 665.30 277.14 664.98 278.85 C 665.04 304.60 664.96 330.35 665.02 356.10 C 665.19 357.33 664.90 359.30 663.17 358.98 C 651.45 358.96 639.71 359.12 627.99 358.90 C 627.77 358.71 627.32 358.33 627.09 358.14 C 626.86 332.75 627.10 307.35 626.97 281.96 C 627.13 280.49 626.60 278.77 627.42 277.47 Z" />
<path fill="#000000" opacity="1.00" d=" M 668.46 277.44 C 673.42 276.46 678.90 277.13 684.04 277.10 C 684.26 277.29 684.69 277.67 684.91 277.86 C 685.14 303.23 684.90 328.61 685.03 353.98 C 684.90 355.51 685.29 357.20 684.61 358.63 C 681.17 359.49 677.51 358.77 673.99 359.02 C 672.16 358.86 670.10 359.42 668.44 358.58 C 667.57 357.26 668.14 355.48 667.97 353.98 C 668.03 329.29 668.00 304.60 667.98 279.90 C 668.10 279.29 668.34 278.06 668.46 277.44 Z" />
<path fill="#000000" opacity="1.00" d=" M 729.10 277.95 C 729.29 277.73 729.67 277.30 729.86 277.09 C 740.93 276.86 752.01 277.09 763.08 276.98 C 764.33 276.85 766.33 277.06 765.98 278.85 C 765.98 285.25 766.12 291.66 765.90 298.06 C 765.71 298.27 765.33 298.70 765.13 298.91 C 758.76 299.16 752.38 298.91 746.00 299.00 C 745.93 318.67 746.14 338.35 745.90 358.00 C 745.71 358.23 745.32 358.68 745.12 358.91 C 740.36 359.12 735.58 359.00 730.82 358.98 C 729.05 359.33 728.84 357.29 728.98 356.08 C 729.09 330.04 728.86 303.98 729.10 277.95 Z" />
<path fill="#000000" opacity="1.00" d=" M 769.47 277.45 C 773.12 276.40 777.35 277.22 781.22 277.02 C 783.46 276.73 782.94 279.59 783.03 280.97 C 782.68 286.83 783.58 292.88 782.59 298.62 C 779.51 299.48 776.16 298.81 772.98 299.03 C 771.58 298.95 768.70 299.47 769.02 297.19 C 769.02 290.76 768.87 284.32 769.09 277.89 L 769.47 277.45 Z" />
<path fill="#000000" opacity="1.00" d=" M 828.98 279.88 C 828.84 278.69 829.08 276.61 830.84 277.02 C 880.26 276.96 929.69 277.04 979.11 276.98 C 980.34 276.79 982.28 277.10 981.98 278.82 C 982.04 328.24 981.96 377.66 982.02 427.07 C 982.13 428.25 981.93 430.35 980.19 429.98 C 952.09 430.08 923.98 429.88 895.89 430.08 C 888.68 420.39 882.87 409.74 876.08 399.76 C 865.86 383.38 855.30 367.21 845.07 350.83 C 839.67 342.59 834.77 333.99 829.04 325.98 C 828.93 310.61 829.05 295.25 828.98 279.88 Z" />
<path fill="#000000" opacity="1.00" d=" M 569.46 300.45 L 569.91 300.09 C 581.30 299.93 592.72 299.93 604.12 300.09 C 604.31 300.30 604.71 300.71 604.90 300.91 C 605.12 308.31 604.97 315.74 604.98 323.15 C 605.34 324.91 603.30 325.17 602.08 325.02 C 591.34 324.91 580.59 325.14 569.86 324.91 C 569.67 324.70 569.29 324.27 569.10 324.05 C 568.92 316.35 568.92 308.62 569.09 300.92 L 569.46 300.45 Z" />
<path fill="#000000" opacity="1.00" d=" M 329.38 302.48 C 332.99 301.34 337.18 302.31 341.01 301.97 C 342.43 302.06 345.31 301.49 344.98 303.85 C 345.02 321.61 345.01 339.37 344.98 357.13 C 345.36 358.96 343.30 359.12 342.06 359.02 C 338.01 358.95 333.96 359.16 329.92 358.90 C 328.46 358.18 329.18 356.26 328.97 355.01 C 329.02 339.00 329.02 323.00 328.97 307.00 C 329.09 305.51 328.67 303.84 329.38 302.48 Z" />
<path fill="#000000" opacity="1.00" d=" M 749.44 302.39 C 754.50 301.54 759.89 302.09 765.07 302.10 C 765.28 302.31 765.69 302.74 765.90 302.96 C 766.07 321.32 766.06 339.71 765.90 358.08 C 765.70 358.28 765.30 358.70 765.10 358.91 C 760.07 359.07 755.01 359.10 749.99 358.90 C 749.77 358.71 749.32 358.32 749.09 358.13 C 748.85 341.09 749.10 324.03 748.97 306.99 C 749.13 305.48 748.58 303.72 749.44 302.39 Z" />
<path fill="#000000" opacity="1.00" d=" M 769.35 302.42 C 773.57 301.69 778.33 301.71 782.57 302.39 C 783.52 308.77 782.85 315.57 782.91 322.10 C 782.70 322.30 782.30 322.71 782.10 322.91 C 778.07 323.08 774.02 323.11 770.00 322.90 C 769.77 322.70 769.32 322.31 769.10 322.11 C 769.08 315.57 768.59 308.89 769.35 302.42 Z" />
<path fill="#000000" opacity="1.00" d=" M 226.10 303.98 C 226.30 303.76 226.69 303.31 226.88 303.09 C 232.62 302.92 238.38 302.92 244.11 303.09 C 244.31 303.31 244.71 303.74 244.90 303.95 C 245.16 316.63 244.89 329.32 245.03 342.01 C 244.95 343.50 245.48 346.47 243.02 346.02 C 236.66 344.14 232.11 338.76 225.99 336.31 C 226.09 325.53 225.84 314.74 226.10 303.98 Z" />
<path fill="#000000" opacity="1.00" d=" M 30.44 305.48 L 30.86 305.09 C 39.26 304.94 47.69 304.92 56.10 305.09 C 56.30 305.31 56.70 305.75 56.90 305.97 C 57.10 311.01 57.08 316.07 56.91 321.11 C 56.69 321.31 56.26 321.71 56.05 321.90 C 47.68 322.07 39.29 322.07 30.92 321.90 C 30.72 321.69 30.30 321.27 30.10 321.06 C 30.13 315.91 29.47 310.45 30.44 305.48 Z" />
<path fill="#000000" opacity="1.00" d=" M 60.41 305.45 L 60.92 305.10 C 68.29 304.92 75.69 304.93 83.06 305.09 C 83.28 305.30 83.70 305.71 83.91 305.91 C 84.09 310.98 84.08 316.07 83.91 321.14 C 83.69 321.33 83.25 321.71 83.03 321.90 C 75.69 322.07 68.32 322.09 60.99 321.89 C 60.77 321.68 60.33 321.25 60.11 321.03 C 60.10 315.88 59.51 310.46 60.41 305.45 Z" />
<path fill="#000000" opacity="1.00" d=" M 87.36 305.44 C 91.62 304.52 96.32 305.01 100.71 305.19 C 104.78 307.00 109.33 306.98 113.40 308.78 C 121.79 310.92 128.62 316.46 136.43 319.95 C 135.95 321.46 134.71 322.36 133.10 322.02 C 118.02 321.92 102.92 322.14 87.84 321.91 C 87.65 321.67 87.29 321.19 87.10 320.96 C 87.07 315.81 86.58 310.50 87.36 305.44 Z" />
<path fill="#000000" opacity="1.00" d=" M 432.00 305.00 C 438.67 305.00 445.33 305.00 452.00 305.00 C 451.93 322.68 452.14 340.36 451.90 358.03 C 451.71 358.25 451.33 358.69 451.14 358.91 C 445.08 359.07 439.00 359.09 432.95 358.90 C 432.73 358.70 432.31 358.30 432.09 358.10 C 431.87 340.41 432.07 322.70 432.00 305.00 Z" />
<path fill="#000000" opacity="1.00" d=" M 29.98 327.88 C 29.81 326.66 30.09 324.71 31.80 325.02 C 68.55 324.98 105.31 324.99 142.06 325.02 C 143.41 326.61 145.15 327.78 146.97 328.77 C 147.02 393.26 147.01 457.75 146.98 522.23 C 147.34 523.95 145.23 524.12 144.07 524.02 C 107.71 523.99 71.34 523.97 34.97 524.03 C 33.47 523.87 31.77 524.35 30.41 523.59 C 29.55 521.56 30.14 519.18 29.99 517.02 C 30.00 453.97 30.02 390.93 29.98 327.88 Z" />
<path fill="#000000" opacity="1.00" d=" M 769.40 326.44 C 773.39 325.46 777.87 326.12 782.04 326.10 C 782.26 326.30 782.69 326.69 782.91 326.89 C 783.16 336.27 782.89 345.67 783.03 355.05 C 782.84 356.33 783.44 358.04 782.16 358.91 C 778.09 359.08 773.99 359.11 769.93 358.90 C 769.72 358.68 769.31 358.24 769.10 358.02 C 768.82 349.04 769.12 340.04 768.97 331.05 C 769.10 329.53 768.64 327.82 769.40 326.44 Z" />
<path fill="#000000" opacity="1.00" d=" M 568.97 332.00 C 569.17 330.73 568.47 328.83 569.91 328.10 C 575.59 327.82 581.30 328.09 587.00 328.00 C 587.00 338.33 587.00 348.67 587.00 359.00 C 581.31 358.91 575.61 359.17 569.93 358.90 C 569.72 358.70 569.30 358.29 569.10 358.08 C 568.83 349.40 569.11 340.69 568.97 332.00 Z" />
<path fill="#000000" opacity="1.00" d=" M 590.00 328.00 C 594.69 328.09 599.40 327.82 604.09 328.09 C 604.29 328.30 604.70 328.70 604.91 328.90 C 605.16 337.61 604.89 346.32 605.03 355.04 C 604.80 356.29 605.55 358.21 604.06 358.90 C 599.38 359.18 594.68 358.91 590.00 359.00 C 590.00 348.67 590.00 338.33 590.00 328.00 Z" />
<path fill="#000000" opacity="1.00" d=" M 709.44 328.45 C 714.09 327.40 719.29 328.23 724.15 328.02 C 725.97 327.65 726.12 329.72 726.02 330.97 C 725.90 339.98 726.16 349.01 725.90 358.01 C 725.70 358.24 725.30 358.68 725.10 358.90 C 720.05 359.08 714.97 359.10 709.93 358.90 C 709.72 358.69 709.31 358.27 709.10 358.06 C 708.82 349.72 709.12 341.36 708.97 333.01 C 709.14 331.53 708.57 329.75 709.44 328.45 Z" />
<path fill="#000000" opacity="1.00" d=" M 290.44 329.44 C 294.79 328.42 299.63 329.22 304.16 329.02 C 305.97 328.64 306.11 330.70 306.02 331.93 C 305.92 340.68 306.14 349.43 305.91 358.17 C 305.68 358.35 305.23 358.72 305.00 358.90 C 300.16 358.90 295.10 359.48 290.38 358.59 C 289.46 352.52 290.27 346.19 290.00 340.02 C 290.27 336.53 289.38 332.74 290.44 329.44 Z" />
<path fill="#000000" opacity="1.00" d=" M 149.94 334.71 C 150.45 334.49 151.46 334.05 151.97 333.82 C 154.95 336.96 157.94 340.09 161.57 342.49 C 168.93 349.77 176.19 357.16 183.55 364.44 C 191.97 370.17 197.55 379.29 206.05 384.85 C 205.92 401.29 206.06 417.75 205.98 434.20 C 206.38 435.97 204.23 436.09 203.07 436.02 C 186.35 435.99 169.63 435.99 152.91 436.02 C 151.66 436.15 149.65 435.92 150.02 434.13 C 149.93 400.99 150.09 367.85 149.94 334.71 Z" />
<path fill="#000000" opacity="1.00" d=" M 829.02 335.79 C 828.54 334.04 831.37 333.17 831.87 335.01 C 848.27 361.56 865.34 387.69 881.82 414.18 C 885.02 418.44 887.33 423.27 890.46 427.59 C 891.84 429.89 894.13 431.97 894.00 434.88 C 894.00 464.58 894.00 494.29 894.00 524.00 C 873.31 524.01 852.63 523.97 831.94 524.02 C 830.74 524.12 828.64 523.96 829.02 522.19 C 828.99 460.06 828.99 397.92 829.02 335.79 Z" />
<path fill="#000000" opacity="1.00" d=" M 219.00 363.00 C 227.00 363.00 235.00 363.00 243.00 363.00 C 243.00 367.33 243.00 371.66 243.00 376.00 C 235.00 376.00 227.00 376.00 219.00 376.00 C 219.00 371.66 219.00 367.33 219.00 363.00 Z" />
<path fill="#000000" opacity="1.00" d=" M 569.00 380.00 C 580.33 380.00 591.66 380.00 603.00 380.00 C 603.00 384.67 603.00 389.33 603.00 394.00 C 591.67 394.00 580.33 394.00 569.00 394.00 C 569.00 389.33 569.00 384.67 569.00 380.00 Z" />
<path fill="#000000" opacity="1.00" d=" M 639.00 380.00 C 650.33 380.00 661.66 380.00 673.00 380.00 C 673.00 384.67 673.00 389.33 673.00 394.00 C 661.67 394.00 650.33 394.00 639.00 394.00 C 639.00 389.33 639.00 384.67 639.00 380.00 Z" />
<path fill="#000000" opacity="1.00" d=" M 709.00 380.00 C 720.33 380.00 731.66 380.00 743.00 380.00 C 743.00 384.67 743.00 389.33 743.00 394.00 C 731.67 394.00 720.33 394.00 709.00 394.00 C 708.99 389.33 709.00 384.67 709.00 380.00 Z" />
<path fill="#000000" opacity="1.00" d=" M 779.00 380.00 C 790.33 380.00 801.66 380.00 813.00 380.00 C 813.00 384.67 813.00 389.33 813.00 394.00 C 801.66 394.00 790.33 394.00 779.00 394.00 C 778.99 389.33 779.00 384.67 779.00 380.00 Z" />
<path fill="#000000" opacity="1.00" d=" M 209.10 390.93 C 211.29 388.08 213.93 391.95 215.59 393.47 C 219.12 395.84 222.07 398.87 225.00 401.92 C 224.92 412.97 225.16 424.03 224.90 435.08 C 224.67 435.28 224.21 435.69 223.98 435.89 C 219.33 436.10 214.65 436.09 210.00 435.89 C 209.77 435.68 209.33 435.27 209.10 435.06 C 208.92 420.36 208.94 405.63 209.10 390.93 Z" />
<path fill="#000000" opacity="1.00" d=" M 228.02 406.90 C 227.60 404.83 230.44 404.33 231.57 405.59 C 236.96 410.56 244.02 413.28 251.08 414.88 C 257.38 415.29 263.73 414.72 270.04 415.10 C 270.26 415.31 270.69 415.72 270.90 415.93 C 271.15 450.25 270.89 484.59 271.03 518.92 C 270.88 520.46 271.36 522.22 270.58 523.64 C 269.16 524.25 267.54 523.93 266.04 524.03 C 227.97 523.94 189.91 524.05 151.84 523.98 C 150.08 524.32 149.82 522.30 149.98 521.08 C 150.04 494.34 149.95 467.61 150.02 440.87 C 149.63 439.02 151.68 438.88 152.95 438.98 C 177.97 439.02 202.98 438.99 228.00 439.00 C 228.03 428.30 227.95 417.60 228.02 406.90 Z" />
<path fill="#000000" opacity="1.00" d=" M 274.00 415.00 C 283.67 415.00 293.33 415.00 303.00 415.00 C 303.00 451.33 303.00 487.67 303.00 524.00 C 293.33 524.00 283.67 524.00 274.00 524.00 C 274.00 487.67 274.00 451.33 274.00 415.00 Z" />
<path fill="#000000" opacity="1.00" d=" M 306.00 415.00 C 311.67 415.00 317.33 415.00 323.00 415.00 C 323.00 451.33 323.00 487.67 323.00 524.00 C 317.33 524.00 311.67 524.00 306.00 524.00 C 306.00 487.67 306.00 451.33 306.00 415.00 Z" />
<path fill="#000000" opacity="1.00" d=" M 326.00 415.00 C 331.67 415.00 337.33 415.00 343.00 415.00 C 343.00 451.33 343.00 487.67 343.00 524.00 C 337.33 524.00 331.67 524.00 326.00 524.00 C 326.00 487.67 326.00 451.33 326.00 415.00 Z" />
<path fill="#000000" opacity="1.00" d=" M 346.00 415.00 C 351.04 415.04 356.07 414.92 361.11 415.02 C 362.85 414.68 363.23 416.59 363.02 417.88 C 362.91 452.96 363.14 488.05 362.91 523.13 C 362.69 523.32 362.26 523.71 362.04 523.90 C 356.70 524.18 351.35 523.91 346.00 524.00 C 346.00 487.67 346.00 451.33 346.00 415.00 Z" />
<path fill="#000000" opacity="1.00" d=" M 366.41 415.45 C 371.74 414.45 377.56 415.14 383.07 415.10 C 383.27 415.32 383.69 415.75 383.90 415.96 C 384.18 424.62 383.88 433.30 384.03 441.96 C 383.80 443.23 384.55 445.17 383.08 445.90 C 377.69 446.08 372.28 446.09 366.90 445.90 C 366.70 445.69 366.30 445.25 366.10 445.03 C 365.82 436.72 366.12 428.39 365.97 420.07 C 366.13 418.55 365.61 416.81 366.41 415.45 Z" />
<path fill="#000000" opacity="1.00" d=" M 387.10 415.94 C 387.32 415.73 387.76 415.31 387.97 415.10 C 405.65 414.84 423.35 415.10 441.04 414.98 C 442.31 414.89 444.35 415.00 443.98 416.87 C 444.05 426.91 443.97 436.96 444.00 447.00 C 450.67 447.00 457.33 446.99 464.00 447.00 C 464.00 472.67 464.00 498.33 464.00 524.00 C 431.63 523.94 399.26 524.13 366.90 523.90 C 366.70 523.69 366.30 523.26 366.10 523.04 C 365.85 499.69 366.11 476.31 365.97 452.95 C 366.18 451.67 365.43 449.78 366.94 449.10 C 373.62 448.83 380.31 449.09 387.00 449.00 C 387.08 437.98 386.84 426.95 387.10 415.94 Z" />
<path fill="#000000" opacity="1.00" d=" M 447.48 415.43 C 452.15 414.43 457.29 415.23 462.14 415.02 C 463.94 414.65 464.15 416.71 464.02 417.95 C 463.90 426.31 464.16 434.69 463.90 443.05 C 463.69 443.26 463.27 443.69 463.06 443.90 C 458.02 444.09 452.95 444.08 447.92 443.91 C 447.71 443.70 447.30 443.29 447.09 443.08 C 446.93 434.02 446.93 424.93 447.09 415.87 L 447.48 415.43 Z" />
<path fill="#000000" opacity="1.00" d=" M 467.10 415.94 C 467.29 415.73 467.69 415.30 467.88 415.09 C 472.62 414.87 477.37 415.00 482.11 415.02 C 483.97 414.62 484.09 416.65 484.02 417.93 C 484.00 432.64 483.97 447.36 484.03 462.08 C 483.81 463.33 484.54 465.20 483.07 465.90 C 477.72 466.17 472.36 465.91 467.00 466.00 C 467.07 449.31 466.86 432.62 467.10 415.94 Z" />
<path fill="#000000" opacity="1.00" d=" M 487.49 415.39 C 493.87 414.52 500.60 415.12 507.10 415.09 C 507.30 415.30 507.70 415.72 507.90 415.92 C 508.15 424.30 507.91 432.68 508.02 441.06 C 508.11 442.28 507.95 444.39 506.13 443.98 C 500.06 443.97 493.97 444.13 487.91 443.90 C 487.71 443.67 487.31 443.21 487.11 442.98 C 486.83 434.62 487.10 426.25 486.98 417.88 C 487.11 417.26 487.37 416.02 487.49 415.39 Z" />
<path fill="#000000" opacity="1.00" d=" M 551.10 415.92 C 551.33 415.71 551.80 415.31 552.03 415.11 C 556.70 414.89 561.40 414.91 566.08 415.10 C 566.29 415.32 566.69 415.77 566.90 415.99 C 567.15 427.32 566.92 438.66 567.00 450.00 C 561.66 450.00 556.33 450.00 551.00 450.00 C 551.08 438.64 550.85 427.27 551.10 415.92 Z" />
<path fill="#000000" opacity="1.00" d=" M 570.47 415.46 L 570.93 415.09 C 581.26 414.84 591.62 415.11 601.97 414.97 C 603.49 415.07 605.15 414.71 606.59 415.38 C 607.33 416.78 606.89 418.48 607.03 420.01 C 606.89 454.35 607.16 488.70 606.89 523.03 C 606.68 523.25 606.24 523.68 606.02 523.89 C 595.69 524.18 585.34 523.87 575.01 524.03 C 573.48 523.95 571.88 524.20 570.43 523.67 C 569.65 522.25 570.10 520.52 569.97 518.98 C 570.03 485.30 570.01 451.62 569.98 417.94 C 570.10 417.32 570.34 416.08 570.47 415.46 Z" />
<path fill="#000000" opacity="1.00" d=" M 610.45 415.44 C 611.73 414.57 613.49 415.15 614.96 414.97 C 623.67 415.07 632.38 414.93 641.09 415.02 C 642.95 414.63 643.13 416.64 643.02 417.96 C 642.91 453.01 643.14 488.08 642.91 523.13 C 642.70 523.32 642.27 523.71 642.06 523.90 C 633.04 524.17 624.01 523.88 614.99 524.03 C 613.46 523.85 611.70 524.39 610.36 523.55 C 609.68 521.80 610.07 519.84 609.98 518.02 C 610.02 485.69 610.01 453.35 609.98 421.02 C 610.17 419.20 609.49 417.05 610.45 415.44 Z" />
<path fill="#000000" opacity="1.00" d=" M 646.00 415.00 C 649.66 415.00 653.33 415.00 657.00 415.00 C 657.00 419.00 657.00 423.00 657.00 427.00 C 653.33 427.00 649.66 427.00 646.00 427.00 C 645.99 423.00 645.99 419.00 646.00 415.00 Z" />
<path fill="#000000" opacity="1.00" d=" M 668.00 415.00 C 671.66 415.00 675.33 415.00 679.00 415.00 C 679.00 419.00 679.00 423.00 679.00 427.00 C 675.33 427.00 671.66 427.00 668.00 427.00 C 667.99 423.00 667.99 419.00 668.00 415.00 Z" />
<path fill="#000000" opacity="1.00" d=" M 771.40 415.40 C 775.17 414.49 779.27 415.16 783.18 415.02 C 784.93 414.66 785.14 416.71 785.02 417.93 C 784.91 424.32 785.15 430.72 784.91 437.11 C 784.71 437.31 784.30 437.71 784.10 437.91 C 780.01 438.10 775.90 438.08 771.81 437.91 C 770.27 436.42 771.24 433.95 770.98 432.05 C 771.30 426.52 770.42 420.81 771.40 415.40 Z" />
<path fill="#000000" opacity="1.00" d=" M 788.42 415.50 L 788.82 415.09 C 800.26 414.86 811.70 415.08 823.14 414.98 C 824.27 414.86 826.36 415.08 825.98 416.78 C 826.04 451.53 825.96 486.28 826.02 521.03 C 826.14 522.22 825.96 524.31 824.21 523.98 C 812.77 524.01 801.32 524.02 789.89 523.98 C 788.08 524.34 787.82 522.36 787.98 521.09 C 788.03 488.70 787.99 456.32 788.00 423.93 C 788.21 421.16 787.44 418.10 788.42 415.50 Z" />
<path fill="#000000" opacity="1.00" d=" M 646.00 430.00 C 649.66 430.00 653.33 430.00 657.00 430.00 C 657.00 434.33 657.00 438.66 657.00 443.00 C 653.33 443.00 649.66 443.00 646.00 443.00 C 646.00 438.66 646.00 434.33 646.00 430.00 Z" />
<path fill="#000000" opacity="1.00" d=" M 668.00 430.00 C 671.66 430.00 675.33 429.99 679.00 430.00 C 679.00 434.33 679.00 438.66 679.00 443.00 C 675.33 443.00 671.66 443.00 668.00 443.00 C 668.00 438.66 668.00 434.33 668.00 430.00 Z" />
<path fill="#000000" opacity="1.00" d=" M 897.00 433.00 C 924.37 432.99 951.74 433.03 979.10 432.98 C 980.36 432.77 982.31 433.12 981.98 434.89 C 981.95 464.25 982.13 493.63 981.90 522.99 C 981.70 523.21 981.31 523.67 981.11 523.90 C 953.08 524.13 925.04 523.93 897.00 524.00 C 897.00 493.67 897.00 463.33 897.00 433.00 Z" />
<path fill="#000000" opacity="1.00" d=" M 771.51 441.42 C 775.21 440.45 779.36 441.19 783.23 441.02 C 784.93 440.69 785.14 442.71 785.02 443.90 C 784.91 470.30 785.14 496.71 784.91 523.11 C 784.70 523.31 784.28 523.71 784.07 523.91 C 780.03 524.10 775.97 524.09 771.93 523.90 C 771.72 523.69 771.31 523.27 771.10 523.05 C 770.84 497.38 771.10 471.68 770.97 445.99 C 771.22 444.53 770.43 442.56 771.51 441.42 Z" />
<path fill="#000000" opacity="1.00" d=" M 646.00 446.00 C 649.66 445.99 653.33 446.00 657.00 446.00 C 657.00 449.66 657.00 453.33 657.00 457.00 C 653.33 457.00 649.66 457.00 646.00 457.00 C 645.99 453.33 645.99 449.67 646.00 446.00 Z" />
<path fill="#000000" opacity="1.00" d=" M 487.40 447.51 L 487.83 447.09 C 494.22 446.94 500.62 446.90 507.01 447.10 C 507.23 447.31 507.68 447.71 507.90 447.92 C 508.08 453.62 508.08 459.35 507.90 465.06 C 507.71 465.27 507.34 465.70 507.15 465.91 C 500.59 465.89 493.87 466.44 487.39 465.63 C 486.48 462.22 487.23 458.56 487.00 455.06 C 487.17 452.57 486.50 449.84 487.40 447.51 Z" />
<path fill="#000000" opacity="1.00" d=" M 551.00 453.00 C 556.33 453.00 561.66 453.00 567.00 453.00 C 566.91 457.03 567.18 461.08 566.91 465.11 C 566.70 465.31 566.30 465.71 566.10 465.91 C 561.40 466.07 556.68 466.11 552.00 465.89 C 551.77 465.69 551.33 465.28 551.10 465.08 C 550.80 461.06 551.09 457.02 551.00 453.00 Z" />
<path fill="#000000" opacity="1.00" d=" M 468.10 469.99 C 468.28 469.77 468.63 469.31 468.81 469.09 C 480.89 468.86 492.99 469.08 505.08 468.98 C 506.37 468.87 508.37 469.04 507.98 470.91 C 508.06 479.27 507.97 487.63 508.00 496.00 C 494.67 496.00 481.33 496.00 468.00 496.00 C 468.08 487.33 467.84 478.65 468.10 469.99 Z" />
<path fill="#000000" opacity="1.00" d=" M 551.45 469.47 C 556.05 468.43 561.25 469.14 566.07 469.10 C 566.28 469.32 566.69 469.77 566.90 469.99 C 567.09 476.69 567.07 483.42 566.91 490.12 C 566.68 490.32 566.23 490.71 566.01 490.90 C 561.31 491.10 556.59 491.08 551.90 490.90 C 551.70 490.68 551.30 490.23 551.10 490.01 C 550.91 483.32 550.93 476.60 551.09 469.91 L 551.45 469.47 Z" />
<path fill="#000000" opacity="1.00" d=" M 673.41 472.46 C 677.41 471.39 681.97 472.23 686.18 472.01 C 687.95 471.61 688.12 473.76 688.02 474.94 C 687.91 491.00 688.14 507.08 687.91 523.13 C 687.70 523.32 687.28 523.71 687.07 523.90 C 682.69 524.09 678.29 524.09 673.92 523.91 C 673.72 523.69 673.30 523.26 673.10 523.05 C 672.84 507.72 673.11 492.37 672.97 477.04 C 673.12 475.53 672.61 473.80 673.41 472.46 Z" />
<path fill="#000000" opacity="1.00" d=" M 691.43 472.41 C 695.48 471.47 699.89 472.18 704.08 472.02 C 705.91 471.63 706.16 473.64 706.02 474.94 C 706.00 489.97 705.97 504.99 706.03 520.02 C 705.76 521.21 706.60 523.45 704.97 523.89 C 700.61 524.12 696.23 524.07 691.88 523.91 C 691.69 523.69 691.29 523.25 691.10 523.03 C 690.84 507.71 691.11 492.37 690.97 477.04 C 691.13 475.52 690.60 473.76 691.43 472.41 Z" />
<path fill="#000000" opacity="1.00" d=" M 708.97 475.97 C 709.15 474.69 708.51 472.89 709.87 472.09 C 714.56 471.92 719.29 471.89 723.99 472.11 C 724.22 472.32 724.67 472.73 724.90 472.93 C 725.07 489.63 725.07 506.36 724.89 523.06 C 724.67 523.27 724.22 523.68 724.00 523.89 C 718.99 523.90 713.83 524.55 708.92 523.44 C 709.09 507.62 708.99 491.79 708.97 475.97 Z" />
<path fill="#000000" opacity="1.00" d=" M 728.43 472.49 C 733.32 471.40 738.91 472.16 744.06 472.10 C 744.27 472.30 744.69 472.71 744.90 472.91 C 745.11 489.30 744.97 505.71 744.98 522.10 C 745.06 525.20 740.88 523.64 738.98 524.02 C 735.45 523.46 731.11 525.12 728.09 523.14 C 727.85 507.77 728.11 492.38 727.97 477.01 C 728.14 475.53 727.57 473.77 728.43 472.49 Z" />
<path fill="#000000" opacity="1.00" d=" M 748.45 472.45 C 754.41 471.46 760.88 472.14 767.03 472.10 C 767.25 472.28 767.69 472.65 767.91 472.83 C 768.11 489.26 767.97 505.70 767.98 522.14 C 768.37 523.98 766.29 524.10 765.05 524.02 C 759.96 523.97 754.87 524.05 749.79 523.98 C 748.05 524.36 747.86 522.23 747.98 521.08 C 748.09 505.02 747.86 488.95 748.09 472.90 L 748.45 472.45 Z" />
<path fill="#000000" opacity="1.00" d=" M 551.45 494.42 C 555.83 493.45 560.60 494.20 565.14 494.02 C 566.95 493.64 567.14 495.71 567.02 496.96 C 566.91 505.68 567.15 514.41 566.91 523.12 C 566.69 523.32 566.26 523.71 566.04 523.90 C 561.38 524.08 556.69 524.11 552.03 523.89 C 551.80 523.70 551.33 523.30 551.10 523.11 C 550.82 515.08 551.12 507.03 550.97 499.00 C 551.16 497.50 550.55 495.70 551.45 494.42 Z" />
<path fill="#000000" opacity="1.00" d=" M 468.00 499.00 C 481.33 499.00 494.67 499.00 508.00 499.00 C 507.97 506.74 508.04 514.48 507.98 522.22 C 508.38 523.96 506.21 524.10 505.07 524.02 C 493.03 523.91 480.98 524.15 468.94 523.90 C 468.73 523.71 468.30 523.33 468.09 523.15 C 467.85 515.10 468.08 507.05 468.00 499.00 Z" />
</g>
</svg>
