<?xml version="1.0" encoding="UTF-8" ?>
<!DOCTYPE svg PUBLIC "-//W3C//DTD SVG 1.1//EN" "http://www.w3.org/Graphics/SVG/1.1/DTD/svg11.dtd">
<svg width="986pt" height="550pt" viewBox="0 0 986 550" version="1.1" xmlns="http://www.w3.org/2000/svg">
<g id="#000000ff">
<path fill="#000000" opacity="1.00" d=" M 29.98 28.88 C 29.88 27.73 30.07 25.60 31.80 26.01 C 74.56 25.97 117.33 26.03 160.09 25.98 C 161.30 25.90 163.35 26.01 162.98 27.82 C 163.04 63.90 162.96 99.98 163.02 136.06 C 163.12 137.38 162.96 139.37 161.09 138.97 C 141.73 139.04 122.36 138.98 103.00 139.00 C 103.02 156.00 102.96 172.99 103.03 189.98 C 102.76 191.20 103.63 193.44 101.96 193.89 C 95.99 194.19 89.99 193.90 84.00 194.00 C 84.02 209.34 83.96 224.68 84.03 240.02 C 83.98 241.54 84.17 243.12 83.68 244.60 C 82.22 245.28 80.52 244.92 78.96 245.03 C 63.27 244.94 47.57 245.07 31.88 244.97 C 29.99 245.36 29.93 243.39 29.98 242.08 C 30.01 171.02 30.01 99.95 29.98 28.88 Z" />
<path fill="#000000" opacity="1.00" d=" M 165.98 28.90 C 165.88 27.65 166.03 25.66 167.83 26.03 C 226.22 25.95 284.62 26.04 343.01 25.98 C 344.35 25.93 346.38 25.97 345.97 27.91 C 346.05 46.30 345.96 64.69 346.02 83.09 C 346.11 84.33 345.97 86.35 344.16 85.98 C 336.44 86.06 328.72 85.96 321.00 86.00 C 320.99 94.00 321.00 102.00 321.00 110.00 C 313.00 110.00 305.00 110.00 297.00 110.00 C 296.96 117.71 297.06 125.42 296.98 133.12 C 297.34 135.51 294.43 134.93 293.00 135.03 C 280.32 134.99 267.63 134.97 254.96 135.02 C 251.48 135.72 247.90 136.15 244.60 137.49 C 242.48 138.27 240.33 139.17 238.03 139.02 C 215.02 138.99 192.00 138.99 168.99 139.02 C 167.68 139.07 165.63 139.04 166.03 137.12 C 165.95 101.05 166.04 64.97 165.98 28.90 Z" />
<path fill="#000000" opacity="1.00" d=" M 348.98 28.97 C 348.93 27.68 348.96 25.62 350.87 26.03 C 379.26 25.95 407.65 26.05 436.03 25.98 C 437.88 26.03 439.81 25.77 441.61 26.32 C 442.32 28.11 441.91 30.12 442.02 32.00 C 441.98 65.35 441.99 98.70 442.02 132.04 C 442.09 133.31 442.00 135.35 440.15 134.97 C 429.92 134.81 419.56 135.45 409.40 134.66 C 408.44 126.57 409.28 118.20 409.00 110.00 C 402.00 110.00 395.00 110.00 388.00 110.00 C 387.99 102.00 388.00 94.00 388.00 86.00 C 375.62 85.97 363.24 86.05 350.86 85.97 C 348.98 86.36 348.92 84.34 348.98 83.06 C 349.01 65.03 349.01 47.00 348.98 28.97 Z" />
<path fill="#000000" opacity="1.00" d=" M 485.41 26.40 C 488.44 25.47 491.82 26.21 494.99 26.00 C 499.18 26.25 503.53 25.47 507.63 26.38 C 508.53 31.48 507.74 36.82 508.00 42.01 C 507.73 47.54 508.53 53.21 507.62 58.64 C 500.81 59.46 493.78 58.82 486.89 58.97 C 484.11 59.25 485.21 55.69 484.97 54.03 C 485.32 44.85 484.41 35.45 485.41 26.40 Z" />
<path fill="#000000" opacity="1.00" d=" M 511.39 26.35 C 513.51 25.67 515.82 26.08 518.03 25.99 C 545.72 26.01 573.41 26.01 601.11 25.98 C 602.38 25.86 604.35 26.06 603.97 27.88 C 604.03 59.92 603.99 91.95 604.00 123.99 C 603.80 127.54 604.47 131.21 603.63 134.69 C 593.46 135.43 583.17 134.78 572.96 135.00 C 552.92 134.98 532.88 135.04 512.84 134.98 C 510.98 135.37 510.91 133.27 510.98 132.03 C 511.01 99.03 511.00 66.03 510.99 33.03 C 511.11 30.82 510.61 28.46 511.39 26.35 Z" />
<path fill="#000000" opacity="1.00" d=" M 607.32 26.36 C 608.81 25.80 610.45 26.04 612.01 25.97 C 642.38 26.06 672.76 25.94 703.13 26.03 C 705.02 25.64 705.07 27.69 705.02 28.99 C 704.96 46.03 705.05 63.07 704.97 80.11 C 705.05 81.46 704.42 82.08 703.07 81.97 C 696.72 82.08 690.36 81.95 684.00 82.00 C 683.75 90.84 684.49 99.81 683.65 108.56 C 677.28 109.61 670.52 108.69 664.00 109.00 C 663.96 117.04 664.06 125.08 663.98 133.12 C 664.35 134.89 662.42 135.15 661.17 135.02 C 644.78 135.00 628.39 134.97 612.01 135.03 C 610.45 134.93 608.80 135.25 607.35 134.63 C 606.67 132.51 607.07 130.21 606.99 128.02 C 607.01 96.35 607.01 64.68 606.99 33.02 C 607.05 30.80 606.71 28.52 607.32 26.36 Z" />
<path fill="#000000" opacity="1.00" d=" M 708.36 26.37 C 709.81 25.75 711.46 26.06 713.01 25.97 C 723.71 26.07 734.42 25.93 745.11 26.02 C 747.00 25.61 747.08 27.67 747.02 28.95 C 746.98 58.96 747.01 88.96 747.00 118.97 C 746.75 124.17 747.50 129.50 746.64 134.63 C 743.20 135.48 739.54 134.80 736.02 135.00 C 727.32 134.97 718.61 135.06 709.92 134.97 C 708.02 135.37 707.89 133.41 707.98 132.08 C 708.01 99.05 708.01 66.02 707.99 33.00 C 708.08 30.80 707.65 28.49 708.36 26.37 Z" />
<path fill="#000000" opacity="1.00" d=" M 750.34 26.35 C 752.48 25.67 754.80 26.08 757.02 25.99 C 784.73 26.01 812.44 26.01 840.15 25.98 C 841.39 25.88 843.34 26.06 842.98 27.85 C 843.06 45.89 842.94 63.94 843.03 81.98 C 842.74 83.17 843.63 85.54 841.93 85.88 C 835.63 86.20 829.31 85.89 823.00 86.00 C 822.74 93.86 823.50 101.85 822.64 109.63 C 817.53 110.52 812.20 109.74 807.00 110.00 C 806.76 118.21 807.47 126.52 806.66 134.67 C 804.49 135.28 802.20 134.95 800.00 135.01 C 785.02 135.00 770.03 134.97 755.05 135.03 C 753.49 134.89 751.76 135.34 750.35 134.58 C 749.75 133.12 750.05 131.48 749.97 129.95 C 750.04 98.96 749.98 67.97 750.00 36.98 C 750.17 33.45 749.56 29.82 750.34 26.35 Z" />
<path fill="#000000" opacity="1.00" d=" M 846.02 27.88 C 845.62 26.03 847.66 25.87 848.94 25.98 C 891.61 26.00 934.29 26.03 976.96 25.97 C 978.47 26.11 980.19 25.67 981.61 26.40 C 982.40 28.48 981.86 30.84 982.01 33.03 C 981.99 110.69 982.00 188.36 982.00 266.02 C 981.86 268.56 982.40 271.24 981.61 273.69 C 979.47 274.25 977.22 273.95 975.05 274.01 C 926.99 273.97 878.93 274.03 830.87 273.98 C 829.06 274.39 828.84 272.26 828.98 271.05 C 829.01 227.67 829.01 184.28 828.98 140.90 C 828.88 139.60 829.02 137.64 830.88 138.03 C 835.91 137.90 840.96 138.06 846.00 138.00 C 846.02 101.29 845.96 64.58 846.02 27.88 Z" />
<path fill="#000000" opacity="1.00" d=" M 485.36 62.43 C 488.36 61.43 491.76 62.23 494.92 62.00 C 499.16 62.25 503.55 61.46 507.69 62.40 C 508.40 72.25 507.83 82.23 507.98 92.13 C 508.31 94.49 505.46 93.97 504.02 94.03 C 497.82 93.71 491.46 94.55 485.37 93.61 C 484.47 87.84 485.26 81.83 485.00 75.97 C 485.24 71.48 484.49 66.84 485.36 62.43 Z" />
<path fill="#000000" opacity="1.00" d=" M 687.40 85.36 C 692.85 84.58 698.54 85.08 704.08 85.10 C 704.28 85.32 704.69 85.75 704.90 85.97 C 705.16 100.98 704.89 116.02 705.03 131.04 C 704.91 132.52 705.50 135.38 703.09 134.97 C 698.08 134.98 693.05 135.16 688.05 134.88 C 686.37 134.56 687.24 132.17 686.97 130.99 C 687.02 117.33 687.02 103.67 686.97 90.01 C 687.09 88.48 686.66 86.77 687.40 85.36 Z" />
<path fill="#000000" opacity="1.00" d=" M 349.03 90.83 C 348.96 89.53 349.59 88.92 350.92 89.02 C 355.94 88.91 360.97 89.05 366.00 89.00 C 366.00 104.33 366.00 119.67 366.00 135.00 C 360.68 134.90 355.35 135.20 350.04 134.88 C 348.37 134.48 349.23 132.18 348.97 130.99 C 349.06 117.60 348.93 104.22 349.03 90.83 Z" />
<path fill="#000000" opacity="1.00" d=" M 369.00 89.00 C 374.21 89.27 379.59 88.43 384.70 89.41 C 385.41 100.56 384.79 111.83 385.00 123.03 C 384.77 126.88 385.50 130.87 384.63 134.63 C 379.53 135.53 374.19 134.74 369.00 135.00 C 369.00 119.67 369.00 104.33 369.00 89.00 Z" />
<path fill="#000000" opacity="1.00" d=" M 826.40 89.31 C 831.74 88.83 837.38 88.67 842.69 89.40 C 843.43 99.88 842.78 110.49 843.00 121.03 C 842.76 125.56 843.50 130.21 842.64 134.67 C 836.49 135.46 830.21 134.77 824.01 135.00 C 819.48 134.75 814.81 135.53 810.38 134.63 C 809.45 128.86 810.29 122.85 809.97 116.99 C 810.21 115.78 809.41 113.62 810.98 113.11 C 815.97 112.80 820.99 113.11 826.00 113.00 C 826.28 105.12 825.45 97.09 826.40 89.31 Z" />
<path fill="#000000" opacity="1.00" d=" M 485.38 97.40 C 492.16 96.47 499.26 97.22 506.17 97.02 C 508.01 96.64 508.08 98.72 508.02 99.96 C 507.91 111.32 508.16 122.69 507.90 134.04 C 507.68 134.25 507.25 134.68 507.04 134.90 C 501.03 135.18 495.00 134.88 488.98 135.03 C 487.51 134.94 484.63 135.50 485.03 133.10 C 484.93 122.74 485.07 112.37 484.97 102.00 C 485.08 100.48 484.70 98.82 485.38 97.40 Z" />
<path fill="#000000" opacity="1.00" d=" M 667.36 112.38 C 672.49 111.56 677.87 112.09 683.09 112.10 C 683.29 112.33 683.69 112.78 683.90 113.01 C 683.91 120.17 684.43 127.51 683.63 134.57 C 678.55 135.52 673.07 134.86 667.85 134.91 C 667.66 134.68 667.29 134.23 667.10 134.00 C 667.09 126.82 666.57 119.48 667.36 112.38 Z" />
<path fill="#000000" opacity="1.00" d=" M 300.00 113.00 C 307.00 113.00 314.00 113.00 321.00 113.00 C 320.96 119.72 321.06 126.44 320.98 133.15 C 321.32 135.51 318.39 134.93 316.98 135.03 C 311.47 134.72 305.82 135.52 300.39 134.64 C 299.45 127.55 300.27 120.19 300.00 113.00 Z" />
<path fill="#000000" opacity="1.00" d=" M 388.00 113.00 C 394.00 113.00 400.00 113.00 406.00 113.00 C 405.76 120.20 406.48 127.51 405.66 134.64 C 399.99 135.26 394.03 135.24 388.36 134.65 C 387.49 127.53 388.25 120.20 388.00 113.00 Z" />
<path fill="#000000" opacity="1.00" d=" M 105.98 144.95 C 105.90 143.58 106.01 141.61 107.94 142.03 C 119.32 141.94 130.70 142.04 142.08 141.98 C 143.41 141.90 145.37 142.02 144.97 143.90 C 145.09 170.31 144.87 196.72 145.08 223.13 C 134.86 231.15 123.70 238.33 111.13 242.02 C 109.54 242.67 105.82 244.19 106.03 241.12 C 105.95 209.07 106.04 177.01 105.98 144.95 Z" />
<path fill="#000000" opacity="1.00" d=" M 147.98 144.96 C 147.88 143.71 148.01 141.65 149.83 142.02 C 159.89 141.95 169.95 142.04 180.01 141.98 C 181.30 141.94 183.36 141.94 182.97 143.86 C 183.05 158.26 182.97 172.68 183.00 187.09 C 179.56 190.29 176.64 194.11 172.65 196.68 C 168.89 199.56 166.24 203.69 162.22 206.27 C 157.41 209.56 154.55 215.38 148.83 217.36 C 147.59 215.10 148.04 212.48 147.99 210.02 C 148.01 188.33 148.01 166.64 147.98 144.96 Z" />
<path fill="#000000" opacity="1.00" d=" M 186.39 142.37 C 187.83 141.73 189.48 142.07 191.01 141.97 C 203.69 142.06 216.37 141.93 229.05 142.03 C 230.59 141.56 231.82 143.60 230.51 144.61 C 226.73 147.46 222.88 150.25 219.10 153.10 C 216.71 154.99 214.99 157.59 212.50 159.36 C 206.53 163.31 202.65 169.68 196.70 173.65 C 193.47 176.11 191.06 179.48 187.91 182.03 C 186.55 182.09 185.92 181.45 186.03 180.10 C 185.92 169.07 186.07 158.04 185.97 147.01 C 186.08 145.47 185.70 143.80 186.39 142.37 Z" />
<path fill="#000000" opacity="1.00" d=" M 279.00 156.00 C 290.33 156.00 301.67 156.00 313.00 156.00 C 313.00 160.67 313.00 165.33 313.00 170.00 C 301.67 170.00 290.33 170.00 279.00 170.00 C 279.00 165.33 279.00 160.67 279.00 156.00 Z" />
<path fill="#000000" opacity="1.00" d=" M 349.00 156.00 C 360.33 156.00 371.67 156.00 383.00 156.00 C 383.00 160.67 383.00 165.33 383.00 170.00 C 371.67 170.00 360.33 170.00 349.00 170.00 C 349.00 165.33 349.00 160.67 349.00 156.00 Z" />
<path fill="#000000" opacity="1.00" d=" M 419.00 156.00 C 430.33 156.00 441.67 156.00 453.00 156.00 C 453.00 160.67 453.00 165.33 453.00 170.00 C 441.67 170.00 430.33 170.00 419.00 170.00 C 419.00 165.33 419.00 160.67 419.00 156.00 Z" />
<path fill="#000000" opacity="1.00" d=" M 499.00 156.00 C 510.33 156.00 521.66 156.00 533.00 156.00 C 533.00 160.67 533.00 165.33 533.00 170.00 C 521.66 170.00 510.33 170.00 499.00 170.00 C 499.00 165.33 499.00 160.67 499.00 156.00 Z" />
<path fill="#000000" opacity="1.00" d=" M 569.00 156.00 C 580.33 156.00 591.66 156.00 603.00 156.00 C 603.00 160.67 603.00 165.33 603.00 170.00 C 591.66 170.00 580.33 170.00 569.00 170.00 C 569.00 165.33 569.00 160.67 569.00 156.00 Z" />
<path fill="#000000" opacity="1.00" d=" M 639.00 156.00 C 650.33 156.00 661.67 156.00 673.00 156.00 C 673.00 160.67 673.00 165.33 673.00 170.00 C 661.66 170.00 650.33 170.00 639.00 170.00 C 639.00 165.33 638.99 160.67 639.00 156.00 Z" />
<path fill="#000000" opacity="1.00" d=" M 709.00 156.00 C 720.33 156.00 731.66 156.00 743.00 156.00 C 743.00 160.67 743.00 165.33 743.00 170.00 C 731.66 170.00 720.33 170.00 709.00 170.00 C 708.99 165.33 708.99 160.67 709.00 156.00 Z" />
<path fill="#000000" opacity="1.00" d=" M 280.50 191.67 C 282.50 191.28 286.98 189.56 286.97 192.92 C 287.02 247.66 287.02 302.42 286.98 357.16 C 287.32 358.93 285.25 359.39 283.98 358.90 C 273.96 356.68 263.83 354.58 254.34 350.57 C 252.04 349.76 249.64 348.98 247.93 347.14 C 248.09 331.43 247.96 315.72 248.00 300.00 C 241.65 299.99 235.30 300.01 228.96 300.02 C 227.71 300.08 225.65 300.02 226.03 298.17 C 226.04 282.78 225.86 267.37 226.12 251.99 C 226.34 251.77 226.78 251.34 227.00 251.12 C 233.99 250.81 241.00 251.10 248.00 251.00 C 247.95 234.94 248.09 218.88 247.93 202.82 C 248.98 201.87 250.15 201.03 251.57 200.73 C 261.28 197.92 270.41 193.18 280.50 191.67 Z" />
<path fill="#000000" opacity="1.00" d=" M 290.33 191.35 C 295.33 190.78 300.65 190.70 305.62 191.38 C 306.54 195.80 305.74 200.49 306.00 205.02 C 305.75 210.22 306.51 215.54 305.63 220.66 C 300.64 221.27 295.40 221.20 290.39 220.69 C 289.44 215.24 290.27 209.54 290.00 204.00 C 290.20 199.79 289.54 195.49 290.33 191.35 Z" />
<path fill="#000000" opacity="1.00" d=" M 308.98 193.92 C 308.89 192.64 309.01 190.65 310.85 191.03 C 315.57 191.00 320.31 190.85 325.02 191.11 C 326.58 191.63 325.77 193.77 326.03 194.98 C 325.89 249.34 326.15 303.72 325.90 358.08 C 325.68 358.28 325.23 358.69 325.01 358.90 C 319.82 358.93 314.48 359.42 309.36 358.64 C 308.51 347.85 309.25 336.87 309.00 326.00 C 303.29 325.95 297.58 326.08 291.88 325.97 C 289.51 326.34 290.05 323.48 289.97 322.04 C 290.02 290.70 290.02 259.36 289.97 228.02 C 290.24 226.82 289.37 224.48 291.06 224.12 C 297.02 223.80 303.02 224.11 309.00 224.00 C 309.00 213.97 309.01 203.94 308.98 193.92 Z" />
<path fill="#000000" opacity="1.00" d=" M 329.37 191.36 C 333.84 190.55 338.53 191.14 343.09 191.03 C 345.49 190.64 344.95 193.49 345.03 194.96 C 344.97 211.67 345.00 228.37 345.02 245.08 C 345.12 246.34 344.96 248.33 343.15 247.97 C 338.78 248.00 334.40 248.15 330.04 247.89 C 328.37 247.45 329.22 245.21 328.97 244.00 C 329.02 228.00 329.02 212.00 328.97 195.99 C 329.06 194.46 328.75 192.81 329.37 191.36 Z" />
<path fill="#000000" opacity="1.00" d=" M 347.98 193.90 C 347.91 192.58 348.02 190.62 349.91 191.03 C 360.29 190.93 370.68 191.07 381.06 190.97 C 382.58 191.04 384.21 190.78 385.67 191.37 C 386.34 193.87 385.90 196.51 386.00 199.08 C 386.00 250.05 385.99 301.03 386.01 352.01 C 385.91 354.21 386.34 356.53 385.63 358.66 C 384.14 359.20 382.51 358.95 380.97 359.03 C 370.30 358.88 359.62 359.17 348.96 358.90 C 348.75 358.69 348.32 358.27 348.10 358.06 C 347.86 338.38 348.07 318.68 348.00 299.00 C 342.28 298.95 336.55 299.08 330.84 298.97 C 329.00 299.35 328.90 297.32 328.98 296.08 C 329.00 282.38 329.03 268.68 328.97 254.98 C 329.23 253.79 328.39 251.53 330.02 251.12 C 336.00 250.80 342.01 251.11 348.00 251.00 C 347.99 231.96 348.02 212.93 347.98 193.90 Z" />
<path fill="#000000" opacity="1.00" d=" M 389.53 191.39 C 389.87 191.30 390.54 191.11 390.88 191.02 C 402.61 190.95 414.36 191.04 426.10 190.98 C 427.35 190.78 429.30 191.10 428.98 192.85 C 429.04 245.90 428.97 298.95 429.01 352.00 C 428.91 354.19 429.34 356.50 428.65 358.62 C 427.17 359.27 425.49 358.92 423.94 359.03 C 412.92 358.93 401.90 359.07 390.89 358.97 C 389.00 359.36 388.89 357.35 388.98 356.04 C 389.08 301.30 388.87 246.55 389.08 191.81 L 389.53 191.39 Z" />
<path fill="#000000" opacity="1.00" d=" M 432.42 191.39 C 434.79 190.54 437.47 191.15 439.96 191.00 C 443.83 191.20 447.80 190.55 451.61 191.33 C 452.26 192.78 451.92 194.44 452.03 195.98 C 451.96 212.32 452.02 228.66 452.00 245.00 C 445.33 245.00 438.67 245.00 432.00 245.00 C 431.98 228.67 432.04 212.33 431.97 196.00 C 432.12 194.49 431.62 192.75 432.42 191.39 Z" />
<path fill="#000000" opacity="1.00" d=" M 569.37 191.34 C 580.54 190.55 591.90 191.19 603.14 191.02 C 604.96 190.63 605.10 192.65 605.02 193.90 C 604.96 220.00 605.04 246.09 604.98 272.19 C 605.34 273.96 603.31 274.11 602.11 274.02 C 591.72 273.96 581.32 274.06 570.94 273.97 C 569.54 274.08 568.91 273.44 569.03 272.06 C 568.94 246.71 569.06 221.37 568.97 196.02 C 569.05 194.47 568.76 192.82 569.37 191.34 Z" />
<path fill="#000000" opacity="1.00" d=" M 608.35 191.38 C 609.78 190.73 611.44 191.07 612.98 190.97 C 623.02 191.06 633.07 190.93 643.12 191.02 C 645.00 190.59 645.07 192.71 645.02 193.96 C 645.00 218.97 644.97 243.97 645.03 268.97 C 644.68 270.48 645.83 273.24 643.93 273.88 C 638.98 274.20 634.00 273.89 629.03 274.00 C 622.15 273.76 615.17 274.47 608.34 273.67 C 607.69 271.52 608.06 269.23 607.99 267.02 C 608.00 243.68 608.02 220.34 607.98 196.99 C 608.05 195.13 607.71 193.17 608.35 191.38 Z" />
<path fill="#000000" opacity="1.00" d=" M 648.33 191.41 C 651.06 190.50 654.09 191.19 656.95 191.00 C 659.48 191.18 662.24 190.51 664.65 191.42 C 665.23 192.87 664.93 194.49 665.03 196.01 C 664.93 205.06 665.07 214.10 664.97 223.14 C 665.31 225.49 662.46 224.96 661.03 225.03 C 656.80 224.78 652.48 225.47 648.32 224.65 C 647.54 218.48 648.22 212.18 648.00 205.96 C 648.23 201.12 647.52 196.18 648.33 191.41 Z" />
<path fill="#000000" opacity="1.00" d=" M 668.31 191.40 C 673.13 190.50 678.20 191.18 683.12 191.03 C 684.96 190.64 685.10 192.62 685.02 193.92 C 684.96 219.99 685.04 246.06 684.98 272.13 C 685.34 273.93 683.35 274.16 682.09 274.02 C 671.08 273.90 660.05 274.16 649.05 273.90 C 648.81 273.70 648.33 273.32 648.10 273.13 C 647.89 258.70 648.02 244.25 648.03 229.81 C 647.65 227.96 649.71 227.93 650.96 227.98 C 656.64 227.99 662.32 228.02 668.00 228.00 C 668.22 215.81 667.57 203.53 668.31 191.40 Z" />
<path fill="#000000" opacity="1.00" d=" M 687.98 197.01 C 688.36 195.10 686.80 190.90 689.90 191.03 C 700.96 190.94 712.02 191.04 723.09 190.98 C 724.31 190.91 726.34 191.00 725.97 192.82 C 726.06 234.88 725.94 276.95 726.03 319.02 C 725.74 320.19 726.61 322.51 724.97 322.88 C 718.65 323.20 712.32 322.89 706.00 323.00 C 705.76 334.87 706.46 346.83 705.66 358.64 C 702.54 359.46 699.22 358.82 696.02 359.00 C 693.49 358.85 690.79 359.44 688.37 358.61 C 687.62 356.51 688.10 354.19 687.99 352.01 C 688.00 300.34 688.02 248.68 687.98 197.01 Z" />
<path fill="#000000" opacity="1.00" d=" M 728.98 193.89 C 728.83 192.57 729.07 190.65 730.90 191.03 C 737.60 190.93 744.30 191.04 751.00 191.00 C 751.00 208.67 751.00 226.33 751.00 244.00 C 756.00 244.00 761.00 244.00 766.00 244.00 C 765.97 253.36 766.06 262.73 765.97 272.09 C 766.36 273.96 764.40 274.11 763.08 274.02 C 752.33 273.96 741.58 274.05 730.84 273.97 C 728.96 274.36 728.93 272.32 728.98 271.06 C 729.01 245.34 729.01 219.61 728.98 193.89 Z" />
<path fill="#000000" opacity="1.00" d=" M 754.00 191.00 C 758.00 191.00 762.00 191.00 766.00 191.00 C 766.00 207.67 766.00 224.33 766.00 241.00 C 762.00 241.00 758.00 241.00 754.00 241.00 C 754.00 224.33 754.00 207.67 754.00 191.00 Z" />
<path fill="#000000" opacity="1.00" d=" M 769.38 191.32 C 772.54 190.63 775.83 191.12 779.05 190.97 C 780.49 191.07 783.35 190.50 782.97 192.89 C 783.05 201.92 782.97 210.96 783.00 220.00 C 778.33 220.00 773.66 220.00 769.00 220.00 C 769.26 210.45 768.48 200.78 769.38 191.32 Z" />
<path fill="#000000" opacity="1.00" d=" M 87.36 197.38 C 92.10 196.57 97.10 197.05 101.92 197.12 C 103.62 197.40 102.75 199.81 103.03 200.99 C 102.97 214.69 103.00 228.38 103.02 242.07 C 103.10 243.30 102.99 245.34 101.18 244.98 C 96.78 245.00 92.37 245.15 87.97 244.89 C 86.43 244.37 87.22 242.24 86.97 241.05 C 87.02 228.05 87.02 215.05 86.97 202.05 C 87.06 200.50 86.75 198.85 87.36 197.38 Z" />
<path fill="#000000" opacity="1.00" d=" M 225.93 213.76 C 232.08 210.76 237.61 206.52 243.93 203.91 C 245.46 204.73 244.89 206.56 245.03 207.97 C 244.97 220.32 245.00 232.68 245.02 245.03 C 245.10 246.28 245.00 248.38 243.14 247.98 C 237.57 247.79 231.82 248.53 226.38 247.60 C 226.29 247.23 226.11 246.49 226.02 246.12 C 225.91 235.34 226.11 224.54 225.93 213.76 Z" />
<path fill="#000000" opacity="1.00" d=" M 220.50 217.52 C 221.45 216.32 223.41 217.36 222.97 218.86 C 223.06 236.27 222.96 253.70 223.02 271.11 C 223.11 272.36 222.96 274.35 221.15 273.97 C 217.26 273.90 213.28 274.38 209.45 273.69 C 209.35 273.31 209.13 272.54 209.02 272.15 C 208.93 257.07 209.08 241.98 208.96 226.89 C 212.63 223.56 216.70 220.70 220.50 217.52 Z" />
<path fill="#000000" opacity="1.00" d=" M 769.00 223.00 C 773.66 223.00 778.33 223.00 783.00 223.00 C 783.00 229.00 783.00 235.00 783.00 241.00 C 778.33 241.00 773.66 241.00 769.00 241.00 C 769.00 235.00 769.00 229.00 769.00 223.00 Z" />
<path fill="#000000" opacity="1.00" d=" M 203.48 232.48 C 204.37 231.26 206.42 232.38 205.97 233.85 C 206.06 246.25 205.96 258.67 206.02 271.08 C 206.13 272.33 205.95 274.38 204.11 273.98 C 199.22 273.83 194.19 274.46 189.38 273.64 C 188.50 265.55 189.20 257.22 189.06 249.03 C 191.52 244.91 195.43 242.02 198.02 238.01 C 199.69 236.03 201.59 234.25 203.48 232.48 Z" />
<path fill="#000000" opacity="1.00" d=" M 146.00 239.00 C 154.00 239.00 162.00 239.00 170.00 239.00 C 170.00 243.33 170.00 247.67 170.00 252.00 C 162.00 252.00 154.00 252.00 146.00 252.00 C 146.00 247.67 146.00 243.33 146.00 239.00 Z" />
<path fill="#000000" opacity="1.00" d=" M 769.00 244.00 C 773.66 244.00 778.33 244.00 783.00 244.00 C 782.73 253.85 783.53 263.87 782.62 273.62 C 778.32 274.31 773.67 274.21 769.34 273.67 C 768.53 263.85 769.23 253.88 769.00 244.00 Z" />
<path fill="#000000" opacity="1.00" d=" M 432.00 248.00 C 438.67 248.00 445.33 248.00 452.00 248.00 C 452.00 266.00 452.00 284.00 452.00 302.00 C 445.33 302.00 438.67 302.00 432.00 302.00 C 432.00 284.00 432.00 266.00 432.00 248.00 Z" />
<path fill="#000000" opacity="1.00" d=" M 182.56 258.44 C 183.03 257.08 185.50 256.15 185.88 258.04 C 186.21 263.34 185.89 268.68 186.00 274.00 C 181.70 273.99 177.41 274.01 173.12 273.99 C 176.29 268.82 179.69 263.79 182.56 258.44 Z" />
<path fill="#000000" opacity="1.00" d=" M 174.11 277.02 C 178.07 276.98 182.03 277.00 186.00 277.00 C 185.69 282.54 186.64 288.33 185.54 293.72 C 185.15 293.82 184.38 294.02 183.99 294.12 C 180.66 288.46 177.63 282.59 174.11 277.02 Z" />
<path fill="#000000" opacity="1.00" d=" M 188.97 281.03 C 189.09 279.55 188.46 276.66 190.87 277.03 C 195.77 277.17 200.83 276.51 205.63 277.38 C 206.52 284.48 205.74 291.80 206.00 298.98 C 205.74 305.21 206.53 311.56 205.62 317.70 C 205.24 317.78 204.47 317.92 204.09 318.00 C 200.45 315.55 198.69 311.36 195.46 308.52 C 193.64 306.76 191.84 304.99 190.13 303.12 C 188.24 295.90 189.25 288.41 188.97 281.03 Z" />
<path fill="#000000" opacity="1.00" d=" M 208.98 279.94 C 208.90 278.66 209.01 276.60 210.89 277.02 C 214.79 277.10 218.80 276.59 222.64 277.34 C 223.22 278.81 222.95 280.44 223.03 281.99 C 222.94 298.39 223.06 314.80 222.97 331.20 C 223.44 332.65 221.23 333.75 220.44 332.46 C 217.15 329.59 213.89 326.57 210.13 324.37 C 210.34 321.56 209.49 318.89 209.02 316.17 C 208.95 304.10 209.04 292.02 208.98 279.94 Z" />
<path fill="#000000" opacity="1.00" d=" M 569.29 277.42 C 570.72 276.70 572.42 277.08 573.98 276.97 C 584.01 277.11 594.06 276.84 604.09 277.09 C 604.29 277.31 604.70 277.74 604.90 277.96 C 605.12 283.69 604.99 289.43 604.97 295.17 C 605.33 296.99 603.34 297.09 602.09 297.02 C 591.70 296.96 581.31 297.06 570.93 296.97 C 568.50 297.37 569.03 294.47 568.97 292.99 C 569.22 287.80 568.58 282.56 569.29 277.42 Z" />
<path fill="#000000" opacity="1.00" d=" M 608.43 277.41 C 612.81 276.46 617.58 277.19 622.10 277.03 C 623.95 276.64 624.12 278.60 624.02 279.93 C 623.96 305.68 624.05 331.43 623.97 357.17 C 624.33 358.99 622.32 359.10 621.08 359.02 C 617.05 358.94 613.01 359.17 609.00 358.89 C 607.40 358.39 608.21 356.22 607.97 355.02 C 608.03 329.98 608.00 304.94 607.98 279.90 C 608.10 279.28 608.32 278.03 608.43 277.41 Z" />
<path fill="#000000" opacity="1.00" d=" M 627.39 277.39 C 628.81 276.69 630.48 277.09 632.01 276.97 C 642.36 277.07 652.71 276.93 663.06 277.03 C 664.44 276.91 665.08 277.55 664.97 278.95 C 665.06 303.96 664.94 328.99 665.03 354.01 C 664.96 355.55 665.17 357.16 664.66 358.66 C 663.15 359.18 661.51 358.97 659.96 359.03 C 649.97 358.96 639.98 359.01 629.99 359.02 C 628.70 359.06 626.64 359.04 627.03 357.16 C 626.94 332.11 627.06 307.05 626.97 282.00 C 627.09 280.47 626.68 278.79 627.39 277.39 Z" />
<path fill="#000000" opacity="1.00" d=" M 668.44 277.42 C 673.15 276.45 678.29 277.21 683.16 277.02 C 684.92 276.68 685.16 278.66 685.02 279.90 C 685.00 304.94 684.97 329.97 685.03 355.00 C 684.73 356.17 685.60 358.54 683.97 358.88 C 679.28 359.16 674.56 358.98 669.87 358.98 C 668.05 359.33 667.83 357.35 667.98 356.08 C 668.01 330.70 668.01 305.31 667.98 279.92 C 668.10 279.30 668.32 278.05 668.44 277.42 Z" />
<path fill="#000000" opacity="1.00" d=" M 729.03 278.90 C 728.63 276.52 731.46 277.05 732.94 276.97 C 743.83 277.26 754.81 276.53 765.65 277.33 C 766.44 283.85 765.82 290.55 765.97 297.14 C 766.36 299.03 764.30 299.07 763.03 299.02 C 757.35 299.01 751.67 298.98 746.00 299.00 C 745.98 318.38 746.04 337.76 745.98 357.13 C 746.32 359.48 743.47 358.95 742.04 359.03 C 737.84 358.77 733.51 359.49 729.39 358.65 C 728.70 357.21 729.07 355.53 728.97 354.00 C 729.06 328.97 728.94 303.93 729.03 278.90 Z" />
<path fill="#000000" opacity="1.00" d=" M 769.39 277.36 C 772.51 276.55 775.85 277.17 779.07 276.97 C 780.49 277.07 783.33 276.50 782.97 278.85 C 782.79 285.38 783.50 292.10 782.62 298.53 C 778.46 299.43 773.65 299.16 769.35 298.65 C 768.79 291.66 768.70 284.32 769.39 277.36 Z" />
<path fill="#000000" opacity="1.00" d=" M 829.40 277.35 C 831.51 276.65 833.81 277.09 836.02 276.99 C 882.35 277.01 928.68 277.01 975.01 276.99 C 977.18 277.07 979.45 276.69 981.58 277.33 C 982.32 278.75 981.88 280.47 982.03 282.02 C 981.96 325.69 982.02 369.36 982.00 413.03 C 981.73 418.55 982.54 424.22 981.62 429.65 C 974.14 430.50 966.46 429.75 958.91 430.00 C 937.89 430.04 916.87 429.91 895.85 430.07 C 886.35 416.71 878.21 402.44 869.11 388.80 C 858.91 372.41 848.27 356.29 838.18 339.83 C 834.80 335.42 832.61 330.24 829.04 325.98 C 828.92 311.32 829.07 296.65 828.97 282.00 C 829.08 280.46 828.69 278.77 829.40 277.35 Z" />
<path fill="#000000" opacity="1.00" d=" M 569.34 300.38 C 570.82 299.74 572.49 300.06 574.07 299.97 C 583.76 300.07 593.45 299.93 603.14 300.03 C 604.91 299.68 605.15 301.59 605.02 302.88 C 604.96 309.63 605.06 316.38 604.98 323.14 C 605.32 325.49 602.45 324.95 601.02 325.03 C 590.48 324.73 579.83 325.48 569.35 324.66 C 568.52 320.83 569.20 316.83 569.00 312.93 C 569.21 308.76 568.53 304.48 569.34 300.38 Z" />
<path fill="#000000" opacity="1.00" d=" M 329.37 302.42 C 334.29 301.64 339.65 301.83 344.64 302.33 C 344.72 302.72 344.89 303.52 344.97 303.91 C 345.06 320.95 344.94 337.99 345.03 355.02 C 344.75 356.20 345.62 358.50 343.96 358.88 C 339.59 359.16 335.20 358.99 330.83 358.98 C 329.04 359.34 328.88 357.33 328.98 356.12 C 329.00 339.74 329.03 323.35 328.97 306.98 C 329.08 305.46 328.71 303.82 329.37 302.42 Z" />
<path fill="#000000" opacity="1.00" d=" M 749.43 302.37 C 754.21 301.51 759.26 302.17 764.14 302.02 C 765.97 301.65 766.11 303.67 766.02 304.95 C 765.99 321.99 765.99 339.04 766.02 356.08 C 766.16 357.39 765.90 359.37 764.07 358.98 C 759.38 358.98 754.69 359.15 750.02 358.88 C 748.39 358.45 749.22 356.18 748.97 354.99 C 749.02 339.00 749.02 323.02 748.97 307.03 C 749.12 305.50 748.61 303.75 749.43 302.37 Z" />
<path fill="#000000" opacity="1.00" d=" M 769.45 302.45 C 773.58 301.63 778.44 301.75 782.68 302.41 C 783.19 309.06 783.30 316.02 782.62 322.64 C 779.52 323.44 776.21 322.83 773.04 323.03 C 771.61 322.90 768.70 323.54 769.03 321.18 C 769.25 314.98 768.40 308.44 769.45 302.45 Z" />
<path fill="#000000" opacity="1.00" d=" M 225.98 305.94 C 225.86 304.66 226.04 302.64 227.88 303.02 C 233.45 303.19 239.17 302.50 244.66 303.38 C 245.48 312.51 244.76 321.81 245.00 331.00 C 244.74 335.89 245.54 340.91 244.61 345.70 C 244.20 345.78 243.38 345.94 242.96 346.01 C 236.66 344.15 232.20 338.74 226.08 336.44 C 225.89 326.27 226.06 316.10 225.98 305.94 Z" />
<path fill="#000000" opacity="1.00" d=" M 30.39 305.38 C 34.82 304.46 39.52 305.26 44.06 305.00 C 48.23 305.26 52.59 304.44 56.64 305.40 C 57.43 310.53 56.91 315.90 56.91 321.11 C 56.69 321.31 56.26 321.71 56.04 321.90 C 47.50 321.88 38.78 322.46 30.32 321.61 C 29.81 316.29 29.67 310.64 30.39 305.38 Z" />
<path fill="#000000" opacity="1.00" d=" M 60.34 305.39 C 63.77 304.48 67.47 305.22 71.00 305.00 C 75.19 305.23 79.51 304.50 83.62 305.36 C 84.31 310.65 84.19 316.27 83.69 321.60 C 79.92 322.53 75.89 321.77 72.02 322.00 C 68.16 321.78 64.15 322.50 60.37 321.63 C 59.72 316.33 59.77 310.71 60.34 305.39 Z" />
<path fill="#000000" opacity="1.00" d=" M 87.40 305.41 C 92.98 304.78 99.23 304.21 104.60 306.52 C 112.27 307.85 119.77 310.56 126.46 314.59 C 129.56 316.75 133.09 318.15 136.41 319.92 C 135.95 321.49 134.69 322.38 133.04 322.01 C 118.69 321.99 104.33 321.99 89.98 322.02 C 88.77 322.11 86.63 321.99 87.02 320.17 C 87.20 315.27 86.48 310.18 87.40 305.41 Z" />
<path fill="#000000" opacity="1.00" d=" M 432.00 305.00 C 438.67 305.00 445.33 305.00 452.00 305.00 C 451.98 322.39 452.04 339.78 451.97 357.16 C 452.31 359.52 449.43 358.92 448.00 359.03 C 443.01 358.87 438.01 359.22 433.05 358.87 C 431.38 358.58 432.25 356.18 431.97 355.01 C 432.04 338.34 431.98 321.67 432.00 305.00 Z" />
<path fill="#000000" opacity="1.00" d=" M 29.98 327.89 C 29.87 326.60 30.05 324.64 31.88 325.03 C 68.60 324.97 105.33 325.00 142.06 325.02 C 143.43 326.60 145.14 327.81 146.98 328.78 C 147.01 393.24 147.02 457.70 146.97 522.15 C 147.33 523.96 145.33 524.14 144.07 524.02 C 107.02 523.99 69.97 523.99 32.92 524.02 C 31.63 524.09 29.64 523.98 30.03 522.13 C 29.95 457.39 30.04 392.64 29.98 327.89 Z" />
<path fill="#000000" opacity="1.00" d=" M 769.34 326.41 C 773.11 325.50 777.20 326.14 781.10 326.03 C 783.52 325.63 782.91 328.54 783.03 330.03 C 782.88 339.36 783.18 348.70 782.89 358.02 C 782.68 358.24 782.25 358.68 782.04 358.90 C 777.84 358.98 773.52 359.37 769.38 358.67 C 768.47 352.55 769.26 346.19 769.00 339.98 C 769.23 335.47 768.51 330.85 769.34 326.41 Z" />
<path fill="#000000" opacity="1.00" d=" M 569.35 328.37 C 575.13 327.48 581.13 328.25 587.00 328.00 C 587.00 338.33 587.00 348.66 587.00 359.00 C 581.15 358.74 575.15 359.53 569.40 358.62 C 568.44 354.55 569.26 350.18 569.00 345.99 C 569.24 340.13 568.51 334.16 569.35 328.37 Z" />
<path fill="#000000" opacity="1.00" d=" M 590.00 328.00 C 594.86 328.22 599.81 327.53 604.61 328.33 C 605.53 332.44 604.75 336.79 605.00 341.00 C 604.77 346.87 605.47 352.82 604.67 358.63 C 599.87 359.51 594.87 358.75 590.00 359.00 C 590.00 348.67 590.00 338.33 590.00 328.00 Z" />
<path fill="#000000" opacity="1.00" d=" M 709.33 328.39 C 712.43 327.50 715.78 328.20 718.98 327.99 C 721.15 328.15 723.56 327.54 725.61 328.42 C 726.32 329.82 725.88 331.51 726.03 333.04 C 725.87 341.35 726.18 349.67 725.89 357.97 C 725.70 358.21 725.30 358.67 725.11 358.90 C 719.87 358.90 714.47 359.46 709.34 358.61 C 708.52 352.14 709.23 345.51 709.00 338.98 C 709.17 335.46 708.56 331.84 709.33 328.39 Z" />
<path fill="#000000" opacity="1.00" d=" M 290.42 329.36 C 295.35 328.77 300.72 328.67 305.60 329.41 C 306.56 333.79 305.73 338.50 306.00 343.00 C 305.73 348.19 306.55 353.55 305.61 358.63 C 300.66 359.29 295.36 359.23 290.38 358.66 C 289.45 353.19 290.27 347.48 290.00 341.93 C 290.27 337.76 289.42 333.38 290.42 329.36 Z" />
<path fill="#000000" opacity="1.00" d=" M 149.98 336.90 C 149.92 335.53 150.02 333.59 151.93 334.00 C 155.02 336.59 157.46 339.93 160.99 342.01 C 168.62 349.34 175.96 356.99 183.52 364.41 C 189.03 368.15 193.21 373.41 198.04 377.94 C 200.55 380.29 202.63 383.28 205.91 384.66 C 206.15 400.12 205.90 415.59 206.03 431.05 C 205.92 432.55 206.28 434.20 205.62 435.61 C 204.19 436.29 202.51 435.90 200.99 436.03 C 185.67 435.98 170.35 435.98 155.03 436.03 C 153.50 435.95 151.88 436.21 150.41 435.66 C 149.68 434.24 150.10 432.54 149.97 431.01 C 150.03 399.64 150.00 368.27 149.98 336.90 Z" />
<path fill="#000000" opacity="1.00" d=" M 828.99 336.88 C 828.67 335.31 829.46 334.01 831.03 333.62 C 851.76 366.92 872.87 399.97 893.98 433.03 C 922.67 432.98 951.37 432.98 980.06 433.03 C 981.94 432.62 982.10 434.53 982.02 435.89 C 981.96 464.65 982.05 493.41 981.97 522.16 C 982.34 523.99 980.32 524.09 979.08 524.02 C 929.68 523.96 880.27 524.05 830.87 523.97 C 829.02 524.36 828.87 522.35 828.98 521.08 C 829.01 459.68 829.01 398.28 828.99 336.88 Z" />
<path fill="#000000" opacity="1.00" d=" M 219.00 363.00 C 227.00 363.00 235.00 363.00 243.00 363.00 C 243.00 367.33 243.00 371.66 243.00 376.00 C 235.00 376.00 227.00 376.00 219.00 376.00 C 219.00 371.66 219.00 367.33 219.00 363.00 Z" />
<path fill="#000000" opacity="1.00" d=" M 569.00 380.00 C 580.33 380.00 591.66 380.00 603.00 380.00 C 603.00 384.67 603.00 389.33 603.00 394.00 C 591.66 394.00 580.33 394.00 569.00 394.00 C 569.00 389.33 569.00 384.67 569.00 380.00 Z" />
<path fill="#000000" opacity="1.00" d=" M 639.00 380.00 C 650.33 380.00 661.66 380.00 673.00 380.00 C 673.00 384.67 673.00 389.33 673.00 394.00 C 661.67 394.00 650.33 394.00 639.00 394.00 C 638.99 389.33 638.99 384.67 639.00 380.00 Z" />
<path fill="#000000" opacity="1.00" d=" M 709.00 380.00 C 720.33 380.00 731.66 380.00 743.00 380.00 C 743.00 384.67 743.00 389.33 743.00 394.00 C 731.66 394.00 720.33 394.00 709.00 394.00 C 709.00 389.33 709.00 384.67 709.00 380.00 Z" />
<path fill="#000000" opacity="1.00" d=" M 779.00 380.00 C 790.33 380.00 801.66 380.00 813.00 380.00 C 813.00 384.67 813.00 389.33 813.00 394.00 C 801.66 394.00 790.33 394.00 779.00 394.00 C 778.99 389.33 778.99 384.67 779.00 380.00 Z" />
<path fill="#000000" opacity="1.00" d=" M 208.97 394.02 C 209.22 392.76 208.41 390.56 210.05 390.04 C 212.90 389.31 214.11 392.64 216.15 393.94 C 219.55 396.08 222.19 399.10 225.00 401.92 C 225.00 412.32 224.99 422.72 225.02 433.11 C 225.13 434.39 224.94 436.34 223.13 435.97 C 218.55 435.87 213.87 436.42 209.35 435.67 C 208.80 434.17 209.03 432.54 208.97 431.00 C 209.02 418.67 209.02 406.34 208.97 394.02 Z" />
<path fill="#000000" opacity="1.00" d=" M 228.02 406.88 C 227.63 404.84 230.40 404.33 231.54 405.56 C 236.92 410.54 243.97 413.26 251.02 414.87 C 257.36 415.30 263.73 414.71 270.08 415.10 C 270.28 415.33 270.69 415.79 270.89 416.02 C 271.15 451.05 270.90 486.10 271.02 521.13 C 271.15 522.36 270.91 524.35 269.14 523.98 C 230.41 524.04 191.68 523.96 152.94 524.02 C 151.59 524.14 149.63 523.93 150.03 522.07 C 149.95 495.37 150.04 468.67 149.98 441.97 C 149.86 440.74 150.03 438.65 151.83 439.02 C 177.22 438.97 202.61 439.02 228.00 439.00 C 228.03 428.29 227.95 417.59 228.02 406.88 Z" />
<path fill="#000000" opacity="1.00" d=" M 274.00 415.00 C 283.67 415.00 293.33 415.00 303.00 415.00 C 303.00 451.33 303.00 487.67 303.00 524.00 C 293.33 524.00 283.67 524.00 274.00 524.00 C 274.00 487.67 274.00 451.33 274.00 415.00 Z" />
<path fill="#000000" opacity="1.00" d=" M 306.00 415.00 C 311.67 415.00 317.33 415.00 323.00 415.00 C 323.00 451.33 323.00 487.67 323.00 524.00 C 317.33 524.00 311.67 524.00 306.00 524.00 C 306.00 487.67 306.00 451.33 306.00 415.00 Z" />
<path fill="#000000" opacity="1.00" d=" M 326.00 415.00 C 331.67 415.00 337.33 415.00 343.00 415.00 C 343.00 451.33 343.00 487.67 343.00 524.00 C 337.33 524.00 331.67 524.00 326.00 524.00 C 326.00 487.67 326.00 451.33 326.00 415.00 Z" />
<path fill="#000000" opacity="1.00" d=" M 346.00 415.00 C 351.33 415.10 356.67 414.80 361.99 415.11 C 363.60 415.59 362.77 417.76 363.03 418.98 C 362.97 451.65 363.00 484.33 363.01 517.00 C 362.61 519.15 363.98 522.44 362.03 523.89 C 356.70 524.19 351.34 523.90 346.00 524.00 C 346.00 487.67 346.00 451.33 346.00 415.00 Z" />
<path fill="#000000" opacity="1.00" d=" M 366.37 415.37 C 372.00 414.70 377.95 414.80 383.61 415.32 C 384.53 419.79 383.74 424.49 384.00 429.05 C 383.75 434.57 384.50 440.21 383.65 445.66 C 377.99 446.23 372.03 446.27 366.40 445.65 C 365.44 441.22 366.27 436.51 366.00 431.98 C 366.26 426.46 365.48 420.80 366.37 415.37 Z" />
<path fill="#000000" opacity="1.00" d=" M 387.03 416.88 C 386.93 415.54 387.56 414.92 388.91 415.03 C 405.62 414.93 422.34 415.06 439.05 414.97 C 440.55 415.07 442.20 414.71 443.61 415.38 C 444.30 416.82 443.90 418.51 444.03 420.06 C 443.96 429.04 444.01 438.02 444.00 447.00 C 450.67 447.00 457.33 446.99 464.00 447.00 C 464.00 472.67 464.00 498.33 464.00 524.00 C 431.97 523.98 399.95 524.04 367.92 523.97 C 366.05 524.37 365.87 522.40 365.98 521.08 C 366.01 498.03 366.01 474.98 365.98 451.94 C 365.91 450.70 365.98 448.66 367.80 449.03 C 374.20 448.92 380.60 449.04 387.00 449.00 C 387.03 438.29 386.94 427.59 387.03 416.88 Z" />
<path fill="#000000" opacity="1.00" d=" M 447.37 415.40 C 449.76 414.53 452.45 415.16 454.97 415.00 C 457.84 415.17 460.85 414.54 463.64 415.37 C 464.51 420.14 463.75 425.11 464.00 429.96 C 463.75 434.50 464.51 439.17 463.64 443.62 C 458.33 444.30 452.70 444.20 447.36 443.67 C 446.49 438.86 447.24 433.86 447.00 428.97 C 447.25 424.46 446.47 419.81 447.37 415.40 Z" />
<path fill="#000000" opacity="1.00" d=" M 467.38 415.33 C 472.23 414.58 477.25 415.13 482.16 415.03 C 484.05 414.64 484.04 416.69 484.02 417.97 C 484.00 432.66 483.97 447.36 484.03 462.05 C 483.76 463.22 484.58 465.42 483.01 465.88 C 477.68 466.20 472.33 465.90 467.00 466.00 C 466.98 450.67 467.04 435.35 466.97 420.03 C 467.06 418.46 466.74 416.79 467.38 415.33 Z" />
<path fill="#000000" opacity="1.00" d=" M 487.36 415.39 C 493.97 414.70 500.96 414.79 507.61 415.34 C 508.54 420.42 507.73 425.75 508.00 430.92 C 507.71 435.15 508.59 439.59 507.57 443.68 C 500.92 444.19 493.96 444.30 487.34 443.62 C 486.51 437.49 487.24 431.18 487.00 424.98 C 487.17 421.79 486.54 418.49 487.36 415.39 Z" />
<path fill="#000000" opacity="1.00" d=" M 551.02 416.82 C 550.86 414.10 554.37 415.21 556.01 414.97 C 559.56 415.48 563.78 413.96 566.92 415.81 C 567.13 427.20 566.93 438.60 567.00 450.00 C 561.66 450.00 556.33 450.00 551.00 450.00 C 551.02 438.94 550.95 427.88 551.02 416.82 Z" />
<path fill="#000000" opacity="1.00" d=" M 570.39 415.50 L 570.85 415.09 C 581.92 414.86 593.00 415.08 604.08 414.98 C 605.31 414.85 607.36 415.05 606.98 416.86 C 607.01 451.98 607.02 487.10 606.98 522.21 C 607.33 523.99 605.29 524.08 604.10 524.02 C 593.35 523.96 582.60 524.05 571.85 523.98 C 570.03 524.35 569.86 522.31 569.98 521.08 C 570.02 489.40 569.98 457.71 570.00 426.03 C 570.24 422.55 569.45 418.84 570.39 415.50 Z" />
<path fill="#000000" opacity="1.00" d=" M 610.36 415.37 C 611.80 414.73 613.47 415.06 615.02 414.97 C 623.71 415.07 632.41 414.92 641.11 415.03 C 642.96 414.63 643.11 416.62 643.02 417.92 C 642.98 449.62 643.01 481.32 643.00 513.02 C 642.78 516.54 643.51 520.23 642.61 523.66 C 632.44 524.44 622.09 523.81 611.86 523.98 C 610.03 524.37 609.90 522.37 609.98 521.13 C 610.02 491.09 609.99 461.05 610.00 431.01 C 610.24 425.81 609.50 420.49 610.36 415.37 Z" />
<path fill="#000000" opacity="1.00" d=" M 646.00 415.00 C 649.66 414.99 653.33 414.99 657.00 415.00 C 657.00 419.00 657.00 423.00 657.00 427.00 C 653.33 427.00 649.66 427.00 646.00 427.00 C 645.99 423.00 645.99 419.00 646.00 415.00 Z" />
<path fill="#000000" opacity="1.00" d=" M 668.00 415.00 C 671.66 415.00 675.33 415.00 679.00 415.00 C 679.00 419.00 679.00 423.00 679.00 427.00 C 675.33 427.00 671.66 427.00 668.00 427.00 C 667.99 423.00 667.99 419.00 668.00 415.00 Z" />
<path fill="#000000" opacity="1.00" d=" M 771.45 415.38 C 774.51 414.52 777.85 415.18 781.02 414.97 C 782.44 415.06 785.33 414.49 784.98 416.86 C 784.98 423.62 785.12 430.38 784.91 437.14 C 784.67 437.33 784.19 437.71 783.95 437.90 C 779.77 437.95 775.44 438.42 771.35 437.63 C 770.50 432.49 771.25 427.18 770.99 421.98 C 771.17 419.81 770.48 417.36 771.45 415.38 Z" />
<path fill="#000000" opacity="1.00" d=" M 788.37 415.32 C 789.84 414.85 791.43 415.00 792.97 414.97 C 803.37 415.07 813.78 414.93 824.18 415.02 C 825.96 414.64 826.11 416.71 826.02 417.93 C 825.96 452.66 826.05 487.40 825.97 522.13 C 826.35 523.98 824.30 524.11 823.03 524.02 C 811.97 523.96 800.91 524.05 789.85 523.98 C 788.05 524.35 787.86 522.35 787.98 521.11 C 788.01 488.09 788.01 455.07 787.99 422.04 C 788.07 419.81 787.66 417.47 788.37 415.32 Z" />
<path fill="#000000" opacity="1.00" d=" M 646.00 430.00 C 649.66 430.00 653.33 430.00 657.00 430.00 C 657.00 434.33 657.00 438.66 657.00 443.00 C 653.33 443.00 649.66 443.00 646.00 443.00 C 645.99 438.66 645.99 434.33 646.00 430.00 Z" />
<path fill="#000000" opacity="1.00" d=" M 668.00 430.00 C 671.66 429.99 675.33 429.99 679.00 430.00 C 679.00 434.33 679.00 438.66 679.00 443.00 C 675.33 443.00 671.66 443.00 668.00 443.00 C 667.99 438.66 667.99 434.33 668.00 430.00 Z" />
<path fill="#000000" opacity="1.00" d=" M 771.40 441.36 C 774.49 440.55 777.81 441.16 780.99 440.97 C 782.42 441.09 785.32 440.45 784.97 442.84 C 785.06 468.57 784.94 494.30 785.03 520.03 C 784.75 521.21 785.60 523.43 783.99 523.89 C 779.99 524.11 775.96 524.10 771.97 523.88 C 770.43 523.40 771.21 521.24 770.97 520.07 C 771.02 495.38 771.02 470.69 770.97 445.99 C 771.09 444.46 770.67 442.77 771.40 441.36 Z" />
<path fill="#000000" opacity="1.00" d=" M 646.00 446.00 C 649.66 445.99 653.33 445.99 657.00 446.00 C 657.00 449.66 657.00 453.33 657.00 457.00 C 653.33 457.00 649.66 457.00 646.00 457.00 C 645.99 453.33 645.99 449.67 646.00 446.00 Z" />
<path fill="#000000" opacity="1.00" d=" M 487.35 447.34 C 492.82 446.52 498.45 447.25 503.98 446.97 C 505.39 447.07 508.34 446.48 507.98 448.87 C 507.83 454.44 508.44 460.13 507.66 465.64 C 501.21 466.42 494.56 465.92 488.05 465.90 C 487.81 465.71 487.33 465.35 487.09 465.16 C 487.09 459.24 486.58 453.19 487.35 447.34 Z" />
<path fill="#000000" opacity="1.00" d=" M 551.00 453.00 C 556.33 453.00 561.66 453.00 567.00 453.00 C 566.91 457.01 567.19 461.03 566.89 465.03 C 566.68 465.25 566.24 465.68 566.03 465.89 C 561.16 465.96 556.18 466.38 551.37 465.67 C 550.48 461.54 551.23 457.21 551.00 453.00 Z" />
<path fill="#000000" opacity="1.00" d=" M 468.03 470.92 C 467.63 468.51 470.48 469.04 471.97 468.97 C 483.84 469.29 495.84 468.49 507.63 469.36 C 508.50 478.14 507.75 487.14 508.00 496.00 C 494.66 496.00 481.33 496.00 468.00 496.00 C 468.03 487.64 467.94 479.27 468.03 470.92 Z" />
<path fill="#000000" opacity="1.00" d=" M 551.38 469.38 C 554.13 468.53 557.14 469.18 560.00 468.99 C 562.17 469.16 564.58 468.53 566.63 469.42 C 567.45 472.15 566.84 475.13 567.00 477.96 C 566.79 482.17 567.44 486.48 566.68 490.65 C 561.66 491.25 556.36 491.26 551.35 490.64 C 550.52 486.87 551.20 482.91 551.00 479.07 C 551.18 475.85 550.52 472.49 551.38 469.38 Z" />
<path fill="#000000" opacity="1.00" d=" M 673.33 472.38 C 677.50 471.53 681.90 472.15 686.16 472.02 C 687.95 471.67 688.14 473.67 688.02 474.93 C 687.99 490.33 687.99 505.72 688.02 521.12 C 688.15 522.34 687.93 524.30 686.19 523.98 C 682.11 524.01 678.02 524.13 673.96 523.90 C 673.74 523.69 673.31 523.26 673.10 523.04 C 672.84 507.73 673.11 492.40 672.97 477.08 C 673.02 475.51 672.80 473.88 673.33 472.38 Z" />
<path fill="#000000" opacity="1.00" d=" M 691.42 472.34 C 695.57 471.56 699.92 472.13 704.14 472.02 C 705.98 471.63 706.10 473.67 706.02 474.93 C 705.99 490.29 705.99 505.65 706.02 521.01 C 706.09 522.21 706.01 524.36 704.18 523.98 C 700.12 524.00 696.05 524.14 692.01 523.89 C 691.78 523.68 691.33 523.25 691.11 523.04 C 690.83 507.71 691.11 492.36 690.97 477.03 C 691.10 475.48 690.65 473.75 691.42 472.34 Z" />
<path fill="#000000" opacity="1.00" d=" M 709.34 472.36 C 713.85 471.54 718.56 472.15 723.15 472.02 C 725.00 471.63 725.09 473.70 725.02 474.96 C 724.99 490.33 724.99 505.70 725.02 521.06 C 725.09 522.29 725.00 524.34 723.18 523.98 C 718.58 523.86 713.88 524.42 709.35 523.66 C 709.27 523.27 709.11 522.47 709.03 522.07 C 708.93 507.03 709.06 491.98 708.97 476.93 C 709.02 475.41 708.81 473.82 709.34 472.36 Z" />
<path fill="#000000" opacity="1.00" d=" M 728.37 472.38 C 733.15 471.51 738.18 472.17 743.06 472.03 C 744.99 471.61 745.09 473.61 745.02 474.98 C 744.96 490.70 745.05 506.42 744.97 522.13 C 745.36 524.03 743.29 524.07 742.01 524.02 C 737.68 523.93 733.34 524.19 729.03 523.88 C 727.38 523.48 728.23 521.17 727.97 519.98 C 728.02 505.67 728.02 491.36 727.97 477.05 C 728.06 475.50 727.72 473.83 728.37 472.38 Z" />
<path fill="#000000" opacity="1.00" d=" M 748.38 472.33 C 752.51 471.53 756.80 472.23 761.00 471.99 C 763.18 472.14 765.58 471.54 767.64 472.42 C 768.26 473.85 767.91 475.50 768.03 477.02 C 767.94 492.07 768.06 507.11 767.98 522.15 C 768.37 523.94 766.32 524.12 765.11 524.02 C 759.74 523.91 754.35 524.19 748.99 523.88 C 747.41 523.43 748.23 521.19 747.97 520.02 C 748.02 505.70 748.02 491.38 747.97 477.06 C 748.06 475.49 747.72 473.80 748.38 472.33 Z" />
<path fill="#000000" opacity="1.00" d=" M 551.37 494.34 C 555.88 493.58 560.56 494.13 565.14 494.02 C 567.49 493.67 566.94 496.53 567.03 497.96 C 566.69 506.50 567.55 515.21 566.61 523.65 C 562.12 524.43 557.44 523.86 552.89 523.98 C 550.49 524.35 551.05 521.45 550.97 520.01 C 551.29 511.46 550.47 502.79 551.37 494.34 Z" />
<path fill="#000000" opacity="1.00" d=" M 468.00 499.00 C 481.33 499.00 494.67 499.00 508.00 499.00 C 507.74 507.21 508.51 515.54 507.63 523.67 C 495.84 524.47 483.88 523.73 472.03 524.03 C 470.52 523.91 467.61 524.53 468.03 522.08 C 467.93 514.39 468.04 506.69 468.00 499.00 Z" />
</g>
</svg>
