<?xml version="1.0" standalone="no"?>
<!DOCTYPE svg PUBLIC "-//W3C//DTD SVG 20010904//EN"
 "http://www.w3.org/TR/2001/REC-SVG-20010904/DTD/svg10.dtd">
<svg version="1.0" xmlns="http://www.w3.org/2000/svg"
 width="960.000000pt" height="634.000000pt" viewBox="0 0 960.000000 634.000000"
 preserveAspectRatio="xMidYMid meet">
<metadata>
Created by potrace 1.12, written by Peter Selinger 2001-2015
</metadata>
<g transform="translate(0.000000,634.000000) scale(0.100000,-0.100000)"
fill="#000000" stroke="none">
<path d="M480 5355 l0 -945 855 0 855 0 0 -335 0 -335 1350 0 1350 0 0 -480 0
-480 675 0 675 0 0 1760 0 1760 -2880 0 -2880 0 0 -945z"/>
<path d="M6270 5680 l0 -620 415 0 415 0 0 -1980 0 -1980 1230 0 1230 0 0
2600 0 2600 -1645 0 -1645 0 0 -620z"/>
<path d="M6270 3905 l0 -1125 400 0 400 0 0 1125 0 1125 -400 0 -400 0 0
-1125z"/>
<path d="M480 3580 l0 -800 470 0 470 0 0 800 0 800 -470 0 -470 0 0 -800z"/>
<path d="M1450 3580 l0 -800 185 0 185 0 0 800 0 800 -185 0 -185 0 0 -800z"/>
<path d="M1850 3580 l0 -800 155 0 155 0 0 800 0 800 -155 0 -155 0 0 -800z"/>
<path d="M2190 3245 l0 -465 405 0 405 0 0 465 0 465 -405 0 -405 0 0 -465z"/>
<path d="M3030 3245 l0 -465 380 0 380 0 0 465 0 465 -380 0 -380 0 0 -465z"/>
<path d="M3820 3245 l0 -465 240 0 240 0 0 465 0 465 -240 0 -240 0 0 -465z"/>
<path d="M4330 3245 l0 -465 265 0 265 0 0 465 0 465 -265 0 -265 0 0 -465z"/>
<path d="M630 2570 l0 -100 240 0 240 0 0 100 0 100 -240 0 -240 0 0 -100z"/>
<path d="M40 1875 l0 -775 205 0 205 0 0 775 0 775 -205 0 -205 0 0 -775z"/>
<path d="M981 2260 c-107 -50 -196 -91 -197 -93 -4 -4 137 -222 146 -225 7 -3
399 153 408 163 4 3 -152 245 -158 245 -3 0 -92 -41 -199 -90z"/>
<path d="M1232 2327 c7 -13 40 -67 73 -120 l60 -97 228 0 227 0 0 120 0 120
-300 0 -301 0 13 -23z"/>
<path d="M1850 2230 l0 -120 270 0 270 0 0 120 0 120 -270 0 -270 0 0 -120z"/>
<path d="M2420 2230 l0 -120 140 0 140 0 0 120 0 120 -140 0 -140 0 0 -120z"/>
<path d="M2730 2230 l0 -120 340 0 340 0 0 120 0 120 -340 0 -340 0 0 -120z"/>
<path d="M3440 2230 l0 -120 175 0 175 0 0 120 0 120 -175 0 -175 0 0 -120z"/>
<path d="M1151 1994 c-113 -46 -206 -85 -207 -87 -3 -3 85 -149 100 -165 10
-10 51 3 209 68 192 78 198 80 282 80 l85 0 0 95 0 95 -132 -1 -133 -1 -204
-84z"/>
<path d="M1650 1985 l0 -95 255 0 255 0 0 95 0 95 -255 0 -255 0 0 -95z"/>
<path d="M4120 1940 l0 -140 155 0 155 0 0 140 0 140 -155 0 -155 0 0 -140z"/>
<path d="M4460 1590 l0 -490 475 0 475 0 0 490 0 490 -475 0 -475 0 0 -490z"/>
<path d="M5440 1590 l0 -490 400 0 400 0 0 490 0 490 -400 0 -400 0 0 -490z"/>
<path d="M6270 1590 l0 -490 400 0 400 0 0 490 0 490 -400 0 -400 0 0 -490z"/>
<path d="M480 1505 l0 -405 840 0 840 0 0 380 0 380 -355 0 -355 0 -201 -81
c-111 -44 -207 -78 -213 -76 -6 3 -38 50 -71 105 l-60 101 -212 1 -213 0 0
-405z"/>
<path d="M4120 1620 l0 -150 155 0 155 0 0 150 0 150 -155 0 -155 0 0 -150z"/>
<path d="M4120 1270 l0 -170 155 0 155 0 0 170 0 170 -155 0 -155 0 0 -170z"/>
<path d="M3580 1220 l0 -120 255 0 255 0 0 120 0 120 -255 0 -255 0 0 -120z"/>
<path d="M484 1008 c30 -234 161 -447 366 -595 65 -48 212 -108 313 -130 88
-18 261 -13 357 12 336 88 594 377 634 713 l7 52 -842 0 -842 0 7 -52z"/>
</g>
</svg>
