<?xml version="1.0" standalone="no"?>
<!DOCTYPE svg PUBLIC "-//W3C//DTD SVG 20010904//EN"
 "http://www.w3.org/TR/2001/REC-SVG-20010904/DTD/svg10.dtd">
<svg version="1.0" xmlns="http://www.w3.org/2000/svg"
 width="961.000000pt" height="738.000000pt" viewBox="0 0 961.000000 738.000000"
 preserveAspectRatio="xMidYMid meet">
<metadata>
Created by potrace 1.12, written by Peter Selinger 2001-2015
</metadata>
<g transform="translate(0.000000,738.000000) scale(0.100000,-0.100000)"
fill="#000000" stroke="none">
<path d="M4140 6235 l0 -1105 455 0 455 0 0 -615 0 -615 650 0 650 0 0 315 0
315 295 0 295 0 0 1405 0 1405 -1400 0 -1400 0 0 -1105z"/>
<path d="M6970 6355 l0 -985 295 0 295 0 0 -310 0 -310 875 0 875 0 0 1295 0
1295 -1170 0 -1170 0 0 -985z"/>
<path d="M40 4565 l0 -535 125 0 125 0 1 -787 c0 -434 0 -877 -1 -985 -1 -183
0 -197 17 -197 10 0 61 0 113 -1 120 -1 162 6 224 37 95 48 151 99 214 193 76
114 70 1 71 1483 l1 1327 -445 0 -445 0 0 -535z"/>
<path d="M960 4130 c0 -769 3 -970 13 -970 6 0 35 7 62 15 452 129 548 156
635 180 47 12 104 28 128 34 l42 12 0 849 0 850 -440 0 -440 0 0 -970z"/>
<path d="M1870 4254 l0 -846 57 7 c32 3 60 8 63 10 3 1 30 6 60 9 30 4 66 8
80 11 14 2 70 11 125 19 55 9 116 18 135 21 74 11 237 35 275 40 22 3 68 10
103 16 l62 11 0 774 0 774 -480 0 -480 0 0 -846z"/>
<path d="M2860 4340 l0 -760 947 0 946 0 34 38 c19 20 58 63 86 95 29 33 73
82 99 110 l48 52 0 613 0 612 -1080 0 -1080 0 0 -760z"/>
<path d="M7560 4310 l0 -410 875 0 875 0 0 410 0 410 -875 0 -875 0 0 -410z"/>
<path d="M7560 3415 l0 -455 445 0 445 0 0 455 0 455 -445 0 -445 0 0 -455z"/>
<path d="M8480 3400 l0 -470 -610 0 -610 0 0 -245 0 -245 1025 0 1025 0 0 715
0 715 -415 0 -415 0 0 -470z"/>
<path d="M2750 3515 c-41 -7 -93 -16 -115 -19 -22 -3 -51 -8 -65 -11 -14 -2
-41 -6 -60 -9 -19 -3 -78 -12 -130 -20 -52 -9 -117 -18 -145 -21 -27 -3 -57
-8 -65 -10 -8 -2 -35 -7 -60 -10 -25 -3 -56 -8 -70 -10 -14 -2 -45 -7 -70 -10
-45 -6 -76 -11 -129 -20 -16 -3 -96 -25 -177 -49 -168 -50 -322 -93 -469 -131
-55 -14 -130 -35 -167 -46 l-68 -20 0 -337 0 -337 -27 -70 c-45 -118 -91 -181
-184 -257 -94 -76 -159 -95 -326 -97 -70 -1 -129 -4 -131 -6 -3 -2 -4 -138 -3
-302 2 -262 11 -408 27 -434 3 -5 14 -43 25 -86 11 -43 30 -103 42 -133 21
-55 124 -250 136 -260 4 -3 37 -42 74 -87 38 -46 96 -108 130 -138 80 -73 248
-186 331 -224 65 -29 211 -75 276 -86 19 -4 60 -11 90 -16 30 -5 360 -9 733
-9 l677 0 0 475 0 475 -225 0 -225 0 0 890 0 890 225 0 225 0 0 275 c0 151 -1
274 -2 274 -2 -1 -37 -7 -78 -14z"/>
<path d="M4520 2805 l0 -515 250 0 250 0 0 515 0 515 -250 0 -250 0 0 -515z"/>
<path d="M5250 2805 l0 -515 195 0 195 0 0 515 0 515 -195 0 -195 0 0 -515z"/>
<path d="M5870 3135 l0 -185 375 0 375 0 0 185 0 185 -375 0 -375 0 0 -185z"/>
<path d="M6850 3185 l0 -135 220 0 220 0 0 135 0 135 -220 0 -220 0 0 -135z"/>
<path d="M2410 2090 l0 -860 210 0 210 0 0 860 0 860 -210 0 -210 0 0 -860z"/>
<path d="M3910 2525 l0 -425 105 0 105 0 0 425 0 425 -105 0 -105 0 0 -425z"/>
<path d="M5870 2475 l0 -185 375 0 375 0 0 185 0 185 -375 0 -375 0 0 -185z"/>
<path d="M7260 1330 l0 -1080 600 0 600 0 0 -100 0 -100 550 0 550 0 0 550 0
550 -125 0 -125 0 0 630 0 630 -1025 0 -1025 0 0 -1080z"/>
<path d="M3910 1820 l0 -250 -525 0 -525 0 0 -760 0 -760 560 0 560 0 0 100 0
100 845 0 845 0 0 -69 0 -68 38 -7 c20 -4 82 -11 137 -16 55 -5 132 -15 170
-21 40 -7 221 -13 418 -16 l347 -4 0 101 0 100 225 0 225 0 0 910 0 910 -1660
0 -1660 0 0 -250z"/>
</g>
</svg>
