<?xml version="1.0" standalone="no"?>
<!DOCTYPE svg PUBLIC "-//W3C//DTD SVG 20010904//EN"
 "http://www.w3.org/TR/2001/REC-SVG-20010904/DTD/svg10.dtd">
<svg version="1.0" xmlns="http://www.w3.org/2000/svg"
 width="900.000000pt" height="709.000000pt" viewBox="0 0 900.000000 709.000000"
 preserveAspectRatio="xMidYMid meet">
<metadata>
Created by potrace 1.12, written by Peter Selinger 2001-2015
</metadata>
<g transform="translate(0.000000,709.000000) scale(0.100000,-0.100000)"
fill="#000000" stroke="none">
<path d="M3990 5975 l0 -1075 -360 0 -360 0 0 -925 0 -925 655 0 655 0 0
-1410 0 -1410 775 0 775 0 0 -95 0 -95 200 0 200 0 0 95 0 95 1215 0 1215 0 0
3410 0 3410 -2485 0 -2485 0 0 -1075z"/>
<path d="M40 4385 l0 -515 120 0 120 0 1 -1222 c0 -673 2 -1241 4 -1263 4 -45
15 -138 21 -175 6 -41 50 -170 81 -240 73 -159 211 -341 341 -445 41 -33 84
-68 96 -79 36 -32 256 -135 345 -163 102 -31 271 -60 318 -55 l33 4 0 404 0
404 430 0 430 0 0 430 0 430 -430 0 -430 0 0 1500 0 1500 -740 0 -740 0 0
-515z"/>
<path d="M1550 4345 l0 -555 435 0 435 0 0 -370 0 -370 410 0 410 0 0 925 0
925 -845 0 -845 0 0 -555z"/>
<path d="M1550 2850 l0 -910 415 0 415 0 0 910 0 910 -415 0 -415 0 0 -910z"/>
<path d="M2420 1875 l0 -1145 825 0 825 0 0 1145 0 1145 -825 0 -825 0 0
-1145z"/>
<path d="M4100 2865 l0 -155 225 0 225 0 0 155 0 155 -225 0 -225 0 0 -155z"/>
<path d="M4100 1860 l0 -820 225 0 225 0 0 820 0 820 -225 0 -225 0 0 -820z"/>
<path d="M1550 620 l0 -390 605 0 605 0 0 -95 0 -95 240 0 240 0 0 330 0 330
-430 0 -430 0 0 155 0 155 -415 0 -415 0 0 -390z"/>
<path d="M4100 855 l0 -155 -415 0 -415 0 0 -330 0 -330 270 0 270 0 0 95 0
95 370 0 370 0 0 390 0 390 -225 0 -225 0 0 -155z"/>
</g>
</svg>
