<?xml version="1.0" standalone="no"?>
<!DOCTYPE svg PUBLIC "-//W3C//DTD SVG 20010904//EN"
 "http://www.w3.org/TR/2001/REC-SVG-20010904/DTD/svg10.dtd">
<svg version="1.0" xmlns="http://www.w3.org/2000/svg"
 width="960.000000pt" height="618.000000pt" viewBox="0 0 960.000000 618.000000"
 preserveAspectRatio="xMidYMid meet">
<metadata>
Created by potrace 1.13, written by Peter Selinger 2001-2015
</metadata>
<g transform="translate(0.000000,618.000000) scale(0.100000,-0.100000)"
fill="#000000" stroke="none">
<path d="M40 5310 l0 -830 860 0 860 0 0 235 0 235 775 0 775 0 0 595 0 595
-1635 0 -1635 0 0 -830z"/>
<path d="M1790 4700 l0 -220 760 0 760 0 0 220 0 220 -760 0 -760 0 0 -220z"/>
<path d="M40 4245 l0 -205 540 0 540 0 0 205 0 205 -540 0 -540 0 0 -205z"/>
<path d="M1790 4260 l0 -190 760 0 760 0 0 190 0 190 -760 0 -760 0 0 -190z"/>
<path d="M1790 3810 l0 -230 760 0 760 0 0 230 0 230 -760 0 -760 0 0 -230z"/>
<path d="M40 3800 l0 -210 540 0 540 0 0 210 0 210 -540 0 -540 0 0 -210z"/>
<path d="M7010 3730 c0 -17 -7 -20 -45 -20 l-45 0 0 -1020 0 -1020 205 0 205
0 0 1040 0 1040 -160 0 c-153 0 -160 -1 -160 -20z"/>
<path d="M7360 2695 l0 -1055 -110 0 -110 0 0 -130 0 -130 1210 0 1210 0 0
760 0 760 -430 0 -430 0 0 405 0 405 -60 0 c-53 0 -60 2 -60 20 0 20 -7 20
-610 20 l-610 0 0 -1055z"/>
<path d="M3340 2690 l0 -1020 305 0 305 0 0 1020 0 1020 -305 0 -305 0 0
-1020z"/>
<path d="M3980 2690 l0 -1020 325 0 325 0 0 1020 0 1020 -325 0 -325 0 0
-1020z"/>
<path d="M4660 2945 l0 -765 225 0 225 0 0 -255 0 -255 200 0 200 0 0 1020 0
1020 -425 0 -425 0 0 -765z"/>
<path d="M5540 2690 l0 -1020 210 0 210 0 0 255 0 255 115 0 115 0 0 640 0
640 -225 0 -225 0 0 125 0 125 -100 0 -100 0 0 -1020z"/>
<path d="M5770 3600 l0 -110 225 0 225 0 0 -655 0 -655 110 0 110 0 0 -255 0
-255 225 0 225 0 0 1020 0 1020 -560 0 -560 0 0 -110z"/>
<path d="M40 3350 l0 -210 540 0 540 0 0 210 0 210 -540 0 -540 0 0 -210z"/>
<path d="M1790 3014 l0 -536 119 -119 119 -119 641 0 641 0 0 655 0 655 -760
0 -760 0 0 -536z"/>
<path d="M40 2900 l0 -210 540 0 540 0 0 210 0 210 -540 0 -540 0 0 -210z"/>
<path d="M40 2450 l0 -210 425 0 c423 0 425 0 443 21 9 12 61 66 115 120 l97
98 0 91 0 90 -540 0 -540 0 0 -210z"/>
<path d="M40 2000 l0 -210 415 0 415 0 0 210 0 210 -415 0 -415 0 0 -210z"/>
<path d="M2050 1994 l0 -216 55 -54 54 -54 126 0 125 0 0 270 0 270 -180 0
-180 0 0 -216z"/>
<path d="M2440 1940 l0 -270 195 0 195 0 0 270 0 270 -195 0 -195 0 0 -270z"/>
<path d="M2860 1940 l0 -270 225 0 225 0 0 270 0 270 -225 0 -225 0 0 -270z"/>
<path d="M4660 1915 l0 -235 210 0 210 0 0 235 0 235 -210 0 -210 0 0 -235z"/>
<path d="M5990 1910 l0 -240 210 0 210 0 0 240 0 240 -210 0 -210 0 0 -240z"/>
<path d="M40 1470 l0 -290 260 0 260 0 0 80 0 80 155 0 155 0 0 210 0 210
-415 0 -415 0 0 -290z"/>
<path d="M2063 1395 l-53 -53 0 -87 0 -87 55 -54 54 -54 516 0 515 0 55 54 55
53 0 87 0 86 -54 55 -53 55 -519 0 -519 -1 -52 -54z"/>
<path d="M7140 835 l0 -515 325 0 325 0 0 -140 0 -140 885 0 885 0 0 655 0
655 -1210 0 -1210 0 0 -515z"/>
<path d="M590 1100 l0 -210 140 0 140 0 0 210 0 210 -140 0 -140 0 0 -210z"/>
<path d="M40 1020 l0 -130 260 0 260 0 0 130 0 130 -260 0 -260 0 0 -130z"/>
<path d="M40 365 l0 -325 285 0 285 0 0 325 0 325 -285 0 -285 0 0 -325z"/>
<path d="M640 565 l0 -125 775 0 775 0 0 125 0 125 -775 0 -775 0 0 -125z"/>
<path d="M2220 365 l0 -325 150 0 150 0 0 325 0 325 -150 0 -150 0 0 -325z"/>
<path d="M2550 365 l0 -325 235 0 235 0 0 325 0 325 -235 0 -235 0 0 -325z"/>
<path d="M3340 375 l0 -315 315 0 315 0 0 315 0 315 -315 0 -315 0 0 -315z"/>
<path d="M4000 375 l0 -315 315 0 315 0 0 315 0 315 -315 0 -315 0 0 -315z"/>
<path d="M4660 365 l0 -325 195 0 195 0 0 325 0 325 -195 0 -195 0 0 -325z"/>
<path d="M5080 365 l0 -325 220 0 220 0 0 325 0 325 -220 0 -220 0 0 -325z"/>
<path d="M5550 300 l0 -260 205 0 205 0 0 260 0 260 -205 0 -205 0 0 -260z"/>
<path d="M5990 300 l0 -260 215 0 215 0 0 210 0 210 85 0 85 0 0 50 0 50 -300
0 -300 0 0 -260z"/>
<path d="M6780 530 l0 -30 70 0 c63 0 70 -2 70 -20 0 -19 7 -20 95 -20 l95 0
0 50 0 50 -165 0 -165 0 0 -30z"/>
<path d="M640 225 l0 -185 190 0 190 0 0 185 0 185 -190 0 -190 0 0 -185z"/>
<path d="M1050 225 l0 -185 160 0 160 0 0 185 0 185 -160 0 -160 0 0 -185z"/>
<path d="M1400 225 l0 -185 215 0 215 0 0 185 0 185 -215 0 -215 0 0 -185z"/>
<path d="M1860 225 l0 -185 165 0 165 0 0 185 0 185 -165 0 -165 0 0 -185z"/>
</g>
</svg>
