<?xml version="1.0" encoding="UTF-8" ?>
<!DOCTYPE svg PUBLIC "-//W3C//DTD SVG 1.1//EN" "http://www.w3.org/Graphics/SVG/1.1/DTD/svg11.dtd">
<svg width="900pt" height="579pt" viewBox="0 0 900 579" version="1.1" xmlns="http://www.w3.org/2000/svg">
<g id="#000000ff">
<path fill="#000000" opacity="1.00" d=" M 4.00 4.00 C 190.00 4.00 376.00 4.00 562.00 4.00 C 562.06 9.35 561.89 14.70 562.03 20.04 C 561.83 21.41 562.96 22.32 563.77 23.22 C 568.64 28.09 573.46 33.02 578.26 37.97 C 590.84 38.03 603.42 37.98 616.00 38.00 C 616.00 46.00 616.00 54.00 616.00 62.00 C 647.67 62.00 679.33 62.00 711.00 62.00 C 711.00 73.33 711.00 84.67 711.00 96.00 C 736.67 96.00 762.33 96.00 788.00 96.00 C 788.00 231.00 788.00 366.00 788.00 501.00 C 526.67 501.00 265.33 501.00 4.00 501.00 C 4.00 445.00 4.00 389.00 4.00 333.00 C 26.33 333.00 48.67 333.00 71.00 333.00 C 71.00 296.00 71.00 259.00 71.00 222.00 C 48.67 222.00 26.33 222.00 4.00 222.00 C 4.00 149.33 4.00 76.67 4.00 4.00 Z" />
<path fill="#000000" opacity="1.00" d=" M 565.00 4.00 C 642.34 4.00 719.69 4.01 797.03 3.99 C 803.74 3.76 810.64 3.63 817.04 5.99 C 828.92 8.78 839.01 16.13 848.25 23.78 C 858.52 33.71 867.56 44.93 874.51 57.43 C 881.28 70.97 887.28 85.02 890.58 99.84 C 892.77 110.80 895.06 121.81 896.00 132.96 C 896.01 208.64 896.00 284.32 896.00 360.00 C 861.33 360.00 826.67 360.00 792.00 360.00 C 792.02 317.35 791.96 274.70 792.03 232.05 C 792.12 230.72 791.81 229.50 791.12 228.37 C 790.84 183.25 791.08 138.12 791.00 93.00 C 765.33 93.00 739.67 93.00 714.00 93.00 C 714.00 81.67 714.00 70.33 714.00 59.00 C 682.33 59.00 650.67 59.00 619.00 59.00 C 619.00 51.00 619.00 43.00 619.00 35.00 C 605.81 34.99 592.62 35.02 579.43 34.99 C 574.82 29.70 569.83 24.77 565.00 19.69 C 565.00 14.46 565.00 9.23 565.00 4.00 Z" />
<path fill="#000000" opacity="1.00" d=" M 4.00 226.00 C 25.00 226.00 46.00 226.00 67.00 226.00 C 67.00 260.67 67.00 295.33 67.00 330.00 C 46.00 330.00 25.00 330.00 4.00 330.00 C 4.00 295.33 4.00 260.67 4.00 226.00 Z" />
</g>
</svg>
