<?xml version="1.0" standalone="no"?>
<!DOCTYPE svg PUBLIC "-//W3C//DTD SVG 20010904//EN"
 "http://www.w3.org/TR/2001/REC-SVG-20010904/DTD/svg10.dtd">
<svg version="1.0" xmlns="http://www.w3.org/2000/svg"
 width="900.000000pt" height="627.000000pt" viewBox="0 0 900.000000 627.000000"
 preserveAspectRatio="xMidYMid meet">
<metadata>
Created by potrace 1.12, written by Peter Selinger 2001-2015
</metadata>
<g transform="translate(0.000000,627.000000) scale(0.100000,-0.100000)"
fill="#000000" stroke="none">
<path d="M81 6191 c12 -19 111 -191 221 -381 110 -190 209 -357 219 -372 10
-15 19 -29 19 -32 0 -8 91 -160 106 -177 12 -13 61 -16 373 -17 l360 -2 7 22
c4 13 21 42 37 66 l31 43 -3 147 c-1 81 -5 149 -7 151 -2 3 -67 5 -144 5
l-139 1 -62 65 c-34 36 -162 167 -283 293 l-220 227 -268 -2 -268 -2 21 -35z"/>
<path d="M698 6166 c31 -34 80 -86 108 -116 28 -30 72 -77 99 -105 26 -27 94
-101 152 -162 l106 -113 156 0 157 0 1 -27 c1 -16 2 -76 3 -135 1 -59 5 -110
10 -113 5 -3 34 19 65 49 57 57 111 96 178 131 l38 20 -3 315 -3 315 -562 1
-562 0 57 -60z"/>
<path d="M1800 5920 c0 -170 4 -310 9 -310 5 0 28 7 52 15 24 9 60 18 79 21
19 3 53 10 75 15 22 4 169 9 328 9 l287 0 0 280 0 280 -415 0 -415 0 0 -310z"/>
<path d="M2660 5950 l0 -280 225 0 225 0 0 280 0 280 -225 0 -225 0 0 -280z"/>
<path d="M3140 5950 l0 -280 385 0 385 0 0 280 0 280 -385 0 -385 0 0 -280z"/>
<path d="M4110 5924 l0 -306 59 -81 c32 -45 74 -104 93 -132 19 -27 81 -114
136 -191 l102 -142 0 -436 0 -436 170 0 170 0 0 440 0 440 143 197 c78 109
154 214 167 233 14 19 27 37 30 40 3 3 16 19 28 37 22 30 22 38 22 337 l0 306
-560 0 -560 0 0 -306z"/>
<path d="M5260 5918 l-1 -313 -195 -265 -195 -265 2 -451 2 -452 26 -29 c14
-15 61 -69 105 -118 111 -127 194 -221 243 -274 23 -25 43 -49 43 -53 0 -5
492 -8 1093 -8 l1094 0 11 23 c6 12 24 45 40 72 16 28 72 124 124 215 52 91
130 226 173 300 43 74 88 153 100 175 13 22 91 159 175 305 84 146 229 398
322 560 94 162 174 302 179 310 5 8 74 130 155 270 80 140 150 259 155 264 5
6 9 17 9 26 0 16 -139 17 -1830 19 l-1830 2 0 -313z"/>
<path d="M2029 5346 c-105 -37 -166 -106 -208 -235 -7 -23 -11 -198 -11 -547
l0 -514 65 0 65 0 0 -305 0 -305 585 0 585 0 0 180 0 180 360 0 360 0 0 780 0
780 -882 0 c-696 -1 -891 -4 -919 -14z"/>
<path d="M1144 4371 c9 -10 16 -20 16 -23 0 -4 24 -48 54 -100 29 -51 65 -113
79 -138 l25 -45 136 -3 136 -3 0 166 0 165 -231 -1 c-219 0 -230 -1 -215 -18z"/>
<path d="M3140 3590 l0 -180 -600 0 -600 0 0 -75 0 -74 -79 -3 -80 -3 45 -73
c24 -40 44 -75 44 -78 0 -3 8 -18 19 -32 10 -15 29 -47 43 -72 40 -72 250
-434 258 -445 4 -5 24 -41 45 -80 21 -38 44 -77 51 -86 8 -8 14 -19 14 -23 0
-4 9 -21 21 -37 l20 -29 1095 0 1094 0 0 610 0 610 -350 0 -350 0 0 125 0 125
-345 0 -345 0 0 -180z"/>
<path d="M4560 2896 l0 -626 -1100 0 c-605 0 -1100 -3 -1100 -6 0 -7 20 -42
230 -404 100 -173 195 -337 209 -363 26 -46 57 -69 166 -123 17 -8 37 -19 45
-24 8 -5 71 -40 140 -78 130 -71 139 -76 435 -237 99 -54 214 -117 255 -140
41 -23 104 -58 138 -76 81 -43 165 -89 222 -121 61 -34 309 -170 425 -233 76
-41 112 -61 370 -203 116 -63 235 -128 265 -145 30 -16 68 -37 84 -46 32 -18
33 -17 87 78 42 73 128 223 231 401 156 269 315 546 397 688 42 73 81 140 86
150 6 9 48 82 93 162 46 80 88 152 93 160 10 17 170 295 204 355 12 22 66 117
120 210 350 607 425 738 425 746 0 5 3 9 8 9 4 0 13 15 21 33 8 17 19 39 26
47 7 8 26 40 42 70 17 30 63 111 103 180 39 69 76 132 80 140 7 14 -142 16
-1396 18 l-1404 3 0 -625z"/>
</g>
</svg>
