<?xml version="1.0" standalone="no"?>
<!DOCTYPE svg PUBLIC "-//W3C//DTD SVG 20010904//EN"
 "http://www.w3.org/TR/2001/REC-SVG-20010904/DTD/svg10.dtd">
<svg version="1.0" xmlns="http://www.w3.org/2000/svg"
 width="960.000000pt" height="645.000000pt" viewBox="0 0 960.000000 645.000000"
 preserveAspectRatio="xMidYMid meet">
<metadata>
Created by potrace 1.13, written by Peter Selinger 2001-2015
</metadata>
<g transform="translate(0.000000,645.000000) scale(0.100000,-0.100000)"
fill="#000000" stroke="none">
<path d="M40 5245 l0 -1165 355 0 355 0 0 -590 0 -590 -355 0 -355 0 0 -895 0
-895 4185 0 4185 0 0 2160 0 2160 -410 0 -410 0 0 180 0 180 -510 0 -510 0 0
130 0 130 -208 0 -208 0 -28 33 c-16 17 -50 56 -77 85 l-49 53 0 95 0 94
-2980 0 -2980 0 0 -1165z"/>
<path d="M6030 6322 l0 -87 73 -78 73 -77 212 0 212 0 0 -130 0 -130 510 0
510 0 0 -180 0 -180 410 0 410 0 0 -1420 0 -1420 560 0 561 0 -4 1263 c-3 938
-6 1275 -15 1312 -7 28 -15 64 -18 80 -43 247 -193 613 -291 713 -7 7 -13 17
-13 22 0 5 -45 53 -100 109 -105 106 -203 178 -310 229 -138 65 -55 61 -1482
62 l-1298 0 0 -88z"/>
<path d="M40 3490 l0 -560 340 0 340 0 0 560 0 560 -340 0 -340 0 0 -560z"/>
</g>
</svg>
