<?xml version="1.0" encoding="UTF-8" ?>
<!DOCTYPE svg PUBLIC "-//W3C//DTD SVG 1.1//EN" "http://www.w3.org/Graphics/SVG/1.1/DTD/svg11.dtd">
<svg width="900pt" height="573pt" viewBox="0 0 900 573" version="1.1" xmlns="http://www.w3.org/2000/svg">
<g id="#000000ff">
<path fill="#000000" opacity="1.00" d=" M 45.00 4.00 C 97.33 4.00 149.67 4.00 202.00 4.00 C 202.00 33.33 202.00 62.67 202.00 92.00 C 149.67 92.00 97.33 92.00 45.00 92.00 C 45.00 62.67 45.00 33.33 45.00 4.00 Z" />
<path fill="#000000" opacity="1.00" d=" M 205.00 4.00 C 216.67 4.00 228.33 4.00 240.00 4.00 C 240.00 33.33 240.00 62.67 240.00 92.00 C 228.33 92.00 216.67 92.00 205.00 92.00 C 205.00 62.67 205.00 33.33 205.00 4.00 Z" />
<path fill="#000000" opacity="1.00" d=" M 243.00 4.00 C 306.00 4.00 369.00 4.00 432.00 4.00 C 432.00 33.33 432.00 62.67 432.00 92.00 C 369.00 92.00 306.00 92.00 243.00 92.00 C 243.00 62.67 243.00 33.33 243.00 4.00 Z" />
<path fill="#000000" opacity="1.00" d=" M 435.00 4.00 C 446.67 4.00 458.33 4.00 470.00 4.00 C 470.00 33.33 470.00 62.67 470.00 92.00 C 458.33 92.00 446.67 92.00 435.00 92.00 C 435.00 62.67 435.00 33.33 435.00 4.00 Z" />
<path fill="#000000" opacity="1.00" d=" M 473.00 4.00 C 484.67 4.00 496.33 4.00 508.00 4.00 C 508.00 33.33 508.00 62.67 508.00 92.00 C 496.33 92.00 484.67 92.00 473.00 92.00 C 473.00 62.67 473.00 33.33 473.00 4.00 Z" />
<path fill="#000000" opacity="1.00" d=" M 511.00 4.00 C 534.67 4.00 558.33 4.00 582.00 4.00 C 582.00 33.33 582.00 62.67 582.00 92.00 C 558.33 92.00 534.67 92.00 511.00 92.00 C 511.00 62.67 511.00 33.33 511.00 4.00 Z" />
<path fill="#000000" opacity="1.00" d=" M 793.00 4.00 C 827.33 4.00 861.67 4.00 896.00 4.00 C 895.98 102.00 896.04 200.00 895.97 298.00 C 895.87 299.30 896.18 300.51 896.88 301.63 C 897.16 333.42 896.92 365.21 897.00 397.00 C 845.00 397.00 793.00 397.00 741.00 397.00 C 741.00 366.00 741.00 335.00 741.00 304.00 C 716.00 304.00 691.00 304.00 666.00 304.00 C 666.00 237.33 666.00 170.67 666.00 104.00 C 708.33 104.00 750.67 104.00 793.00 104.00 C 793.00 70.67 793.00 37.33 793.00 4.00 Z" />
<path fill="#000000" opacity="1.00" d=" M 45.00 95.00 C 80.67 95.00 116.33 95.00 152.00 95.00 C 152.00 115.00 152.00 135.00 152.00 155.00 C 116.33 155.00 80.67 155.00 45.00 155.00 C 45.00 135.00 45.00 115.00 45.00 95.00 Z" />
<path fill="#000000" opacity="1.00" d=" M 45.00 158.00 C 80.67 158.00 116.33 158.00 152.00 158.00 C 152.00 186.34 152.00 214.67 152.00 243.00 C 116.33 243.00 80.67 243.00 45.00 243.00 C 45.00 214.67 45.00 186.33 45.00 158.00 Z" />
<path fill="#000000" opacity="1.00" d=" M 206.00 158.00 C 221.00 158.00 236.00 158.00 251.00 158.00 C 251.00 190.67 251.00 223.33 251.00 256.00 C 236.00 256.00 221.00 256.00 206.00 256.00 C 206.00 223.33 206.00 190.67 206.00 158.00 Z" />
<path fill="#000000" opacity="1.00" d=" M 254.00 158.00 C 262.33 158.00 270.67 158.00 279.00 158.00 C 279.00 190.67 279.00 223.33 279.00 256.00 C 270.67 256.00 262.33 256.00 254.00 256.00 C 254.00 223.33 254.00 190.67 254.00 158.00 Z" />
<path fill="#000000" opacity="1.00" d=" M 282.00 158.00 C 306.33 158.00 330.67 158.00 355.00 158.00 C 355.00 190.67 355.00 223.33 355.00 256.00 C 330.67 256.00 306.33 256.00 282.00 256.00 C 282.00 223.33 282.00 190.67 282.00 158.00 Z" />
<path fill="#000000" opacity="1.00" d=" M 358.00 158.00 C 408.00 158.00 458.00 158.00 508.00 158.00 C 508.00 224.67 508.00 291.33 508.00 358.00 C 458.00 358.00 408.00 358.00 358.00 358.00 C 358.00 291.33 358.00 224.67 358.00 158.00 Z" />
<path fill="#000000" opacity="1.00" d=" M 511.00 158.00 C 547.00 158.00 583.00 158.00 619.00 158.00 C 619.00 224.67 619.00 291.33 619.00 358.00 C 583.00 358.00 547.00 358.00 511.00 358.00 C 511.00 291.33 511.00 224.67 511.00 158.00 Z" />
<path fill="#000000" opacity="1.00" d=" M 45.00 246.00 C 80.67 246.00 116.33 246.00 152.00 246.00 C 152.00 275.33 152.00 304.67 152.00 334.00 C 116.33 334.00 80.67 334.00 45.00 334.00 C 45.00 304.67 45.00 275.33 45.00 246.00 Z" />
<path fill="#000000" opacity="1.00" d=" M 206.00 259.00 C 230.33 259.00 254.67 259.00 279.00 259.00 C 279.00 292.00 279.00 325.00 279.00 358.00 C 254.67 358.00 230.33 358.00 206.00 358.00 C 206.00 325.00 206.00 292.00 206.00 259.00 Z" />
<path fill="#000000" opacity="1.00" d=" M 282.00 259.00 C 306.33 259.00 330.67 259.00 355.00 259.00 C 355.00 292.00 355.00 325.00 355.00 358.00 C 330.67 358.00 306.33 358.00 282.00 358.00 C 282.00 325.00 282.00 292.00 282.00 259.00 Z" />
<path fill="#000000" opacity="1.00" d=" M 4.00 346.00 C 16.67 346.00 29.33 346.00 42.00 346.00 C 42.00 394.67 42.00 443.33 42.00 492.00 C 29.33 492.00 16.67 492.00 4.00 492.00 C 4.00 443.33 4.00 394.67 4.00 346.00 Z" />
<path fill="#000000" opacity="1.00" d=" M 63.00 360.00 C 82.00 360.00 101.00 360.00 120.00 360.00 C 120.00 367.67 120.00 375.33 120.00 383.00 C 101.00 383.00 82.00 383.00 63.00 383.00 C 63.00 375.33 63.00 367.67 63.00 360.00 Z" />
<path fill="#000000" opacity="1.00" d=" M 205.00 399.00 C 216.67 399.00 228.33 399.00 240.00 399.00 C 240.00 405.33 240.00 411.66 240.00 418.00 C 228.33 418.00 216.67 418.00 205.00 418.00 C 205.00 411.66 205.00 405.33 205.00 399.00 Z" />
<path fill="#000000" opacity="1.00" d=" M 271.00 399.00 C 285.67 399.00 300.33 399.00 315.00 399.00 C 315.00 405.33 315.00 411.66 315.00 418.00 C 300.33 418.00 285.67 418.00 271.00 418.00 C 271.00 411.67 271.00 405.33 271.00 399.00 Z" />
<path fill="#000000" opacity="1.00" d=" M 358.00 400.00 C 382.00 400.00 406.00 400.00 430.00 400.00 C 430.00 430.33 430.00 460.67 430.00 491.00 C 406.00 491.00 382.00 491.00 358.00 491.00 C 358.00 460.67 358.00 430.33 358.00 400.00 Z" />
<path fill="#000000" opacity="1.00" d=" M 433.00 400.00 C 457.67 400.00 482.33 400.00 507.00 400.00 C 507.00 430.33 507.00 460.67 507.00 491.00 C 482.33 491.00 457.67 491.00 433.00 491.00 C 433.00 460.67 433.00 430.33 433.00 400.00 Z" />
<path fill="#000000" opacity="1.00" d=" M 510.00 400.00 C 535.00 400.00 560.00 400.00 585.00 400.00 C 585.00 430.33 585.00 460.67 585.00 491.00 C 560.00 491.00 535.00 491.00 510.00 491.00 C 510.00 460.67 510.00 430.33 510.00 400.00 Z" />
<path fill="#000000" opacity="1.00" d=" M 588.00 400.00 C 613.00 400.00 638.00 400.00 663.00 400.00 C 663.00 430.33 663.00 460.67 663.00 491.00 C 638.00 491.00 613.00 491.00 588.00 491.00 C 588.00 460.67 588.00 430.33 588.00 400.00 Z" />
<path fill="#000000" opacity="1.00" d=" M 666.00 400.00 C 742.67 400.00 819.33 400.00 896.00 400.00 C 896.00 430.33 896.00 460.67 896.00 491.00 C 819.33 491.00 742.67 491.00 666.00 491.00 C 666.00 460.67 666.00 430.33 666.00 400.00 Z" />
<path fill="#000000" opacity="1.00" d=" M 45.00 420.00 C 71.00 420.00 97.00 420.00 123.00 420.00 C 123.00 430.00 123.00 440.00 123.00 450.00 C 97.00 450.00 71.00 450.00 45.00 450.00 C 45.00 440.00 45.00 430.00 45.00 420.00 Z" />
<path fill="#000000" opacity="1.00" d=" M 45.00 453.00 C 71.00 453.00 97.00 453.00 123.00 453.00 C 123.00 466.33 123.00 479.66 123.00 493.00 C 103.01 509.22 83.01 525.44 63.00 541.65 C 52.95 530.56 47.72 515.91 45.59 501.29 C 44.51 485.22 45.19 469.10 45.00 453.00 Z" />
<path fill="#000000" opacity="1.00" d=" M 125.22 494.00 C 150.93 493.99 176.64 494.00 202.35 494.00 C 203.24 510.29 195.58 525.50 186.35 538.41 C 183.21 543.49 178.44 547.18 174.10 551.17 C 168.70 555.24 163.40 559.64 157.05 562.16 C 151.14 565.34 144.47 566.43 138.08 568.20 C 124.08 570.79 109.47 569.30 96.04 564.69 C 87.76 561.77 80.60 556.55 73.55 551.45 C 70.37 548.97 66.41 547.04 64.92 543.03 C 69.46 541.15 72.97 537.78 76.24 534.23 C 92.51 520.75 108.91 507.44 125.22 494.00 Z" />
</g>
</svg>
