<?xml version="1.0" standalone="no"?>
<!DOCTYPE svg PUBLIC "-//W3C//DTD SVG 20010904//EN"
 "http://www.w3.org/TR/2001/REC-SVG-20010904/DTD/svg10.dtd">
<svg version="1.0" xmlns="http://www.w3.org/2000/svg"
 width="960.000000pt" height="465.000000pt" viewBox="0 0 960.000000 465.000000"
 preserveAspectRatio="xMidYMid meet">
<metadata>
Created by potrace 1.13, written by Peter Selinger 2001-2015
</metadata>
<g transform="translate(0.000000,465.000000) scale(0.100000,-0.100000)"
fill="#000000" stroke="none">
<path d="M40 3640 l0 -970 1055 0 1055 0 0 105 0 105 325 0 325 0 0 685 0 685
-340 0 -340 0 0 180 0 180 -1040 0 -1040 0 0 -970z"/>
<path d="M3080 4430 l0 -180 -125 0 -125 0 0 -685 0 -685 615 0 615 0 0 95 0
95 90 0 90 0 0 770 0 770 -580 0 -580 0 0 -180z"/>
<path d="M4270 3840 l0 -770 180 0 180 0 0 770 0 770 -180 0 -180 0 0 -770z"/>
<path d="M4660 3840 l0 -770 145 0 145 0 0 770 0 770 -145 0 -145 0 0 -770z"/>
<path d="M4980 3920 l0 -690 520 0 520 0 0 -80 0 -80 40 0 40 0 0 770 0 770
-560 0 -560 0 0 -690z"/>
<path d="M6420 3840 l0 -770 275 0 275 0 0 60 0 60 235 0 235 0 0 710 0 710
-510 0 -510 0 0 -770z"/>
<path d="M7470 3882 l0 -728 -35 4 -35 4 0 -101 c0 -81 3 -101 14 -101 8 0 21
7 30 15 8 8 20 15 26 15 6 0 13 7 16 15 4 8 11 15 17 15 11 0 120 80 125 93 2
4 10 7 17 7 7 0 15 3 17 8 2 4 21 19 44 35 37 25 48 27 137 27 l97 0 0 710 0
710 -235 0 -235 0 0 -728z"/>
<path d="M7970 3900 l0 -710 95 0 95 0 0 345 0 345 700 0 700 0 0 365 0 365
-795 0 -795 0 0 -710z"/>
<path d="M8190 3520 l0 -330 685 0 685 0 0 330 0 330 -685 0 -685 0 0 -330z"/>
<path d="M4980 3135 l0 -65 260 0 260 0 0 65 0 65 -260 0 -260 0 0 -65z"/>
<path d="M5530 3135 l0 -65 130 0 130 0 0 65 0 65 -130 0 -130 0 0 -65z"/>
<path d="M5820 3135 l0 -65 85 0 85 0 0 65 0 65 -85 0 -85 0 0 -65z"/>
<path d="M7000 3055 l0 -105 185 0 185 0 0 105 0 105 -185 0 -185 0 0 -105z"/>
<path d="M8540 3005 l0 -155 145 0 145 0 0 155 0 155 -145 0 -145 0 0 -155z"/>
<path d="M8860 3005 l0 -155 170 0 170 0 0 155 0 155 -170 0 -170 0 0 -155z"/>
<path d="M9230 3005 l0 -155 165 0 165 0 0 155 0 155 -165 0 -165 0 0 -155z"/>
<path d="M4090 2985 l0 -55 75 0 75 0 0 55 0 55 -75 0 -75 0 0 -55z"/>
<path d="M5620 2760 l0 -100 250 0 250 0 0 100 0 100 -250 0 -250 0 0 -100z"/>
<path d="M8540 2285 l0 -535 510 0 510 0 0 535 0 535 -510 0 -510 0 0 -535z"/>
<path d="M40 1340 l0 -1300 2100 0 2100 0 0 335 0 335 -1045 0 -1045 0 0 965
0 965 -1055 0 -1055 0 0 -1300z"/>
<path d="M6340 2475 l0 -155 190 0 190 0 0 155 0 155 -190 0 -190 0 0 -155z"/>
<path d="M6750 2310 l0 -320 150 0 150 0 0 320 0 320 -150 0 -150 0 0 -320z"/>
<path d="M7080 2475 l0 -155 205 0 205 0 0 155 0 155 -205 0 -205 0 0 -155z"/>
<path d="M7520 2475 l0 -155 180 0 180 0 0 155 0 155 -180 0 -180 0 0 -155z"/>
<path d="M6340 2140 l0 -150 190 0 190 0 0 150 0 150 -190 0 -190 0 0 -150z"/>
<path d="M7080 2140 l0 -150 205 0 205 0 0 150 0 150 -205 0 -205 0 0 -150z"/>
<path d="M7520 2140 l0 -150 180 0 180 0 0 150 0 150 -180 0 -180 0 0 -150z"/>
<path d="M6180 1225 l0 -495 95 0 95 0 0 495 0 495 -95 0 -95 0 0 -495z"/>
<path d="M6400 1210 l0 -510 -110 0 -110 0 0 -240 0 -240 455 0 455 0 0 -90 0
-90 180 0 180 0 0 440 0 440 -175 0 -175 0 0 400 0 400 -350 0 -350 0 0 -510z"/>
<path d="M7130 1335 l0 -385 160 0 160 0 0 385 0 385 -160 0 -160 0 0 -385z"/>
<path d="M7480 880 l0 -840 170 0 170 0 0 840 0 840 -170 0 -170 0 0 -840z"/>
<path d="M7850 880 l0 -840 140 0 140 0 0 840 0 840 -140 0 -140 0 0 -840z"/>
<path d="M8160 880 l0 -840 700 0 700 0 0 530 0 530 -365 0 -365 0 0 150 0
150 -160 0 -160 0 0 160 0 160 -175 0 -175 0 0 -840z"/>
<path d="M8540 1575 l0 -145 145 0 145 0 0 145 0 145 -145 0 -145 0 0 -145z"/>
<path d="M8860 1425 l0 -295 170 0 170 0 0 295 0 295 -170 0 -170 0 0 -295z"/>
<path d="M9230 1425 l0 -295 165 0 165 0 0 295 0 295 -165 0 -165 0 0 -295z"/>
<path d="M2180 1210 l0 -470 150 0 150 0 0 470 0 470 -150 0 -150 0 0 -470z"/>
<path d="M2510 1210 l0 -470 150 0 150 0 0 470 0 470 -150 0 -150 0 0 -470z"/>
<path d="M2840 1210 l0 -470 160 0 160 0 0 470 0 470 -160 0 -160 0 0 -470z"/>
<path d="M3190 1210 l0 -470 170 0 170 0 0 470 0 470 -170 0 -170 0 0 -470z"/>
<path d="M3560 1210 l0 -470 180 0 180 0 0 470 0 470 -180 0 -180 0 0 -470z"/>
<path d="M3950 1205 l0 -465 145 0 145 0 0 395 0 395 -50 22 c-27 12 -50 25
-50 30 0 4 -4 8 -9 8 -5 0 -41 18 -80 40 -39 22 -77 40 -86 40 -13 0 -15 -54
-15 -465z"/>
<path d="M4270 780 l0 -740 165 0 165 0 0 740 0 740 -165 0 -165 0 0 -740z"/>
<path d="M4630 780 l0 -740 105 0 105 0 0 265 0 265 60 0 60 0 0 475 0 475
-165 0 -165 0 0 -740z"/>
<path d="M4990 1045 l0 -475 165 0 165 0 0 475 0 475 -165 0 -165 0 0 -475z"/>
<path d="M5350 1045 l0 -475 160 0 160 0 0 475 0 475 -160 0 -160 0 0 -475z"/>
<path d="M5700 1045 l0 -475 165 0 165 0 0 475 0 475 -165 0 -165 0 0 -475z"/>
<path d="M4990 215 l0 -175 520 0 520 0 0 175 0 175 -520 0 -520 0 0 -175z"/>
</g>
</svg>
