<?xml version="1.0" standalone="no"?>
<!DOCTYPE svg PUBLIC "-//W3C//DTD SVG 20010904//EN"
 "http://www.w3.org/TR/2001/REC-SVG-20010904/DTD/svg10.dtd">
<svg version="1.0" xmlns="http://www.w3.org/2000/svg"
 width="900.000000pt" height="690.000000pt" viewBox="0 0 900.000000 690.000000"
 preserveAspectRatio="xMidYMid meet">
<metadata>
Created by potrace 1.12, written by Peter Selinger 2001-2015
</metadata>
<g transform="translate(0.000000,690.000000) scale(0.100000,-0.100000)"
fill="#000000" stroke="none">
<path d="M3880 5830 l0 -1030 430 0 430 0 0 -580 0 -580 605 0 605 0 0 300 0
300 275 0 275 0 0 1310 0 1310 -1310 0 -1310 0 0 -1030z"/>
<path d="M6542 5943 l3 -918 273 -3 272 -2 0 -290 0 -290 820 0 820 0 0 1210
0 1210 -1095 0 -1095 0 2 -917z"/>
<path d="M40 4265 l0 -495 115 0 115 0 0 -926 0 -926 143 4 c136 5 145 6 203
37 33 17 78 48 101 69 47 43 119 148 129 186 3 14 10 29 15 32 5 3 9 538 9
1260 l0 1254 -415 0 -415 0 0 -495z"/>
<path d="M900 3855 c1 -613 5 -905 12 -905 5 0 83 21 171 46 172 48 442 123
467 129 8 3 50 14 93 26 l77 22 0 794 0 793 -410 0 -411 0 1 -905z"/>
<path d="M1750 3970 l1 -790 27 4 c71 11 110 17 147 21 22 3 51 7 65 10 14 2
45 7 70 10 25 4 57 8 71 10 26 5 51 8 144 20 28 3 57 8 65 10 8 2 39 7 69 10
30 4 63 9 75 11 12 2 39 7 61 9 22 3 49 7 60 10 11 2 26 4 33 4 9 1 12 153 12
726 l0 725 -450 0 -451 0 1 -790z"/>
<path d="M2680 4050 l0 -710 884 0 884 0 79 87 c43 48 99 110 126 138 l47 52
0 571 0 572 -1010 0 -1010 0 0 -710z"/>
<path d="M7090 4025 l0 -385 820 0 820 0 0 385 0 385 -820 0 -820 0 0 -385z"/>
<path d="M7090 3185 l0 -425 415 0 415 0 0 425 0 425 -415 0 -415 0 0 -425z"/>
<path d="M7950 3170 l0 -440 -570 0 -570 0 0 -225 0 -225 960 0 960 0 0 665 0
665 -390 0 -390 0 0 -440z"/>
<path d="M2610 3285 c-17 -4 -140 -23 -185 -29 -46 -7 -118 -18 -140 -22 -11
-2 -38 -6 -60 -9 -22 -3 -49 -7 -60 -9 -11 -2 -42 -7 -70 -10 -27 -4 -77 -11
-110 -17 -33 -6 -73 -13 -90 -15 -30 -3 -95 -13 -128 -20 -18 -3 -504 -133
-602 -160 -27 -8 -61 -17 -75 -20 -14 -2 -61 -15 -105 -27 l-80 -23 -5 -329
-5 -330 -29 -65 c-54 -119 -113 -188 -210 -245 -73 -43 -132 -57 -261 -62 -66
-2 -121 -6 -122 -7 -1 -1 -3 -134 -4 -296 -1 -287 -1 -298 24 -395 61 -236
134 -383 265 -534 192 -221 389 -343 659 -407 l103 -24 665 0 665 0 0 440 0
440 -210 0 -210 0 0 835 0 835 211 0 210 0 -3 252 c-2 157 -7 252 -13 253 -5
2 -17 1 -25 0z"/>
<path d="M4240 2620 l0 -480 235 0 235 0 0 480 0 480 -235 0 -235 0 0 -480z"/>
<path d="M4920 2615 l0 -485 185 0 185 0 0 485 0 485 -185 0 -185 0 0 -485z"/>
<path d="M5500 2925 l0 -175 355 0 355 0 0 175 0 175 -355 0 -355 0 0 -175z"/>
<path d="M6420 2975 l0 -125 205 0 205 0 0 125 0 125 -205 0 -205 0 0 -125z"/>
<path d="M2260 1945 l0 -805 195 0 195 0 0 805 0 805 -195 0 -195 0 0 -805z"/>
<path d="M3670 2355 l0 -395 95 0 95 0 0 395 0 395 -95 0 -95 0 0 -395z"/>
<path d="M5500 2305 l0 -175 355 0 355 0 0 175 0 175 -355 0 -355 0 0 -175z"/>
<path d="M6810 1240 l0 -1010 560 0 560 0 0 -95 0 -95 515 0 515 0 0 515 0
515 -115 0 -115 0 0 590 0 590 -960 0 -960 0 0 -1010z"/>
<path d="M3670 1695 l0 -235 -495 0 -495 0 0 -710 0 -710 515 0 515 0 0 95 0
95 805 0 805 0 0 -95 0 -95 515 0 515 0 0 95 0 95 215 0 215 0 0 850 0 850
-1555 0 -1555 0 0 -235z"/>
</g>
</svg>
