<?xml version="1.0" standalone="no"?>
<!DOCTYPE svg PUBLIC "-//W3C//DTD SVG 20010904//EN"
 "http://www.w3.org/TR/2001/REC-SVG-20010904/DTD/svg10.dtd">
<svg version="1.0" xmlns="http://www.w3.org/2000/svg"
 width="960.000000pt" height="634.000000pt" viewBox="0 0 960.000000 634.000000"
 preserveAspectRatio="xMidYMid meet">
<metadata>
Created by potrace 1.13, written by Peter Selinger 2001-2015
</metadata>
<g transform="translate(0.000000,634.000000) scale(0.100000,-0.100000)"
fill="#000000" stroke="none">
<path d="M480 5495 l0 -805 855 0 855 0 0 -955 0 -955 655 0 655 0 0 1760 0
1760 -1510 0 -1510 0 0 -805z"/>
<path d="M3530 4540 l0 -1760 540 0 540 0 0 1760 0 1760 -540 0 -540 0 0
-1760z"/>
<path d="M4640 4540 l0 -1760 530 0 530 0 0 1760 0 1760 -530 0 -530 0 0
-1760z"/>
<path d="M5730 4540 l0 -1760 440 0 440 0 0 550 0 550 1475 0 1475 0 0 1210 0
1210 -1915 0 -1915 0 0 -1760z"/>
<path d="M480 3720 l0 -940 840 0 840 0 0 940 0 940 -840 0 -840 0 0 -940z"/>
<path d="M6640 3315 l0 -535 215 0 215 0 0 535 0 535 -215 0 -215 0 0 -535z"/>
<path d="M7100 3315 l0 -535 385 0 385 0 0 535 0 535 -385 0 -385 0 0 -535z"/>
<path d="M7900 3315 l0 -535 415 0 415 0 0 535 0 535 -415 0 -415 0 0 -535z"/>
<path d="M8760 2475 l0 -1375 400 0 400 0 0 1375 0 1375 -400 0 -400 0 0
-1375z"/>
<path d="M40 1875 l0 -775 205 0 205 0 0 775 0 775 -205 0 -205 0 0 -775z"/>
<path d="M680 2380 l0 -120 300 0 300 0 0 120 0 120 -300 0 -300 0 0 -120z"/>
<path d="M3820 2355 l0 -135 360 0 360 0 0 135 0 135 -360 0 -360 0 0 -135z"/>
<path d="M4780 2355 l0 -135 215 0 215 0 0 135 0 135 -215 0 -215 0 0 -135z"/>
<path d="M5670 2355 l0 -135 300 0 300 0 0 135 0 135 -300 0 -300 0 0 -135z"/>
<path d="M2190 1985 l0 -95 800 0 800 0 0 95 0 95 -800 0 -800 0 0 -95z"/>
<path d="M4390 1590 l0 -490 510 0 510 0 0 490 0 490 -510 0 -510 0 0 -490z"/>
<path d="M5440 1590 l0 -490 400 0 400 0 0 490 0 490 -400 0 -400 0 0 -490z"/>
<path d="M6270 1590 l0 -490 400 0 400 0 0 490 0 490 -400 0 -400 0 0 -490z"/>
<path d="M7100 1590 l0 -490 385 0 385 0 0 490 0 490 -385 0 -385 0 0 -490z"/>
<path d="M7900 1590 l0 -490 415 0 415 0 0 490 0 490 -415 0 -415 0 0 -490z"/>
<path d="M480 1436 c0 -464 3 -496 64 -646 50 -125 156 -264 255 -338 20 -15
38 -29 41 -32 9 -9 44 -29 110 -64 80 -42 200 -76 291 -83 l69 -6 0 797 0 796
-415 0 -415 0 0 -424z"/>
<path d="M1340 1480 l0 -380 410 0 410 0 0 280 0 280 -215 0 -215 0 0 100 0
100 -195 0 -195 0 0 -380z"/>
<path d="M1760 1775 l0 -85 200 0 200 0 0 85 0 85 -200 0 -200 0 0 -85z"/>
<path d="M3820 1225 l0 -125 270 0 270 0 0 125 0 125 -270 0 -270 0 0 -125z"/>
<path d="M1362 1072 l-23 -4 3 -396 3 -397 45 0 c153 -2 416 121 525 244 16
19 47 53 67 75 75 81 167 295 171 397 2 33 0 65 -4 71 -6 9 -110 12 -386 12
-208 1 -388 0 -401 -2z"/>
</g>
</svg>
